{
copyright = "Copyright (c) 2015, Cadson Demak (info@cadsondemak.com)";
customParameters = (
{
name = vendorID;
value = CDK;
},
{
name = description;
value = "Copyright (c) 2015, Cadson Demak (info@cadsondemak.com)";
},
{
name = license;

glyphs = (
{
glyphname = A;
lastChange = "2015-11-26 12:45:06 +0000";
layers = (
{
layerId = "45AE5D37-AE90-4B36-85E4-274E7BAA8508";
name = "Light Italic";
paths = (
{
closed = 1;
nodes = (
"36 0 LINE",
"153 200 LINE",
"476 200 LINE",
"509 0 LINE",
"534 0 LINE",
"428 644 LINE",
"383 644 LINE",
"4 0 LINE"
);
},
{
closed = 1;
nodes = (
"405 628 LINE",
"471 225 LINE",
"167 225 LINE"
);
}
);
width = 650;
}
);
leftKerningGroup = A;
note = A;
rightKerningGroup = A;
unicode = 0041;
},
{
glyphname = Aacute;
lastChange = "2015-11-26 12:45:05 +0000";
layers = (
{
layerId = "45AE5D37-AE90-4B36-85E4-274E7BAA8508";
name = "Light Italic";
paths = (
{
closed = 1;
nodes = (
"36 0 LINE",
"153 200 LINE",
"476 200 LINE",
"509 0 LINE",
"534 0 LINE",
"428 644 LINE",
"383 644 LINE",
"4 0 LINE"
);
},
{
closed = 1;
nodes = (
"405 628 LINE",
"471 225 LINE",
"167 225 LINE"
);
},
{
closed = 1;
nodes = (
"422 688 LINE",
"524 837 LINE",
"494 837 LINE",
"399 688 LINE"
);
}
);
width = 650;
}
);
leftKerningGroup = A;
note = Aacute;
rightKerningGroup = A;
unicode = 00C1;
},
{
glyphname = Abreve;
lastChange = "2015-11-26 12:45:06 +0000";
layers = (
{
layerId = "45AE5D37-AE90-4B36-85E4-274E7BAA8508";
name = "Light Italic";
paths = (
{
closed = 1;
nodes = (
"36 0 LINE",
"153 200 LINE",
"476 200 LINE",
"509 0 LINE",
"534 0 LINE",
"428 644 LINE",
"383 644 LINE",
"4 0 LINE"
);
},
{
closed = 1;
nodes = (
"405 628 LINE",
"471 225 LINE",
"167 225 LINE"
);
},
{
closed = 1;
nodes = (
"469 688 OFFCURVE",
"519 730 OFFCURVE",
"531 783 CURVE",
"504 783 LINE",
"495 743 OFFCURVE",
"459 713 OFFCURVE",
"418 713 CURVE SMOOTH",
"378 713 OFFCURVE",
"354 743 OFFCURVE",
"363 783 CURVE",
"340 783 LINE",
"328 730 OFFCURVE",
"362 688 OFFCURVE",
"415 688 CURVE SMOOTH"
);
}
);
width = 650;
}
);
leftKerningGroup = A;
note = Abreve;
rightKerningGroup = A;
unicode = 0102;
},
{
glyphname = Abreveacute;
lastChange = "2015-11-26 12:45:06 +0000";
layers = (
{
layerId = "45AE5D37-AE90-4B36-85E4-274E7BAA8508";
name = "Light Italic";
paths = (
{
closed = 1;
nodes = (
"36 0 LINE",
"153 200 LINE",
"476 200 LINE",
"509 0 LINE",
"534 0 LINE",
"428 644 LINE",
"383 644 LINE",
"4 0 LINE"
);
},
{
closed = 1;
nodes = (
"405 628 LINE",
"471 225 LINE",
"167 225 LINE"
);
},
{
closed = 1;
nodes = (
"486 688 OFFCURVE",
"552 720 OFFCURVE",
"571 812 CURVE",
"545 812 LINE",
"531 743 OFFCURVE",
"480 713 OFFCURVE",
"419 713 CURVE SMOOTH",
"352 713 OFFCURVE",
"321 743 OFFCURVE",
"335 812 CURVE",
"311 812 LINE",
"292 720 OFFCURVE",
"349 688 OFFCURVE",
"415 688 CURVE SMOOTH"
);
},
{
closed = 1;
nodes = (
"432 780 LINE",
"520 889 LINE",
"491 889 LINE",
"410 780 LINE"
);
}
);
width = 650;
}
);
leftKerningGroup = A;
note = Abreveacute;
rightKerningGroup = A;
unicode = 1EAE;
},
{
glyphname = Abrevedotbelow;
lastChange = "2015-11-26 12:45:06 +0000";
layers = (
{
layerId = "45AE5D37-AE90-4B36-85E4-274E7BAA8508";
name = "Light Italic";
paths = (
{
closed = 1;
nodes = (
"36 0 LINE",
"153 200 LINE",
"476 200 LINE",
"509 0 LINE",
"534 0 LINE",
"428 644 LINE",
"383 644 LINE",
"4 0 LINE"
);
},
{
closed = 1;
nodes = (
"259 -139 LINE",
"267 -102 LINE",
"230 -102 LINE",
"222 -139 LINE"
);
},
{
closed = 1;
nodes = (
"405 628 LINE",
"471 225 LINE",
"167 225 LINE"
);
},
{
closed = 1;
nodes = (
"469 688 OFFCURVE",
"519 730 OFFCURVE",
"531 783 CURVE",
"504 783 LINE",
"495 743 OFFCURVE",
"459 713 OFFCURVE",
"418 713 CURVE SMOOTH",
"378 713 OFFCURVE",
"354 743 OFFCURVE",
"363 783 CURVE",
"340 783 LINE",
"328 730 OFFCURVE",
"362 688 OFFCURVE",
"415 688 CURVE SMOOTH"
);
}
);
width = 650;
}
);
leftKerningGroup = A;
note = Abrevedotbelow;
rightKerningGroup = A;
unicode = 1EB6;
},
{
glyphname = Abrevegrave;
lastChange = "2015-11-26 12:45:07 +0000";
layers = (
{
layerId = "45AE5D37-AE90-4B36-85E4-274E7BAA8508";
name = "Light Italic";
paths = (
{
closed = 1;
nodes = (
"36 0 LINE",
"153 200 LINE",
"476 200 LINE",
"509 0 LINE",
"534 0 LINE",
"428 644 LINE",
"383 644 LINE",
"4 0 LINE"
);
},
{
closed = 1;
nodes = (
"405 628 LINE",
"471 225 LINE",
"167 225 LINE"
);
},
{
closed = 1;
nodes = (
"486 688 OFFCURVE",
"552 720 OFFCURVE",
"571 812 CURVE",
"545 812 LINE",
"531 743 OFFCURVE",
"480 713 OFFCURVE",
"419 713 CURVE SMOOTH",
"352 713 OFFCURVE",
"321 743 OFFCURVE",
"335 812 CURVE",
"311 812 LINE",
"292 720 OFFCURVE",
"349 688 OFFCURVE",
"415 688 CURVE SMOOTH"
);
},
{
closed = 1;
nodes = (
"458 780 LINE",
"425 889 LINE",
"396 889 LINE",
"436 780 LINE"
);
}
);
width = 650;
}
);
leftKerningGroup = A;
note = Abrevegrave;
rightKerningGroup = A;
unicode = 1EB0;
},
{
glyphname = Abrevehookabove;
lastChange = "2015-11-26 12:45:07 +0000";
layers = (
{
layerId = "45AE5D37-AE90-4B36-85E4-274E7BAA8508";
name = "Light Italic";
paths = (
{
closed = 1;
nodes = (
"36 0 LINE",
"153 200 LINE",
"476 200 LINE",
"509 0 LINE",
"534 0 LINE",
"428 644 LINE",
"383 644 LINE",
"4 0 LINE"
);
},
{
closed = 1;
nodes = (
"405 628 LINE",
"471 225 LINE",
"167 225 LINE"
);
},
{
closed = 1;
nodes = (
"486 688 OFFCURVE",
"552 720 OFFCURVE",
"571 812 CURVE",
"545 812 LINE",
"531 743 OFFCURVE",
"480 713 OFFCURVE",
"419 713 CURVE SMOOTH",
"352 713 OFFCURVE",
"321 743 OFFCURVE",
"335 812 CURVE",
"311 812 LINE",
"292 720 OFFCURVE",
"349 688 OFFCURVE",
"415 688 CURVE SMOOTH"
);
},
{
closed = 1;
nodes = (
"426 759 LINE",
"434 796 LINE",
"493 802 OFFCURVE",
"521 823 OFFCURVE",
"530 865 CURVE SMOOTH",
"539 910 OFFCURVE",
"510 934 OFFCURVE",
"464 934 CURVE SMOOTH",
"440 934 OFFCURVE",
"419 929 OFFCURVE",
"402 922 CURVE",
"396 897 LINE",
"416 905 OFFCURVE",
"435 910 OFFCURVE",
"459 910 CURVE SMOOTH",
"499 910 OFFCURVE",
"511 894 OFFCURVE",
"505 865 CURVE SMOOTH",
"498 834 OFFCURVE",
"483 819 OFFCURVE",
"410 815 CURVE",
"398 759 LINE"
);
}
);
width = 650;
}
);
leftKerningGroup = A;
note = Abrevehookabove;
rightKerningGroup = A;
unicode = 1EB2;
},
{
glyphname = Abrevetilde;
lastChange = "2015-11-26 12:45:06 +0000";
layers = (
{
layerId = "45AE5D37-AE90-4B36-85E4-274E7BAA8508";
name = "Light Italic";
paths = (
{
closed = 1;
nodes = (
"36 0 LINE",
"153 200 LINE",
"476 200 LINE",
"509 0 LINE",
"534 0 LINE",
"428 644 LINE",
"383 644 LINE",
"4 0 LINE"
);
},
{
closed = 1;
nodes = (
"405 628 LINE",
"471 225 LINE",
"167 225 LINE"
);
},
{
closed = 1;
nodes = (
"486 688 OFFCURVE",
"552 720 OFFCURVE",
"571 812 CURVE",
"545 812 LINE",
"531 743 OFFCURVE",
"480 713 OFFCURVE",
"419 713 CURVE SMOOTH",
"352 713 OFFCURVE",
"321 743 OFFCURVE",
"335 812 CURVE",
"311 812 LINE",
"292 720 OFFCURVE",
"349 688 OFFCURVE",
"415 688 CURVE SMOOTH"
);
},
{
closed = 1;
nodes = (
"349 874 OFFCURVE",
"373 880 OFFCURVE",
"401 880 CURVE SMOOTH",
"438 880 OFFCURVE",
"458 848 OFFCURVE",
"504 848 CURVE SMOOTH",
"533 848 OFFCURVE",
"560 857 OFFCURVE",
"579 874 CURVE",
"586 905 LINE",
"557 879 OFFCURVE",
"534 873 OFFCURVE",
"506 873 CURVE SMOOTH",
"463 873 OFFCURVE",
"452 905 OFFCURVE",
"403 905 CURVE SMOOTH",
"374 905 OFFCURVE",
"347 896 OFFCURVE",
"327 879 CURVE",
"321 848 LINE"
);
}
);
width = 650;
}
);
leftKerningGroup = A;
note = Abrevetilde;
rightKerningGroup = A;
unicode = 1EB4;
},
{
glyphname = Acaron;
lastChange = "2015-11-26 12:45:03 +0000";
layers = (
{
layerId = "45AE5D37-AE90-4B36-85E4-274E7BAA8508";
name = "Light Italic";
paths = (
{
closed = 1;
nodes = (
"36 0 LINE",
"153 200 LINE",
"476 200 LINE",
"509 0 LINE",
"534 0 LINE",
"428 644 LINE",
"383 644 LINE",
"4 0 LINE"
);
},
{
closed = 1;
nodes = (
"405 628 LINE",
"471 225 LINE",
"167 225 LINE"
);
},
{
closed = 1;
nodes = (
"430 688 LINE",
"551 810 LINE",
"520 810 LINE",
"417 706 LINE",
"358 810 LINE",
"331 810 LINE",
"400 688 LINE"
);
}
);
width = 650;
}
);
leftKerningGroup = A;
note = Acaron;
rightKerningGroup = A;
unicode = 01CD;
},
{
glyphname = Acircumflex;
lastChange = "2015-11-26 12:45:05 +0000";
layers = (
{
layerId = "45AE5D37-AE90-4B36-85E4-274E7BAA8508";
name = "Light Italic";
paths = (
{
closed = 1;
nodes = (
"36 0 LINE",
"153 200 LINE",
"476 200 LINE",
"509 0 LINE",
"534 0 LINE",
"428 644 LINE",
"383 644 LINE",
"4 0 LINE"
);
},
{
closed = 1;
nodes = (
"405 628 LINE",
"471 225 LINE",
"167 225 LINE"
);
},
{
closed = 1;
nodes = (
"336 688 LINE",
"439 792 LINE",
"498 688 LINE",
"525 688 LINE",
"456 810 LINE",
"426 810 LINE",
"306 688 LINE"
);
}
);
width = 650;
}
);
leftKerningGroup = A;
note = Acircumflex;
rightKerningGroup = A;
unicode = 00C2;
},
{
glyphname = Acircumflexacute;
lastChange = "2015-11-26 12:45:06 +0000";
layers = (
{
layerId = "45AE5D37-AE90-4B36-85E4-274E7BAA8508";
name = "Light Italic";
paths = (
{
closed = 1;
nodes = (
"36 0 LINE",
"153 200 LINE",
"476 200 LINE",
"509 0 LINE",
"534 0 LINE",
"428 644 LINE",
"383 644 LINE",
"4 0 LINE"
);
},
{
closed = 1;
nodes = (
"405 628 LINE",
"471 225 LINE",
"167 225 LINE"
);
},
{
closed = 1;
nodes = (
"335 688 LINE",
"434 774 LINE",
"497 688 LINE",
"524 688 LINE",
"450 790 LINE",
"420 790 LINE",
"304 688 LINE"
);
},
{
closed = 1;
nodes = (
"516 790 LINE",
"603 899 LINE",
"575 899 LINE",
"494 790 LINE"
);
}
);
width = 650;
}
);
leftKerningGroup = A;
note = Acircumflexacute;
rightKerningGroup = A;
unicode = 1EA4;
},
{
glyphname = Acircumflexdotbelow;
lastChange = "2015-11-26 12:45:04 +0000";
layers = (
{
layerId = "45AE5D37-AE90-4B36-85E4-274E7BAA8508";
name = "Light Italic";
paths = (
{
closed = 1;
nodes = (
"36 0 LINE",
"153 200 LINE",
"476 200 LINE",
"509 0 LINE",
"534 0 LINE",
"428 644 LINE",
"383 644 LINE",
"4 0 LINE"
);
},
{
closed = 1;
nodes = (
"259 -139 LINE",
"267 -102 LINE",
"230 -102 LINE",
"222 -139 LINE"
);
},
{
closed = 1;
nodes = (
"405 628 LINE",
"471 225 LINE",
"167 225 LINE"
);
},
{
closed = 1;
nodes = (
"336 688 LINE",
"439 792 LINE",
"498 688 LINE",
"525 688 LINE",
"456 810 LINE",
"426 810 LINE",
"306 688 LINE"
);
}
);
width = 650;
}
);
leftKerningGroup = A;
note = Acircumflexdotbelow;
rightKerningGroup = A;
unicode = 1EAC;
},
{
glyphname = Acircumflexgrave;
lastChange = "2015-11-26 12:45:04 +0000";
layers = (
{
layerId = "45AE5D37-AE90-4B36-85E4-274E7BAA8508";
name = "Light Italic";
paths = (
{
closed = 1;
nodes = (
"36 0 LINE",
"153 200 LINE",
"476 200 LINE",
"509 0 LINE",
"534 0 LINE",
"428 644 LINE",
"383 644 LINE",
"4 0 LINE"
);
},
{
closed = 1;
nodes = (
"405 628 LINE",
"471 225 LINE",
"167 225 LINE"
);
},
{
closed = 1;
nodes = (
"343 688 LINE",
"442 774 LINE",
"505 688 LINE",
"532 688 LINE",
"458 790 LINE",
"428 790 LINE",
"312 688 LINE"
);
},
{
closed = 1;
nodes = (
"384 790 LINE",
"351 899 LINE",
"322 899 LINE",
"362 790 LINE"
);
}
);
width = 650;
}
);
leftKerningGroup = A;
note = Acircumflexgrave;
rightKerningGroup = A;
unicode = 1EA6;
},
{
glyphname = Acircumflexhookabove;
lastChange = "2015-11-26 12:45:07 +0000";
layers = (
{
layerId = "45AE5D37-AE90-4B36-85E4-274E7BAA8508";
name = "Light Italic";
paths = (
{
closed = 1;
nodes = (
"36 0 LINE",
"153 200 LINE",
"476 200 LINE",
"509 0 LINE",
"534 0 LINE",
"428 644 LINE",
"383 644 LINE",
"4 0 LINE"
);
},
{
closed = 1;
nodes = (
"405 628 LINE",
"471 225 LINE",
"167 225 LINE"
);
},
{
closed = 1;
nodes = (
"339 688 LINE",
"438 774 LINE",
"501 688 LINE",
"528 688 LINE",
"454 790 LINE",
"424 790 LINE",
"308 688 LINE"
);
},
{
closed = 1;
nodes = (
"529 769 LINE",
"537 806 LINE",
"595 812 OFFCURVE",
"624 833 OFFCURVE",
"632 875 CURVE SMOOTH",
"642 920 OFFCURVE",
"616 944 OFFCURVE",
"566 944 CURVE SMOOTH",
"543 944 OFFCURVE",
"522 939 OFFCURVE",
"505 932 CURVE",
"499 907 LINE",
"519 915 OFFCURVE",
"538 920 OFFCURVE",
"561 920 CURVE SMOOTH",
"599 920 OFFCURVE",
"614 904 OFFCURVE",
"607 875 CURVE",
"601 844 OFFCURVE",
"585 829 OFFCURVE",
"513 825 CURVE",
"501 769 LINE"
);
}
);
width = 650;
}
);
leftKerningGroup = A;
note = Acircumflexhookabove;
rightKerningGroup = A;
unicode = 1EA8;
},
{
glyphname = Acircumflextilde;
lastChange = "2015-11-26 12:45:06 +0000";
layers = (
{
layerId = "45AE5D37-AE90-4B36-85E4-274E7BAA8508";
name = "Light Italic";
paths = (
{
closed = 1;
nodes = (
"36 0 LINE",
"153 200 LINE",
"476 200 LINE",
"509 0 LINE",
"534 0 LINE",
"428 644 LINE",
"383 644 LINE",
"4 0 LINE"
);
},
{
closed = 1;
nodes = (
"405 628 LINE",
"471 225 LINE",
"167 225 LINE"
);
},
{
closed = 1;
nodes = (
"335 688 LINE",
"434 774 LINE",
"497 688 LINE",
"524 688 LINE",
"450 790 LINE",
"420 790 LINE",
"304 688 LINE"
);
},
{
closed = 1;
nodes = (
"343 829 OFFCURVE",
"366 835 OFFCURVE",
"394 835 CURVE SMOOTH",
"431 835 OFFCURVE",
"451 803 OFFCURVE",
"497 803 CURVE SMOOTH",
"526 803 OFFCURVE",
"552 812 OFFCURVE",
"572 829 CURVE",
"578 860 LINE",
"550 834 OFFCURVE",
"527 828 OFFCURVE",
"499 828 CURVE SMOOTH",
"456 828 OFFCURVE",
"445 860 OFFCURVE",
"396 860 CURVE SMOOTH",
"367 860 OFFCURVE",
"340 851 OFFCURVE",
"321 834 CURVE",
"314 803 LINE"
);
}
);
width = 650;
}
);
leftKerningGroup = A;
note = Acircumflextilde;
rightKerningGroup = A;
unicode = 1EAA;
},
{
glyphname = Adieresis;
lastChange = "2015-11-26 12:45:03 +0000";
layers = (
{
layerId = "45AE5D37-AE90-4B36-85E4-274E7BAA8508";
name = "Light Italic";
paths = (
{
closed = 1;
nodes = (
"36 0 LINE",
"153 200 LINE",
"476 200 LINE",
"509 0 LINE",
"534 0 LINE",
"428 644 LINE",
"383 644 LINE",
"4 0 LINE"
);
},
{
closed = 1;
nodes = (
"405 628 LINE",
"471 225 LINE",
"167 225 LINE"
);
},
{
closed = 1;
nodes = (
"360 718 LINE",
"367 753 LINE",
"332 753 LINE",
"325 718 LINE"
);
},
{
closed = 1;
nodes = (
"517 718 LINE",
"524 753 LINE",
"489 753 LINE",
"482 718 LINE"
);
}
);
width = 650;
}
);
leftKerningGroup = A;
note = Adieresis;
rightKerningGroup = A;
unicode = 00C4;
},
{
glyphname = Adotbelow;
lastChange = "2015-11-26 12:45:03 +0000";
layers = (
{
layerId = "45AE5D37-AE90-4B36-85E4-274E7BAA8508";
name = "Light Italic";
paths = (
{
closed = 1;
nodes = (
"36 0 LINE",
"153 200 LINE",
"476 200 LINE",
"509 0 LINE",
"534 0 LINE",
"428 644 LINE",
"383 644 LINE",
"4 0 LINE"
);
},
{
closed = 1;
nodes = (
"259 -139 LINE",
"267 -102 LINE",
"230 -102 LINE",
"222 -139 LINE"
);
},
{
closed = 1;
nodes = (
"405 628 LINE",
"471 225 LINE",
"167 225 LINE"
);
}
);
width = 650;
}
);
leftKerningGroup = A;
note = Adotbelow;
rightKerningGroup = A;
unicode = 1EA0;
},
{
glyphname = Agrave;
lastChange = "2015-11-26 12:45:05 +0000";
layers = (
{
layerId = "45AE5D37-AE90-4B36-85E4-274E7BAA8508";
name = "Light Italic";
paths = (
{
closed = 1;
nodes = (
"36 0 LINE",
"153 200 LINE",
"476 200 LINE",
"509 0 LINE",
"534 0 LINE",
"428 644 LINE",
"383 644 LINE",
"4 0 LINE"
);
},
{
closed = 1;
nodes = (
"405 628 LINE",
"471 225 LINE",
"167 225 LINE"
);
},
{
closed = 1;
nodes = (
"426 688 LINE",
"395 837 LINE",
"365 837 LINE",
"403 688 LINE"
);
}
);
width = 650;
}
);
leftKerningGroup = A;
note = Agrave;
rightKerningGroup = A;
unicode = 00C0;
},
{
glyphname = Ahookabove;
lastChange = "2015-11-26 12:45:06 +0000";
layers = (
{
layerId = "45AE5D37-AE90-4B36-85E4-274E7BAA8508";
name = "Light Italic";
paths = (
{
closed = 1;
nodes = (
"36 0 LINE",
"153 200 LINE",
"476 200 LINE",
"509 0 LINE",
"534 0 LINE",
"428 644 LINE",
"383 644 LINE",
"4 0 LINE"
);
},
{
closed = 1;
nodes = (
"405 628 LINE",
"471 225 LINE",
"167 225 LINE"
);
},
{
closed = 1;
nodes = (
"428 688 LINE",
"440 744 LINE",
"512 750 OFFCURVE",
"539 778 OFFCURVE",
"551 830 CURVE SMOOTH",
"562 885 OFFCURVE",
"528 915 OFFCURVE",
"458 915 CURVE SMOOTH",
"438 915 OFFCURVE",
"403 910 OFFCURVE",
"385 903 CURVE",
"380 878 LINE",
"399 885 OFFCURVE",
"429 890 OFFCURVE",
"451 890 CURVE SMOOTH",
"518 890 OFFCURVE",
"534 869 OFFCURVE",
"526 830 CURVE SMOOTH",
"517 789 OFFCURVE",
"502 766 OFFCURVE",
"416 763 CURVE",
"400 688 LINE"
);
}
);
width = 650;
}
);
leftKerningGroup = A;
note = Ahookabove;
rightKerningGroup = A;
unicode = 1EA2;
},
{
glyphname = Amacron;
lastChange = "2015-11-26 12:45:06 +0000";
layers = (
{
layerId = "45AE5D37-AE90-4B36-85E4-274E7BAA8508";
name = "Light Italic";
paths = (
{
closed = 1;
nodes = (
"36 0 LINE",
"153 200 LINE",
"476 200 LINE",
"509 0 LINE",
"534 0 LINE",
"428 644 LINE",
"383 644 LINE",
"4 0 LINE"
);
},
{
closed = 1;
nodes = (
"405 628 LINE",
"471 225 LINE",
"167 225 LINE"
);
},
{
closed = 1;
nodes = (
"554 718 LINE",
"560 743 LINE",
"294 743 LINE",
"288 718 LINE"
);
}
);
width = 650;
}
);
leftKerningGroup = A;
note = Amacron;
rightKerningGroup = A;
unicode = 0100;
},
{
glyphname = Aogonek;
lastChange = "2015-11-26 12:45:04 +0000";
layers = (
{
layerId = "45AE5D37-AE90-4B36-85E4-274E7BAA8508";
name = "Light Italic";
paths = (
{
closed = 1;
nodes = (
"482 -220 OFFCURVE",
"502 -217 OFFCURVE",
"518 -209 CURVE",
"523 -184 LINE",
"510 -191 OFFCURVE",
"489 -195 OFFCURVE",
"472 -195 CURVE SMOOTH",
"428 -195 OFFCURVE",
"420 -176 OFFCURVE",
"429 -135 CURVE SMOOTH",
"439 -88 OFFCURVE",
"473 -39 OFFCURVE",
"534 0 CURVE",
"428 644 LINE",
"383 644 LINE",
"4 0 LINE",
"36 0 LINE",
"153 200 LINE",
"476 200 LINE",
"509 0 LINE",
"460 -27 OFFCURVE",
"413 -80 OFFCURVE",
"402 -135 CURVE SMOOTH",
"388 -198 OFFCURVE",
"422 -220 OFFCURVE",
"467 -220 CURVE SMOOTH"
);
},
{
closed = 1;
nodes = (
"405 628 LINE",
"471 225 LINE",
"167 225 LINE"
);
}
);
width = 644;
}
);
leftKerningGroup = A;
note = Aogonek;
rightKerningGroup = A;
unicode = 0104;
},
{
glyphname = Aring;
lastChange = "2015-11-26 12:45:06 +0000";
layers = (
{
layerId = "45AE5D37-AE90-4B36-85E4-274E7BAA8508";
name = "Light Italic";
paths = (
{
closed = 1;
nodes = (
"36 0 LINE",
"153 200 LINE",
"476 200 LINE",
"509 0 LINE",
"534 0 LINE",
"430 631 LINE",
"475 642 OFFCURVE",
"509 679 OFFCURVE",
"518 723 CURVE SMOOTH",
"529 777 OFFCURVE",
"499 819 OFFCURVE",
"442 819 CURVE SMOOTH",
"385 819 OFFCURVE",
"338 777 OFFCURVE",
"327 723 CURVE SMOOTH",
"318 679 OFFCURVE",
"336 642 OFFCURVE",
"375 631 CURVE",
"4 0 LINE"
);
},
{
closed = 1;
nodes = (
"405 628 LINE",
"471 225 LINE",
"167 225 LINE"
);
},
{
closed = 1;
nodes = (
"356 653 OFFCURVE",
"343 683 OFFCURVE",
"352 723 CURVE SMOOTH",
"360 764 OFFCURVE",
"397 794 OFFCURVE",
"437 794 CURVE SMOOTH",
"491 794 OFFCURVE",
"502 764 OFFCURVE",
"493 723 CURVE SMOOTH",
"485 683 OFFCURVE",
"448 653 OFFCURVE",
"407 653 CURVE SMOOTH"
);
}
);
width = 650;
}
);
leftKerningGroup = A;
note = Aring;
rightKerningGroup = A;
unicode = 00C5;
},
{
glyphname = Aringacute;
lastChange = "2015-11-26 12:45:06 +0000";
layers = (
{
layerId = "45AE5D37-AE90-4B36-85E4-274E7BAA8508";
name = "Light Italic";
paths = (
{
closed = 1;
nodes = (
"36 0 LINE",
"153 200 LINE",
"476 200 LINE",
"509 0 LINE",
"534 0 LINE",
"428 644 LINE",
"383 644 LINE",
"4 0 LINE"
);
},
{
closed = 1;
nodes = (
"405 628 LINE",
"471 225 LINE",
"167 225 LINE"
);
},
{
closed = 1;
nodes = (
"478 850 LINE",
"580 969 LINE",
"550 969 LINE",
"455 850 LINE"
);
}
);
width = 650;
}
);
leftKerningGroup = A;
note = Aringacute;
rightKerningGroup = A;
unicode = 01FA;
},
{
glyphname = Atilde;
lastChange = "2015-11-26 12:45:06 +0000";
layers = (
{
layerId = "45AE5D37-AE90-4B36-85E4-274E7BAA8508";
name = "Light Italic";
paths = (
{
closed = 1;
nodes = (
"36 0 LINE",
"153 200 LINE",
"476 200 LINE",
"509 0 LINE",
"534 0 LINE",
"428 644 LINE",
"383 644 LINE",
"4 0 LINE"
);
},
{
closed = 1;
nodes = (
"405 628 LINE",
"471 225 LINE",
"167 225 LINE"
);
},
{
closed = 1;
nodes = (
"518 718 OFFCURVE",
"541 728 OFFCURVE",
"558 746 CURVE",
"565 777 LINE",
"541 751 OFFCURVE",
"518 743 OFFCURVE",
"489 743 CURVE SMOOTH",
"446 743 OFFCURVE",
"425 779 OFFCURVE",
"376 779 CURVE SMOOTH",
"348 779 OFFCURVE",
"317 769 OFFCURVE",
"298 751 CURVE",
"292 720 LINE",
"319 747 OFFCURVE",
"346 754 OFFCURVE",
"374 754 CURVE SMOOTH",
"411 754 OFFCURVE",
"441 718 OFFCURVE",
"487 718 CURVE SMOOTH"
);
}
);
width = 650;
}
);
leftKerningGroup = A;
note = Atilde;
rightKerningGroup = A;
unicode = 00C3;
},
{
glyphname = AE;
lastChange = "2015-11-26 12:45:05 +0000";
layers = (
{
layerId = "45AE5D37-AE90-4B36-85E4-274E7BAA8508";
name = "Light Italic";
paths = (
{
closed = 1;
nodes = (
"33 0 LINE",
"150 200 LINE",
"398 200 LINE",
"356 0 LINE",
"709 0 LINE",
"714 25 LINE",
"389 25 LINE",
"449 309 LINE",
"739 309 LINE",
"745 335 LINE",
"455 335 LINE",
"515 618 LINE",
"840 618 LINE",
"845 644 LINE",
"383 644 LINE",
"4 0 LINE"
);
},
{
closed = 1;
nodes = (
"397 618 LINE",
"487 618 LINE",
"403 225 LINE",
"165 225 LINE"
);
}
);
width = 825;
}
);
leftKerningGroup = A;
note = AE;
rightKerningGroup = E;
unicode = 00C6;
},
{
glyphname = AEacute;
lastChange = "2015-11-26 12:45:04 +0000";
layers = (
{
layerId = "45AE5D37-AE90-4B36-85E4-274E7BAA8508";
name = "Light Italic";
paths = (
{
closed = 1;
nodes = (
"33 0 LINE",
"150 200 LINE",
"398 200 LINE",
"356 0 LINE",
"709 0 LINE",
"714 25 LINE",
"389 25 LINE",
"449 309 LINE",
"739 309 LINE",
"745 335 LINE",
"455 335 LINE",
"515 618 LINE",
"840 618 LINE",
"845 644 LINE",
"383 644 LINE",
"4 0 LINE"
);
},
{
closed = 1;
nodes = (
"397 618 LINE",
"487 618 LINE",
"403 225 LINE",
"165 225 LINE"
);
},
{
closed = 1;
nodes = (
"557 688 LINE",
"659 837 LINE",
"629 837 LINE",
"534 688 LINE"
);
}
);
width = 825;
}
);
leftKerningGroup = A;
note = AEacute;
rightKerningGroup = E;
unicode = 01FC;
},
{
glyphname = B;
lastChange = "2015-11-26 12:45:04 +0000";
layers = (
{
layerId = "45AE5D37-AE90-4B36-85E4-274E7BAA8508";
name = "Light Italic";
paths = (
{
closed = 1;
nodes = (
"314 0 LINE SMOOTH",
"436 0 OFFCURVE",
"508 54 OFFCURVE",
"534 181 CURVE SMOOTH",
"552 270 OFFCURVE",
"519 321 OFFCURVE",
"452 335 CURVE",
"511 357 OFFCURVE",
"555 405 OFFCURVE",
"570 478 CURVE SMOOTH",
"593 584 OFFCURVE",
"549 644 OFFCURVE",
"429 644 CURVE SMOOTH",
"160 644 LINE",
"24 0 LINE"
);
},
{
closed = 1;
nodes = (
"120 322 LINE",
"369 322 LINE SMOOTH",
"504 322 OFFCURVE",
"526 271 OFFCURVE",
"507 181 CURVE SMOOTH",
"483 69 OFFCURVE",
"427 25 OFFCURVE",
"323 25 CURVE SMOOTH",
"57 25 LINE"
);
},
{
closed = 1;
nodes = (
"183 619 LINE",
"419 619 LINE SMOOTH",
"546 619 OFFCURVE",
"562 568 OFFCURVE",
"543 478 CURVE SMOOTH",
"527 403 OFFCURVE",
"479 347 OFFCURVE",
"381 347 CURVE SMOOTH",
"125 347 LINE"
);
}
);
width = 612;
}
);
note = B;
unicode = 0042;
},
{
glyphname = C;
lastChange = "2015-11-26 12:45:03 +0000";
layers = (
{
layerId = "45AE5D37-AE90-4B36-85E4-274E7BAA8508";
name = "Light Italic";
paths = (
{
closed = 1;
nodes = (
"355 -10 OFFCURVE",
"417 -1 OFFCURVE",
"470 14 CURVE",
"476 40 LINE",
"423 24 OFFCURVE",
"354 15 OFFCURVE",
"296 15 CURVE SMOOTH",
"98 15 OFFCURVE",
"57 124 OFFCURVE",
"94 301 CURVE SMOOTH",
"136 494 OFFCURVE",
"229 629 OFFCURVE",
"423 629 CURVE SMOOTH",
"489 629 OFFCURVE",
"549 618 OFFCURVE",
"595 600 CURVE",
"601 626 LINE",
"554 644 OFFCURVE",
"497 654 OFFCURVE",
"426 654 CURVE SMOOTH",
"214 654 OFFCURVE",
"111 508 OFFCURVE",
"67 301 CURVE SMOOTH",
"28 117 OFFCURVE",
"84 -10 OFFCURVE",
"284 -10 CURVE SMOOTH"
);
}
);
width = 584;
}
);
leftKerningGroup = C;
note = C;
rightKerningGroup = C;
unicode = 0043;
},
{
glyphname = Cacute;
lastChange = "2015-11-26 12:45:05 +0000";
layers = (
{
layerId = "45AE5D37-AE90-4B36-85E4-274E7BAA8508";
name = "Light Italic";
paths = (
{
closed = 1;
nodes = (
"355 -10 OFFCURVE",
"417 -1 OFFCURVE",
"470 14 CURVE",
"476 40 LINE",
"423 24 OFFCURVE",
"354 15 OFFCURVE",
"296 15 CURVE SMOOTH",
"98 15 OFFCURVE",
"57 124 OFFCURVE",
"94 301 CURVE SMOOTH",
"136 494 OFFCURVE",
"229 629 OFFCURVE",
"423 629 CURVE SMOOTH",
"489 629 OFFCURVE",
"549 618 OFFCURVE",
"595 600 CURVE",
"601 626 LINE",
"554 644 OFFCURVE",
"497 654 OFFCURVE",
"426 654 CURVE SMOOTH",
"214 654 OFFCURVE",
"111 508 OFFCURVE",
"67 301 CURVE SMOOTH",
"28 117 OFFCURVE",
"84 -10 OFFCURVE",
"284 -10 CURVE SMOOTH"
);
},
{
closed = 1;
nodes = (
"439 688 LINE",
"541 837 LINE",
"511 837 LINE",
"416 688 LINE"
);
}
);
width = 584;
}
);
leftKerningGroup = C;
note = Cacute;
rightKerningGroup = C;
unicode = 0106;
},
{
glyphname = Ccaron;
lastChange = "2015-11-26 12:45:03 +0000";
layers = (
{
layerId = "45AE5D37-AE90-4B36-85E4-274E7BAA8508";
name = "Light Italic";
paths = (
{
closed = 1;
nodes = (
"355 -10 OFFCURVE",
"417 -1 OFFCURVE",
"470 14 CURVE",
"476 40 LINE",
"423 24 OFFCURVE",
"354 15 OFFCURVE",
"296 15 CURVE SMOOTH",
"98 15 OFFCURVE",
"57 124 OFFCURVE",
"94 301 CURVE SMOOTH",
"136 494 OFFCURVE",
"229 629 OFFCURVE",
"423 629 CURVE SMOOTH",
"489 629 OFFCURVE",
"549 618 OFFCURVE",
"595 600 CURVE",
"601 626 LINE",
"554 644 OFFCURVE",
"497 654 OFFCURVE",
"426 654 CURVE SMOOTH",
"214 654 OFFCURVE",
"111 508 OFFCURVE",
"67 301 CURVE SMOOTH",
"28 117 OFFCURVE",
"84 -10 OFFCURVE",
"284 -10 CURVE SMOOTH"
);
},
{
closed = 1;
nodes = (
"467 688 LINE",
"588 810 LINE",
"557 810 LINE",
"454 706 LINE",
"395 810 LINE",
"368 810 LINE",
"437 688 LINE"
);
}
);
width = 584;
}
);
leftKerningGroup = C;
note = Ccaron;
rightKerningGroup = C;
unicode = 010C;
},
{
glyphname = Ccedilla;
lastChange = "2015-11-26 12:45:04 +0000";
layers = (
{
layerId = "45AE5D37-AE90-4B36-85E4-274E7BAA8508";
name = "Light Italic";
paths = (
{
closed = 1;
nodes = (
"313 -240 OFFCURVE",
"359 -204 OFFCURVE",
"373 -139 CURVE SMOOTH",
"385 -81 OFFCURVE",
"345 -53 OFFCURVE",
"274 -53 CURVE",
"298 -10 LINE",
"363 -9 OFFCURVE",
"420 0 OFFCURVE",
"470 14 CURVE",
"476 40 LINE",
"423 24 OFFCURVE",
"354 15 OFFCURVE",
"296 15 CURVE SMOOTH",
"98 15 OFFCURVE",
"56 124 OFFCURVE",
"94 301 CURVE SMOOTH",
"135 494 OFFCURVE",
"229 629 OFFCURVE",
"423 629 CURVE SMOOTH",
"489 629 OFFCURVE",
"549 618 OFFCURVE",
"595 600 CURVE",
"601 626 LINE",
"554 644 OFFCURVE",
"497 654 OFFCURVE",
"426 654 CURVE SMOOTH",
"214 654 OFFCURVE",
"111 508 OFFCURVE",
"67 301 CURVE SMOOTH",
"29 121 OFFCURVE",
"81 -4 OFFCURVE",
"270 -10 CURVE",
"233 -76 LINE",
"261 -76 LINE SMOOTH",
"332 -76 OFFCURVE",
"356 -93 OFFCURVE",
"346 -141 CURVE SMOOTH",
"334 -195 OFFCURVE",
"295 -215 OFFCURVE",
"224 -215 CURVE SMOOTH",
"201 -215 OFFCURVE",
"178 -212 OFFCURVE",
"162 -207 CURVE",
"156 -232 LINE",
"170 -236 OFFCURVE",
"196 -240 OFFCURVE",
"217 -240 CURVE SMOOTH"
);
}
);
width = 584;
}
);
leftKerningGroup = C;
note = Ccedilla;
rightKerningGroup = C;
unicode = 00C7;
},
{
glyphname = Ccircumflex;
lastChange = "2015-11-26 12:45:05 +0000";
layers = (
{
layerId = "45AE5D37-AE90-4B36-85E4-274E7BAA8508";
name = "Light Italic";
paths = (
{
closed = 1;
nodes = (
"355 -10 OFFCURVE",
"417 -1 OFFCURVE",
"470 14 CURVE",
"476 40 LINE",
"423 24 OFFCURVE",
"354 15 OFFCURVE",
"296 15 CURVE SMOOTH",
"98 15 OFFCURVE",
"57 124 OFFCURVE",
"94 301 CURVE SMOOTH",
"136 494 OFFCURVE",
"229 629 OFFCURVE",
"423 629 CURVE SMOOTH",
"489 629 OFFCURVE",
"549 618 OFFCURVE",
"595 600 CURVE",
"601 626 LINE",
"554 644 OFFCURVE",
"497 654 OFFCURVE",
"426 654 CURVE SMOOTH",
"214 654 OFFCURVE",
"111 508 OFFCURVE",
"67 301 CURVE SMOOTH",
"28 117 OFFCURVE",
"84 -10 OFFCURVE",
"284 -10 CURVE SMOOTH"
);
},
{
closed = 1;
nodes = (
"351 688 LINE",
"454 792 LINE",
"513 688 LINE",
"540 688 LINE",
"471 810 LINE",
"441 810 LINE",
"321 688 LINE"
);
}
);
width = 584;
}
);
leftKerningGroup = C;
note = Ccircumflex;
rightKerningGroup = C;
unicode = 0108;
},
{
glyphname = Cdotaccent;
lastChange = "2015-11-26 12:45:06 +0000";
layers = (
{
layerId = "45AE5D37-AE90-4B36-85E4-274E7BAA8508";
name = "Light Italic";
paths = (
{
closed = 1;
nodes = (
"355 -10 OFFCURVE",
"417 -1 OFFCURVE",
"470 14 CURVE",
"476 40 LINE",
"423 24 OFFCURVE",
"354 15 OFFCURVE",
"296 15 CURVE SMOOTH",
"98 15 OFFCURVE",
"57 124 OFFCURVE",
"94 301 CURVE SMOOTH",
"136 494 OFFCURVE",
"229 629 OFFCURVE",
"423 629 CURVE SMOOTH",
"489 629 OFFCURVE",
"549 618 OFFCURVE",
"595 600 CURVE",
"601 626 LINE",
"554 644 OFFCURVE",
"497 654 OFFCURVE",
"426 654 CURVE SMOOTH",
"214 654 OFFCURVE",
"111 508 OFFCURVE",
"67 301 CURVE SMOOTH",
"28 117 OFFCURVE",
"84 -10 OFFCURVE",
"284 -10 CURVE SMOOTH"
);
},
{
closed = 1;
nodes = (
"462 718 LINE",
"469 753 LINE",
"434 753 LINE",
"427 718 LINE"
);
}
);
width = 584;
}
);
leftKerningGroup = C;
note = Cdotaccent;
rightKerningGroup = C;
unicode = 010A;
},
{
glyphname = D;
lastChange = "2015-11-26 12:45:06 +0000";
layers = (
{
layerId = "45AE5D37-AE90-4B36-85E4-274E7BAA8508";
name = "Light Italic";
paths = (
{
closed = 1;
nodes = (
"258 0 LINE SMOOTH",
"453 0 OFFCURVE",
"526 98 OFFCURVE",
"573 317 CURVE SMOOTH",
"623 552 OFFCURVE",
"573 644 OFFCURVE",
"391 644 CURVE SMOOTH",
"160 644 LINE",
"24 0 LINE"
);
},
{
closed = 1;
nodes = (
"183 619 LINE",
"386 619 LINE SMOOTH",
"557 619 OFFCURVE",
"595 544 OFFCURVE",
"546 317 CURVE SMOOTH",
"495 79 OFFCURVE",
"411 25 OFFCURVE",
"252 25 CURVE SMOOTH",
"57 25 LINE"
);
}
);
width = 622;
}
);
note = D;
rightKerningGroup = D;
unicode = 0044;
},
{
glyphname = Eth;
lastChange = "2015-11-26 12:45:05 +0000";
layers = (
{
layerId = "45AE5D37-AE90-4B36-85E4-274E7BAA8508";
name = "Light Italic";
paths = (
{
closed = 1;
nodes = (
"309 0 LINE SMOOTH",
"504 0 OFFCURVE",
"577 98 OFFCURVE",
"624 317 CURVE SMOOTH",
"674 552 OFFCURVE",
"624 644 OFFCURVE",
"442 644 CURVE SMOOTH",
"211 644 LINE",
"145 330 LINE",
"54 330 LINE",
"48 305 LINE",
"139 305 LINE",
"75 0 LINE"
);
},
{
closed = 1;
nodes = (
"167 305 LINE",
"365 305 LINE",
"371 330 LINE",
"172 330 LINE",
"234 619 LINE",
"437 619 LINE SMOOTH",
"608 619 OFFCURVE",
"646 544 OFFCURVE",
"597 317 CURVE SMOOTH",
"546 79 OFFCURVE",
"462 25 OFFCURVE",
"303 25 CURVE SMOOTH",
"108 25 LINE"
);
}
);
width = 673;
}
);
note = Eth;
rightKerningGroup = D;
unicode = 00D0;
},
{
glyphname = Dcaron;
lastChange = "2015-11-26 12:45:03 +0000";
layers = (
{
layerId = "45AE5D37-AE90-4B36-85E4-274E7BAA8508";
name = "Light Italic";
paths = (
{
closed = 1;
nodes = (
"258 0 LINE SMOOTH",
"453 0 OFFCURVE",
"526 98 OFFCURVE",
"573 317 CURVE SMOOTH",
"623 552 OFFCURVE",
"573 644 OFFCURVE",
"391 644 CURVE SMOOTH",
"160 644 LINE",
"24 0 LINE"
);
},
{
closed = 1;
nodes = (
"183 619 LINE",
"386 619 LINE SMOOTH",
"557 619 OFFCURVE",
"595 544 OFFCURVE",
"546 317 CURVE SMOOTH",
"495 79 OFFCURVE",
"411 25 OFFCURVE",
"252 25 CURVE SMOOTH",
"57 25 LINE"
);
},
{
closed = 1;
nodes = (
"423 732 LINE",
"544 854 LINE",
"513 854 LINE",
"410 750 LINE",
"351 854 LINE",
"324 854 LINE",
"393 732 LINE"
);
}
);
width = 622;
}
);
note = Dcaron;
rightKerningGroup = D;
unicode = 010E;
},
{
glyphname = Dcroat;
lastChange = "2015-11-26 12:45:04 +0000";
layers = (
{
layerId = "45AE5D37-AE90-4B36-85E4-274E7BAA8508";
name = "Light Italic";
paths = (
{
closed = 1;
nodes = (
"299 0 LINE SMOOTH",
"494 0 OFFCURVE",
"567 98 OFFCURVE",
"614 317 CURVE SMOOTH",
"664 552 OFFCURVE",
"614 644 OFFCURVE",
"432 644 CURVE SMOOTH",
"201 644 LINE",
"135 330 LINE",
"44 330 LINE",
"38 305 LINE",
"129 305 LINE",
"65 0 LINE"
);
},
{
closed = 1;
nodes = (
"157 305 LINE",
"355 305 LINE",
"361 330 LINE",
"162 330 LINE",
"224 619 LINE",
"427 619 LINE SMOOTH",
"598 619 OFFCURVE",
"636 544 OFFCURVE",
"587 317 CURVE SMOOTH",
"536 79 OFFCURVE",
"452 25 OFFCURVE",
"293 25 CURVE SMOOTH",
"98 25 LINE"
);
}
);
width = 663;
}
);
note = Dcroat;
rightKerningGroup = D;
unicode = 0110;
},
{
glyphname = Ddotbelow;
lastChange = "2015-11-26 12:45:03 +0000";
layers = (
{
layerId = "45AE5D37-AE90-4B36-85E4-274E7BAA8508";
name = "Light Italic";
paths = (
{
closed = 1;
nodes = (
"258 0 LINE SMOOTH",
"453 0 OFFCURVE",
"526 98 OFFCURVE",
"573 317 CURVE SMOOTH",
"623 552 OFFCURVE",
"573 644 OFFCURVE",
"391 644 CURVE SMOOTH",
"160 644 LINE",
"24 0 LINE"
);
},
{
closed = 1;
nodes = (
"268 -139 LINE",
"276 -102 LINE",
"239 -102 LINE",
"231 -139 LINE"
);
},
{
closed = 1;
nodes = (
"183 619 LINE",
"386 619 LINE SMOOTH",
"557 619 OFFCURVE",
"595 544 OFFCURVE",
"546 317 CURVE SMOOTH",
"495 79 OFFCURVE",
"411 25 OFFCURVE",
"252 25 CURVE SMOOTH",
"57 25 LINE"
);
}
);
width = 622;
}
);
note = Ddotbelow;
rightKerningGroup = D;
unicode = 1E0C;
},
{
glyphname = Dlinebelow;
lastChange = "2015-11-26 12:45:04 +0000";
layers = (
{
layerId = "45AE5D37-AE90-4B36-85E4-274E7BAA8508";
name = "Light Italic";
paths = (
{
closed = 1;
nodes = (
"258 0 LINE SMOOTH",
"453 0 OFFCURVE",
"526 98 OFFCURVE",
"573 317 CURVE SMOOTH",
"623 552 OFFCURVE",
"573 644 OFFCURVE",
"391 644 CURVE SMOOTH",
"160 644 LINE",
"24 0 LINE"
);
},
{
closed = 1;
nodes = (
"347 -101 LINE",
"352 -76 LINE",
"86 -76 LINE",
"81 -101 LINE"
);
},
{
closed = 1;
nodes = (
"183 619 LINE",
"386 619 LINE SMOOTH",
"557 619 OFFCURVE",
"595 544 OFFCURVE",
"546 317 CURVE SMOOTH",
"495 79 OFFCURVE",
"411 25 OFFCURVE",
"252 25 CURVE SMOOTH",
"57 25 LINE"
);
}
);
width = 622;
}
);
note = Dlinebelow;
rightKerningGroup = D;
unicode = 1E0E;
},
{
glyphname = E;
lastChange = "2015-11-26 12:45:04 +0000";
layers = (
{
layerId = "45AE5D37-AE90-4B36-85E4-274E7BAA8508";
name = "Light Italic";
paths = (
{
closed = 1;
nodes = (
"432 0 LINE",
"437 25 LINE",
"57 25 LINE",
"117 310 LINE",
"462 310 LINE",
"468 335 LINE",
"123 335 LINE",
"183 619 LINE",
"563 619 LINE",
"568 644 LINE",
"160 644 LINE",
"24 0 LINE"
);
}
);
width = 538;
}
);
leftKerningGroup = E;
note = E;
rightKerningGroup = E;
unicode = 0045;
},
{
glyphname = Eacute;
lastChange = "2015-11-26 12:45:03 +0000";
layers = (
{
layerId = "45AE5D37-AE90-4B36-85E4-274E7BAA8508";
name = "Light Italic";
paths = (
{
closed = 1;
nodes = (
"432 0 LINE",
"437 25 LINE",
"57 25 LINE",
"117 310 LINE",
"462 310 LINE",
"468 335 LINE",
"123 335 LINE",
"183 619 LINE",
"563 619 LINE",
"568 644 LINE",
"160 644 LINE",
"24 0 LINE"
);
},
{
closed = 1;
nodes = (
"390 688 LINE",
"492 837 LINE",
"462 837 LINE",
"367 688 LINE"
);
}
);
width = 538;
}
);
leftKerningGroup = E;
note = Eacute;
rightKerningGroup = E;
unicode = 00C9;
},
{
glyphname = Ebreve;
lastChange = "2015-11-26 12:45:07 +0000";
layers = (
{
layerId = "45AE5D37-AE90-4B36-85E4-274E7BAA8508";
name = "Light Italic";
paths = (
{
closed = 1;
nodes = (
"432 0 LINE",
"437 25 LINE",
"57 25 LINE",
"117 310 LINE",
"462 310 LINE",
"468 335 LINE",
"123 335 LINE",
"183 619 LINE",
"563 619 LINE",
"568 644 LINE",
"160 644 LINE",
"24 0 LINE"
);
},
{
closed = 1;
nodes = (
"441 688 OFFCURVE",
"491 730 OFFCURVE",
"503 783 CURVE",
"476 783 LINE",
"467 743 OFFCURVE",
"431 713 OFFCURVE",
"390 713 CURVE SMOOTH",
"350 713 OFFCURVE",
"326 743 OFFCURVE",
"335 783 CURVE",
"312 783 LINE",
"300 730 OFFCURVE",
"334 688 OFFCURVE",
"387 688 CURVE SMOOTH"
);
}
);
width = 548;
}
);
leftKerningGroup = E;
note = Ebreve;
rightKerningGroup = E;
unicode = 0114;
},
{
glyphname = Ecaron;
lastChange = "2015-11-26 12:45:05 +0000";
layers = (
{
layerId = "45AE5D37-AE90-4B36-85E4-274E7BAA8508";
name = "Light Italic";
paths = (
{
closed = 1;
nodes = (
"432 0 LINE",
"437 25 LINE",
"57 25 LINE",
"117 310 LINE",
"462 310 LINE",
"468 335 LINE",
"123 335 LINE",
"183 619 LINE",
"563 619 LINE",
"568 644 LINE",
"160 644 LINE",
"24 0 LINE"
);
},
{
closed = 1;
nodes = (
"403 688 LINE",
"524 810 LINE",
"493 810 LINE",
"390 706 LINE",
"331 810 LINE",
"304 810 LINE",
"373 688 LINE"
);
}
);
width = 548;
}
);
leftKerningGroup = E;
note = Ecaron;
rightKerningGroup = E;
unicode = 011A;
},
{
glyphname = Ecircumflex;
lastChange = "2015-11-26 12:45:06 +0000";
layers = (
{
layerId = "45AE5D37-AE90-4B36-85E4-274E7BAA8508";
name = "Light Italic";
paths = (
{
closed = 1;
nodes = (
"432 0 LINE",
"437 25 LINE",
"57 25 LINE",
"117 310 LINE",
"462 310 LINE",
"468 335 LINE",
"123 335 LINE",
"183 619 LINE",
"563 619 LINE",
"568 644 LINE",
"160 644 LINE",
"24 0 LINE"
);
},
{
closed = 1;
nodes = (
"293 688 LINE",
"396 792 LINE",
"455 688 LINE",
"482 688 LINE",
"413 810 LINE",
"383 810 LINE",
"263 688 LINE"
);
}
);
width = 548;
}
);
leftKerningGroup = E;
note = Ecircumflex;
rightKerningGroup = E;
unicode = 00CA;
},
{
glyphname = Ecircumflexacute;
lastChange = "2015-11-26 12:45:04 +0000";
layers = (
{
layerId = "45AE5D37-AE90-4B36-85E4-274E7BAA8508";
name = "Light Italic";
paths = (
{
closed = 1;
nodes = (
"432 0 LINE",
"437 25 LINE",
"57 25 LINE",
"117 310 LINE",
"462 310 LINE",
"468 335 LINE",
"123 335 LINE",
"183 619 LINE",
"563 619 LINE",
"568 644 LINE",
"160 644 LINE",
"24 0 LINE"
);
},
{
closed = 1;
nodes = (
"294 688 LINE",
"393 774 LINE",
"456 688 LINE",
"483 688 LINE",
"409 790 LINE",
"379 790 LINE",
"263 688 LINE"
);
},
{
closed = 1;
nodes = (
"475 790 LINE",
"562 899 LINE",
"534 899 LINE",
"453 790 LINE"
);
}
);
width = 548;
}
);
leftKerningGroup = E;
note = Ecircumflexacute;
rightKerningGroup = E;
unicode = 1EBE;
},
{
glyphname = Ecircumflexdotbelow;
lastChange = "2015-11-26 12:45:07 +0000";
layers = (
{
layerId = "45AE5D37-AE90-4B36-85E4-274E7BAA8508";
name = "Light Italic";
paths = (
{
closed = 1;
nodes = (
"432 0 LINE",
"437 25 LINE",
"57 25 LINE",
"117 310 LINE",
"462 310 LINE",
"468 335 LINE",
"123 335 LINE",
"183 619 LINE",
"563 619 LINE",
"568 644 LINE",
"160 644 LINE",
"24 0 LINE"
);
},
{
closed = 1;
nodes = (
"211 -139 LINE",
"219 -102 LINE",
"182 -102 LINE",
"174 -139 LINE"
);
},
{
closed = 1;
nodes = (
"288 688 LINE",
"391 792 LINE",
"450 688 LINE",
"477 688 LINE",
"408 810 LINE",
"378 810 LINE",
"258 688 LINE"
);
}
);
width = 548;
}
);
leftKerningGroup = E;
note = Ecircumflexdotbelow;
rightKerningGroup = E;
unicode = 1EC6;
},
{
glyphname = Ecircumflexgrave;
lastChange = "2015-11-26 12:45:06 +0000";
layers = (
{
layerId = "45AE5D37-AE90-4B36-85E4-274E7BAA8508";
name = "Light Italic";
paths = (
{
closed = 1;
nodes = (
"432 0 LINE",
"437 25 LINE",
"57 25 LINE",
"117 310 LINE",
"462 310 LINE",
"468 335 LINE",
"123 335 LINE",
"183 619 LINE",
"563 619 LINE",
"568 644 LINE",
"160 644 LINE",
"24 0 LINE"
);
},
{
closed = 1;
nodes = (
"308 688 LINE",
"407 774 LINE",
"470 688 LINE",
"497 688 LINE",
"423 790 LINE",
"393 790 LINE",
"277 688 LINE"
);
},
{
closed = 1;
nodes = (
"349 790 LINE",
"316 899 LINE",
"287 899 LINE",
"327 790 LINE"
);
}
);
width = 548;
}
);
leftKerningGroup = E;
note = Ecircumflexgrave;
rightKerningGroup = E;
unicode = 1EC0;
},
{
glyphname = Ecircumflexhookabove;
lastChange = "2015-11-26 12:45:05 +0000";
layers = (
{
layerId = "45AE5D37-AE90-4B36-85E4-274E7BAA8508";
name = "Light Italic";
paths = (
{
closed = 1;
nodes = (
"432 0 LINE",
"437 25 LINE",
"57 25 LINE",
"117 310 LINE",
"462 310 LINE",
"468 335 LINE",
"123 335 LINE",
"183 619 LINE",
"563 619 LINE",
"568 644 LINE",
"160 644 LINE",
"24 0 LINE"
);
},
{
closed = 1;
nodes = (
"303 688 LINE",
"402 774 LINE",
"465 688 LINE",
"492 688 LINE",
"418 790 LINE",
"388 790 LINE",
"272 688 LINE"
);
},
{
closed = 1;
nodes = (
"493 769 LINE",
"501 806 LINE",
"559 812 OFFCURVE",
"588 833 OFFCURVE",
"596 875 CURVE SMOOTH",
"606 920 OFFCURVE",
"580 944 OFFCURVE",
"530 944 CURVE SMOOTH",
"507 944 OFFCURVE",
"486 939 OFFCURVE",
"469 932 CURVE",
"463 907 LINE",
"483 915 OFFCURVE",
"502 920 OFFCURVE",
"525 920 CURVE SMOOTH",
"563 920 OFFCURVE",
"578 904 OFFCURVE",
"571 875 CURVE",
"565 844 OFFCURVE",
"549 829 OFFCURVE",
"477 825 CURVE",
"465 769 LINE"
);
}
);
width = 548;
}
);
leftKerningGroup = E;
note = Ecircumflexhookabove;
rightKerningGroup = E;
unicode = 1EC2;
},
{
glyphname = Ecircumflextilde;
lastChange = "2015-11-26 12:45:06 +0000";
layers = (
{
layerId = "45AE5D37-AE90-4B36-85E4-274E7BAA8508";
name = "Light Italic";
paths = (
{
closed = 1;
nodes = (
"432 0 LINE",
"437 25 LINE",
"57 25 LINE",
"117 310 LINE",
"462 310 LINE",
"468 335 LINE",
"123 335 LINE",
"183 619 LINE",
"563 619 LINE",
"568 644 LINE",
"160 644 LINE",
"24 0 LINE"
);
},
{
closed = 1;
nodes = (
"305 688 LINE",
"404 774 LINE",
"467 688 LINE",
"494 688 LINE",
"420 790 LINE",
"390 790 LINE",
"274 688 LINE"
);
},
{
closed = 1;
nodes = (
"313 829 OFFCURVE",
"336 835 OFFCURVE",
"364 835 CURVE SMOOTH",
"401 835 OFFCURVE",
"421 803 OFFCURVE",
"467 803 CURVE SMOOTH",
"496 803 OFFCURVE",
"522 812 OFFCURVE",
"542 829 CURVE",
"548 860 LINE",
"520 834 OFFCURVE",
"497 828 OFFCURVE",
"469 828 CURVE SMOOTH",
"426 828 OFFCURVE",
"415 860 OFFCURVE",
"366 860 CURVE SMOOTH",
"337 860 OFFCURVE",
"310 851 OFFCURVE",
"291 834 CURVE",
"284 803 LINE"
);
}
);
width = 548;
}
);
leftKerningGroup = E;
note = Ecircumflextilde;
rightKerningGroup = E;
unicode = 1EC4;
},
{
glyphname = Edieresis;
lastChange = "2015-11-26 12:45:03 +0000";
layers = (
{
layerId = "45AE5D37-AE90-4B36-85E4-274E7BAA8508";
name = "Light Italic";
paths = (
{
closed = 1;
nodes = (
"432 0 LINE",
"437 25 LINE",
"57 25 LINE",
"117 310 LINE",
"462 310 LINE",
"468 335 LINE",
"123 335 LINE",
"183 619 LINE",
"563 619 LINE",
"568 644 LINE",
"160 644 LINE",
"24 0 LINE"
);
},
{
closed = 1;
nodes = (
"324 718 LINE",
"331 753 LINE",
"296 753 LINE",
"289 718 LINE"
);
},
{
closed = 1;
nodes = (
"481 718 LINE",
"488 753 LINE",
"453 753 LINE",
"446 718 LINE"
);
}
);
width = 548;
}
);
leftKerningGroup = E;
note = Edieresis;
rightKerningGroup = E;
unicode = 00CB;
},
{
glyphname = Edotaccent;
lastChange = "2015-11-26 12:45:03 +0000";
layers = (
{
layerId = "45AE5D37-AE90-4B36-85E4-274E7BAA8508";
name = "Light Italic";
paths = (
{
closed = 1;
nodes = (
"432 0 LINE",
"437 25 LINE",
"57 25 LINE",
"117 310 LINE",
"462 310 LINE",
"468 335 LINE",
"123 335 LINE",
"183 619 LINE",
"563 619 LINE",
"568 644 LINE",
"160 644 LINE",
"24 0 LINE"
);
},
{
closed = 1;
nodes = (
"404 718 LINE",
"411 753 LINE",
"376 753 LINE",
"369 718 LINE"
);
}
);
width = 548;
}
);
leftKerningGroup = E;
note = Edotaccent;
rightKerningGroup = E;
unicode = 0116;
},
{
glyphname = Edotbelow;
lastChange = "2015-11-26 12:45:03 +0000";
layers = (
{
layerId = "45AE5D37-AE90-4B36-85E4-274E7BAA8508";
name = "Light Italic";
paths = (
{
closed = 1;
nodes = (
"432 0 LINE",
"437 25 LINE",
"57 25 LINE",
"117 310 LINE",
"462 310 LINE",
"468 335 LINE",
"123 335 LINE",
"183 619 LINE",
"563 619 LINE",
"568 644 LINE",
"160 644 LINE",
"24 0 LINE"
);
},
{
closed = 1;
nodes = (
"221 -139 LINE",
"229 -102 LINE",
"192 -102 LINE",
"184 -139 LINE"
);
}
);
width = 548;
}
);
leftKerningGroup = E;
note = Edotbelow;
rightKerningGroup = E;
unicode = 1EB8;
},
{
glyphname = Egrave;
lastChange = "2015-11-26 12:45:03 +0000";
layers = (
{
layerId = "45AE5D37-AE90-4B36-85E4-274E7BAA8508";
name = "Light Italic";
paths = (
{
closed = 1;
nodes = (
"432 0 LINE",
"437 25 LINE",
"57 25 LINE",
"117 310 LINE",
"462 310 LINE",
"468 335 LINE",
"123 335 LINE",
"183 619 LINE",
"563 619 LINE",
"568 644 LINE",
"160 644 LINE",
"24 0 LINE"
);
},
{
closed = 1;
nodes = (
"399 688 LINE",
"368 837 LINE",
"338 837 LINE",
"376 688 LINE"
);
}
);
width = 548;
}
);
leftKerningGroup = E;
note = Egrave;
rightKerningGroup = E;
unicode = 00C8;
},
{
glyphname = Ehookabove;
lastChange = "2015-11-26 12:45:06 +0000";
layers = (
{
layerId = "45AE5D37-AE90-4B36-85E4-274E7BAA8508";
name = "Light Italic";
paths = (
{
closed = 1;
nodes = (
"432 0 LINE",
"437 25 LINE",
"57 25 LINE",
"117 310 LINE",
"462 310 LINE",
"468 335 LINE",
"123 335 LINE",
"183 619 LINE",
"563 619 LINE",
"568 644 LINE",
"160 644 LINE",
"24 0 LINE"
);
},
{
closed = 1;
nodes = (
"385 688 LINE",
"397 744 LINE",
"469 750 OFFCURVE",
"496 778 OFFCURVE",
"508 830 CURVE SMOOTH",
"519 885 OFFCURVE",
"485 915 OFFCURVE",
"415 915 CURVE SMOOTH",
"395 915 OFFCURVE",
"360 910 OFFCURVE",
"342 903 CURVE",
"337 878 LINE",
"356 885 OFFCURVE",
"386 890 OFFCURVE",
"408 890 CURVE SMOOTH",
"475 890 OFFCURVE",
"491 869 OFFCURVE",
"483 830 CURVE SMOOTH",
"474 789 OFFCURVE",
"459 766 OFFCURVE",
"373 763 CURVE",
"357 688 LINE"
);
}
);
width = 548;
}
);
leftKerningGroup = E;
note = Ehookabove;
rightKerningGroup = E;
unicode = 1EBA;
},
{
glyphname = Emacron;
lastChange = "2015-11-26 12:45:04 +0000";
layers = (
{
layerId = "45AE5D37-AE90-4B36-85E4-274E7BAA8508";
name = "Light Italic";
paths = (
{
closed = 1;
nodes = (
"432 0 LINE",
"437 25 LINE",
"57 25 LINE",
"117 310 LINE",
"462 310 LINE",
"468 335 LINE",
"123 335 LINE",
"183 619 LINE",
"563 619 LINE",
"568 644 LINE",
"160 644 LINE",
"24 0 LINE"
);
},
{
closed = 1;
nodes = (
"516 718 LINE",
"522 743 LINE",
"256 743 LINE",
"250 718 LINE"
);
}
);
width = 548;
}
);
leftKerningGroup = E;
note = Emacron;
rightKerningGroup = E;
unicode = 0112;
},
{
glyphname = Eogonek;
lastChange = "2015-11-26 12:45:06 +0000";
layers = (
{
layerId = "45AE5D37-AE90-4B36-85E4-274E7BAA8508";
name = "Light Italic";
paths = (
{
closed = 1;
nodes = (
"356 -220 OFFCURVE",
"376 -217 OFFCURVE",
"392 -209 CURVE",
"397 -184 LINE",
"384 -191 OFFCURVE",
"363 -195 OFFCURVE",
"346 -195 CURVE SMOOTH",
"302 -195 OFFCURVE",
"294 -176 OFFCURVE",
"303 -135 CURVE SMOOTH",
"313 -88 OFFCURVE",
"347 -39 OFFCURVE",
"408 0 CURVE",
"432 0 LINE",
"437 25 LINE",
"57 25 LINE",
"117 310 LINE",
"462 310 LINE",
"468 335 LINE",
"123 335 LINE",
"183 619 LINE",
"563 619 LINE",
"568 644 LINE",
"160 644 LINE",
"24 0 LINE",
"380 0 LINE",
"334 -27 OFFCURVE",
"288 -80 OFFCURVE",
"276 -135 CURVE SMOOTH",
"263 -198 OFFCURVE",
"296 -220 OFFCURVE",
"341 -220 CURVE SMOOTH"
);
}
);
width = 548;
}
);
leftKerningGroup = E;
note = Eogonek;
rightKerningGroup = E;
unicode = 0118;
},
{
glyphname = Etilde;
lastChange = "2015-11-26 12:45:07 +0000";
layers = (
{
layerId = "45AE5D37-AE90-4B36-85E4-274E7BAA8508";
name = "Light Italic";
paths = (
{
closed = 1;
nodes = (
"432 0 LINE",
"437 25 LINE",
"57 25 LINE",
"117 310 LINE",
"462 310 LINE",
"468 335 LINE",
"123 335 LINE",
"183 619 LINE",
"563 619 LINE",
"568 644 LINE",
"160 644 LINE",
"24 0 LINE"
);
},
{
closed = 1;
nodes = (
"479 718 OFFCURVE",
"502 728 OFFCURVE",
"519 746 CURVE",
"526 777 LINE",
"502 751 OFFCURVE",
"479 743 OFFCURVE",
"450 743 CURVE SMOOTH",
"407 743 OFFCURVE",
"386 779 OFFCURVE",
"337 779 CURVE SMOOTH",
"309 779 OFFCURVE",
"278 769 OFFCURVE",
"259 751 CURVE",
"253 720 LINE",
"280 747 OFFCURVE",
"307 754 OFFCURVE",
"335 754 CURVE SMOOTH",
"372 754 OFFCURVE",
"402 718 OFFCURVE",
"448 718 CURVE SMOOTH"
);
}
);
width = 548;
}
);
leftKerningGroup = E;
note = Etilde;
rightKerningGroup = E;
unicode = 1EBC;
},
{
glyphname = F;
lastChange = "2015-11-26 12:45:06 +0000";
layers = (
{
layerId = "45AE5D37-AE90-4B36-85E4-274E7BAA8508";
name = "Light Italic";
paths = (
{
closed = 1;
nodes = (
"52 0 LINE",
"117 310 LINE",
"443 310 LINE",
"449 335 LINE",
"123 335 LINE",
"183 619 LINE",
"545 619 LINE",
"550 644 LINE",
"160 644 LINE",
"24 0 LINE"
);
}
);
width = 510;
}
);
note = F;
unicode = 0046;
},
{
glyphname = G;
lastChange = "2015-11-26 12:45:05 +0000";
layers = (
{
layerId = "45AE5D37-AE90-4B36-85E4-274E7BAA8508";
name = "Light Italic";
paths = (
{
closed = 1;
nodes = (
"406 -10 OFFCURVE",
"481 15 OFFCURVE",
"518 37 CURVE",
"581 334 LINE",
"359 334 LINE",
"354 308 LINE",
"548 308 LINE",
"493 48 LINE",
"439 27 OFFCURVE",
"365 15 OFFCURVE",
"297 15 CURVE SMOOTH",
"102 15 OFFCURVE",
"57 127 OFFCURVE",
"94 301 CURVE SMOOTH",
"135 494 OFFCURVE",
"229 629 OFFCURVE",
"424 629 CURVE SMOOTH",
"489 629 OFFCURVE",
"549 619 OFFCURVE",
"596 604 CURVE",
"601 630 LINE",
"555 645 OFFCURVE",
"497 654 OFFCURVE",
"426 654 CURVE SMOOTH",
"215 654 OFFCURVE",
"111 508 OFFCURVE",
"67 301 CURVE SMOOTH",
"28 117 OFFCURVE",
"90 -10 OFFCURVE",
"285 -10 CURVE SMOOTH"
);
}
);
width = 627;
}
);
leftKerningGroup = G;
note = G;
unicode = 0047;
},
{
glyphname = Gbreve;
lastChange = "2015-11-26 12:45:03 +0000";
layers = (
{
layerId = "45AE5D37-AE90-4B36-85E4-274E7BAA8508";
name = "Light Italic";
paths = (
{
closed = 1;
nodes = (
"406 -10 OFFCURVE",
"481 15 OFFCURVE",
"518 37 CURVE",
"581 334 LINE",
"359 334 LINE",
"354 308 LINE",
"548 308 LINE",
"493 48 LINE",
"439 27 OFFCURVE",
"365 15 OFFCURVE",
"297 15 CURVE SMOOTH",
"102 15 OFFCURVE",
"57 127 OFFCURVE",
"94 301 CURVE SMOOTH",
"135 494 OFFCURVE",
"229 629 OFFCURVE",
"424 629 CURVE SMOOTH",
"489 629 OFFCURVE",
"549 619 OFFCURVE",
"596 604 CURVE",
"601 630 LINE",
"555 645 OFFCURVE",
"497 654 OFFCURVE",
"426 654 CURVE SMOOTH",
"215 654 OFFCURVE",
"111 508 OFFCURVE",
"67 301 CURVE SMOOTH",
"28 117 OFFCURVE",
"90 -10 OFFCURVE",
"285 -10 CURVE SMOOTH"
);
},
{
closed = 1;
nodes = (
"495 688 OFFCURVE",
"545 730 OFFCURVE",
"557 783 CURVE",
"530 783 LINE",
"521 743 OFFCURVE",
"485 713 OFFCURVE",
"444 713 CURVE SMOOTH",
"404 713 OFFCURVE",
"380 743 OFFCURVE",
"389 783 CURVE",
"366 783 LINE",
"354 730 OFFCURVE",
"388 688 OFFCURVE",
"441 688 CURVE SMOOTH"
);
}
);
width = 627;
}
);
leftKerningGroup = G;
note = Gbreve;
unicode = 011E;
},
{
glyphname = Gcaron;
lastChange = "2015-11-26 12:45:05 +0000";
layers = (
{
layerId = "45AE5D37-AE90-4B36-85E4-274E7BAA8508";
name = "Light Italic";
paths = (
{
closed = 1;
nodes = (
"406 -10 OFFCURVE",
"481 15 OFFCURVE",
"518 37 CURVE",
"581 334 LINE",
"359 334 LINE",
"354 308 LINE",
"548 308 LINE",
"493 48 LINE",
"439 27 OFFCURVE",
"365 15 OFFCURVE",
"297 15 CURVE SMOOTH",
"102 15 OFFCURVE",
"57 127 OFFCURVE",
"94 301 CURVE SMOOTH",
"135 494 OFFCURVE",
"229 629 OFFCURVE",
"424 629 CURVE SMOOTH",
"489 629 OFFCURVE",
"549 619 OFFCURVE",
"596 604 CURVE",
"601 630 LINE",
"555 645 OFFCURVE",
"497 654 OFFCURVE",
"426 654 CURVE SMOOTH",
"215 654 OFFCURVE",
"111 508 OFFCURVE",
"67 301 CURVE SMOOTH",
"28 117 OFFCURVE",
"90 -10 OFFCURVE",
"285 -10 CURVE SMOOTH"
);
},
{
closed = 1;
nodes = (
"459 688 LINE",
"580 810 LINE",
"549 810 LINE",
"446 706 LINE",
"387 810 LINE",
"360 810 LINE",
"429 688 LINE"
);
}
);
width = 627;
}
);
leftKerningGroup = G;
note = Gcaron;
unicode = 01E6;
},
{
glyphname = Gcircumflex;
lastChange = "2015-11-26 12:45:06 +0000";
layers = (
{
layerId = "45AE5D37-AE90-4B36-85E4-274E7BAA8508";
name = "Light Italic";
paths = (
{
closed = 1;
nodes = (
"406 -10 OFFCURVE",
"481 15 OFFCURVE",
"518 37 CURVE",
"581 334 LINE",
"359 334 LINE",
"354 308 LINE",
"548 308 LINE",
"493 48 LINE",
"439 27 OFFCURVE",
"365 15 OFFCURVE",
"297 15 CURVE SMOOTH",
"102 15 OFFCURVE",
"57 127 OFFCURVE",
"94 301 CURVE SMOOTH",
"135 494 OFFCURVE",
"229 629 OFFCURVE",
"424 629 CURVE SMOOTH",
"489 629 OFFCURVE",
"549 619 OFFCURVE",
"596 604 CURVE",
"601 630 LINE",
"555 645 OFFCURVE",
"497 654 OFFCURVE",
"426 654 CURVE SMOOTH",
"215 654 OFFCURVE",
"111 508 OFFCURVE",
"67 301 CURVE SMOOTH",
"28 117 OFFCURVE",
"90 -10 OFFCURVE",
"285 -10 CURVE SMOOTH"
);
},
{
closed = 1;
nodes = (
"363 688 LINE",
"466 792 LINE",
"525 688 LINE",
"552 688 LINE",
"483 810 LINE",
"453 810 LINE",
"333 688 LINE"
);
}
);
width = 627;
}
);
leftKerningGroup = G;
note = Gcircumflex;
unicode = 011C;
},
{
glyphname = Gcommaaccent;
lastChange = "2015-11-26 12:45:03 +0000";
layers = (
{
layerId = "45AE5D37-AE90-4B36-85E4-274E7BAA8508";
name = "Light Italic";
paths = (
{
closed = 1;
nodes = (
"406 -10 OFFCURVE",
"481 15 OFFCURVE",
"518 37 CURVE",
"581 334 LINE",
"359 334 LINE",
"354 308 LINE",
"548 308 LINE",
"493 48 LINE",
"439 27 OFFCURVE",
"365 15 OFFCURVE",
"297 15 CURVE SMOOTH",
"102 15 OFFCURVE",
"57 127 OFFCURVE",
"94 301 CURVE SMOOTH",
"135 494 OFFCURVE",
"229 629 OFFCURVE",
"424 629 CURVE SMOOTH",
"489 629 OFFCURVE",
"549 619 OFFCURVE",
"596 604 CURVE",
"601 630 LINE",
"555 645 OFFCURVE",
"497 654 OFFCURVE",
"426 654 CURVE SMOOTH",
"215 654 OFFCURVE",
"111 508 OFFCURVE",
"67 301 CURVE SMOOTH",
"28 117 OFFCURVE",
"90 -10 OFFCURVE",
"285 -10 CURVE SMOOTH"
);
},
{
closed = 1;
nodes = (
"243 -190 LINE",
"311 -37 LINE",
"278 -37 LINE",
"221 -190 LINE"
);
}
);
width = 627;
}
);
leftKerningGroup = G;
note = Gcommaaccent;
unicode = 0122;
},
{
glyphname = Gdotaccent;
lastChange = "2015-11-26 12:45:05 +0000";
layers = (
{
layerId = "45AE5D37-AE90-4B36-85E4-274E7BAA8508";
name = "Light Italic";
paths = (
{
closed = 1;
nodes = (
"406 -10 OFFCURVE",
"481 15 OFFCURVE",
"518 37 CURVE",
"581 334 LINE",
"359 334 LINE",
"354 308 LINE",
"548 308 LINE",
"493 48 LINE",
"439 27 OFFCURVE",
"365 15 OFFCURVE",
"297 15 CURVE SMOOTH",
"102 15 OFFCURVE",
"57 127 OFFCURVE",
"94 301 CURVE SMOOTH",
"135 494 OFFCURVE",
"229 629 OFFCURVE",
"424 629 CURVE SMOOTH",
"489 629 OFFCURVE",
"549 619 OFFCURVE",
"596 604 CURVE",
"601 630 LINE",
"555 645 OFFCURVE",
"497 654 OFFCURVE",
"426 654 CURVE SMOOTH",
"215 654 OFFCURVE",
"111 508 OFFCURVE",
"67 301 CURVE SMOOTH",
"28 117 OFFCURVE",
"90 -10 OFFCURVE",
"285 -10 CURVE SMOOTH"
);
},
{
closed = 1;
nodes = (
"464 718 LINE",
"471 753 LINE",
"436 753 LINE",
"429 718 LINE"
);
}
);
width = 627;
}
);
leftKerningGroup = G;
note = Gdotaccent;
unicode = 0120;
},
{
glyphname = Gmacron;
lastChange = "2015-11-26 12:45:06 +0000";
layers = (
{
layerId = "45AE5D37-AE90-4B36-85E4-274E7BAA8508";
name = "Light Italic";
paths = (
{
closed = 1;
nodes = (
"406 -10 OFFCURVE",
"481 15 OFFCURVE",
"518 37 CURVE",
"581 334 LINE",
"359 334 LINE",
"354 308 LINE",
"548 308 LINE",
"493 48 LINE",
"439 27 OFFCURVE",
"365 15 OFFCURVE",
"297 15 CURVE SMOOTH",
"102 15 OFFCURVE",
"57 127 OFFCURVE",
"94 301 CURVE SMOOTH",
"135 494 OFFCURVE",
"229 629 OFFCURVE",
"424 629 CURVE SMOOTH",
"489 629 OFFCURVE",
"549 619 OFFCURVE",
"596 604 CURVE",
"601 630 LINE",
"555 645 OFFCURVE",
"497 654 OFFCURVE",
"426 654 CURVE SMOOTH",
"215 654 OFFCURVE",
"111 508 OFFCURVE",
"67 301 CURVE SMOOTH",
"28 117 OFFCURVE",
"90 -10 OFFCURVE",
"285 -10 CURVE SMOOTH"
);
},
{
closed = 1;
nodes = (
"581 718 LINE",
"587 743 LINE",
"321 743 LINE",
"315 718 LINE"
);
}
);
width = 627;
}
);
leftKerningGroup = G;
note = Gmacron;
unicode = 1E20;
},
{
glyphname = H;
lastChange = "2015-11-26 12:45:05 +0000";
layers = (
{
layerId = "45AE5D37-AE90-4B36-85E4-274E7BAA8508";
name = "Light Italic";
paths = (
{
closed = 1;
nodes = (
"52 0 LINE",
"117 310 LINE",
"518 310 LINE",
"453 0 LINE",
"481 0 LINE",
"617 644 LINE",
"589 644 LINE",
"524 335 LINE",
"123 335 LINE",
"188 644 LINE",
"160 644 LINE",
"24 0 LINE"
);
}
);
width = 617;
}
);
note = H;
unicode = 0048;
},
{
glyphname = Hbar;
lastChange = "2015-11-26 12:45:07 +0000";
layers = (
{
layerId = "45AE5D37-AE90-4B36-85E4-274E7BAA8508";
name = "Light Italic";
paths = (
{
closed = 1;
nodes = (
"80 0 LINE",
"145 310 LINE",
"546 310 LINE",
"481 0 LINE",
"509 0 LINE",
"645 644 LINE",
"617 644 LINE",
"552 335 LINE",
"151 335 LINE",
"216 644 LINE",
"188 644 LINE",
"52 0 LINE"
);
},
{
closed = 1;
nodes = (
"689 478 LINE",
"694 503 LINE",
"75 503 LINE",
"70 478 LINE"
);
}
);
width = 699;
}
);
note = Hbar;
unicode = 0126;
},
{
glyphname = Hbrevebelow;
lastChange = "2015-11-26 12:45:07 +0000";
layers = (
{
layerId = "45AE5D37-AE90-4B36-85E4-274E7BAA8508";
name = "Light Italic";
paths = (
{
closed = 1;
nodes = (
"52 0 LINE",
"117 310 LINE",
"518 310 LINE",
"453 0 LINE",
"481 0 LINE",
"617 644 LINE",
"589 644 LINE",
"524 335 LINE",
"123 335 LINE",
"188 644 LINE",
"160 644 LINE",
"24 0 LINE"
);
},
{
closed = 1;
nodes = (
"292 -174 OFFCURVE",
"366 -142 OFFCURVE",
"388 -40 CURVE",
"363 -40 LINE",
"346 -119 OFFCURVE",
"286 -149 OFFCURVE",
"221 -149 CURVE SMOOTH",
"148 -149 OFFCURVE",
"107 -119 OFFCURVE",
"124 -40 CURVE",
"99 -40 LINE",
"77 -142 OFFCURVE",
"145 -174 OFFCURVE",
"216 -174 CURVE SMOOTH"
);
}
);
width = 617;
}
);
note = Hbrevebelow;
unicode = 1E2A;
},
{
glyphname = Hcircumflex;
lastChange = "2015-11-26 12:45:06 +0000";
layers = (
{
layerId = "45AE5D37-AE90-4B36-85E4-274E7BAA8508";
name = "Light Italic";
paths = (
{
closed = 1;
nodes = (
"52 0 LINE",
"117 310 LINE",
"518 310 LINE",
"453 0 LINE",
"481 0 LINE",
"617 644 LINE",
"589 644 LINE",
"524 335 LINE",
"123 335 LINE",
"188 644 LINE",
"160 644 LINE",
"24 0 LINE"
);
},
{
closed = 1;
nodes = (
"319 688 LINE",
"422 792 LINE",
"481 688 LINE",
"508 688 LINE",
"439 810 LINE",
"409 810 LINE",
"289 688 LINE"
);
}
);
width = 617;
}
);
note = Hcircumflex;
unicode = 0124;
},
{
glyphname = Hdotbelow;
lastChange = "2015-11-26 12:45:05 +0000";
layers = (
{
layerId = "45AE5D37-AE90-4B36-85E4-274E7BAA8508";
name = "Light Italic";
paths = (
{
closed = 1;
nodes = (
"52 0 LINE",
"117 310 LINE",
"518 310 LINE",
"453 0 LINE",
"481 0 LINE",
"617 644 LINE",
"589 644 LINE",
"524 335 LINE",
"123 335 LINE",
"188 644 LINE",
"160 644 LINE",
"24 0 LINE"
);
},
{
closed = 1;
nodes = (
"242 -139 LINE",
"250 -102 LINE",
"213 -102 LINE",
"205 -139 LINE"
);
}
);
width = 617;
}
);
note = Hdotbelow;
unicode = 1E24;
},
{
glyphname = I;
lastChange = "2015-11-26 12:45:03 +0000";
layers = (
{
layerId = "45AE5D37-AE90-4B36-85E4-274E7BAA8508";
name = "Light Italic";
paths = (
{
closed = 1;
nodes = (
"52 0 LINE",
"188 644 LINE",
"160 644 LINE",
"24 0 LINE"
);
}
);
width = 188;
}
);
note = I;
unicode = 0049;
},
{
glyphname = IJ;
lastChange = "2015-11-26 12:45:06 +0000";
layers = (
{
layerId = "45AE5D37-AE90-4B36-85E4-274E7BAA8508";
name = "Light Italic";
paths = (
{
closed = 1;
nodes = (
"397 -10 OFFCURVE",
"455 45 OFFCURVE",
"478 153 CURVE SMOOTH",
"582 644 LINE",
"554 644 LINE",
"450 153 LINE SMOOTH",
"430 58 OFFCURVE",
"387 16 OFFCURVE",
"275 16 CURVE SMOOTH",
"229 16 OFFCURVE",
"186 25 OFFCURVE",
"158 40 CURVE",
"152 14 LINE",
"179 1 OFFCURVE",
"220 -10 OFFCURVE",
"273 -10 CURVE SMOOTH"
);
},
{
closed = 1;
nodes = (
"52 0 LINE",
"188 644 LINE",
"160 644 LINE",
"24 0 LINE"
);
}
);
width = 577;
}
);
note = IJ;
unicode = 0132;
},
{
glyphname = Iacute;
lastChange = "2015-11-26 12:45:07 +0000";
layers = (
{
layerId = "45AE5D37-AE90-4B36-85E4-274E7BAA8508";
name = "Light Italic";
paths = (
{
closed = 1;
nodes = (
"52 0 LINE",
"188 644 LINE",
"160 644 LINE",
"24 0 LINE"
);
},
{
closed = 1;
nodes = (
"200 688 LINE",
"302 837 LINE",
"272 837 LINE",
"177 688 LINE"
);
}
);
width = 188;
}
);
note = Iacute;
unicode = 00CD;
},
{
glyphname = Ibreve;
lastChange = "2015-11-26 12:45:03 +0000";
layers = (
{
layerId = "45AE5D37-AE90-4B36-85E4-274E7BAA8508";
name = "Light Italic";
paths = (
{
closed = 1;
nodes = (
"52 0 LINE",
"188 644 LINE",
"160 644 LINE",
"24 0 LINE"
);
},
{
closed = 1;
nodes = (
"238 688 OFFCURVE",
"288 730 OFFCURVE",
"300 783 CURVE",
"273 783 LINE",
"264 743 OFFCURVE",
"228 713 OFFCURVE",
"187 713 CURVE SMOOTH",
"147 713 OFFCURVE",
"123 743 OFFCURVE",
"132 783 CURVE",
"109 783 LINE",
"97 730 OFFCURVE",
"131 688 OFFCURVE",
"184 688 CURVE SMOOTH"
);
}
);
width = 188;
}
);
note = Ibreve;
unicode = 012C;
},
{
glyphname = Icaron;
lastChange = "2015-11-26 12:45:06 +0000";
layers = (
{
layerId = "45AE5D37-AE90-4B36-85E4-274E7BAA8508";
name = "Light Italic";
paths = (
{
closed = 1;
nodes = (
"52 0 LINE",
"188 644 LINE",
"160 644 LINE",
"24 0 LINE"
);
},
{
closed = 1;
nodes = (
"199 688 LINE",
"320 810 LINE",
"289 810 LINE",
"186 706 LINE",
"127 810 LINE",
"100 810 LINE",
"169 688 LINE"
);
}
);
width = 188;
}
);
note = Icaron;
unicode = 01CF;
},
{
glyphname = Icircumflex;
lastChange = "2015-11-26 12:45:07 +0000";
layers = (
{
layerId = "45AE5D37-AE90-4B36-85E4-274E7BAA8508";
name = "Light Italic";
paths = (
{
closed = 1;
nodes = (
"52 0 LINE",
"188 644 LINE",
"160 644 LINE",
"24 0 LINE"
);
},
{
closed = 1;
nodes = (
"105 688 LINE",
"208 792 LINE",
"267 688 LINE",
"294 688 LINE",
"225 810 LINE",
"195 810 LINE",
"75 688 LINE"
);
}
);
width = 188;
}
);
note = Icircumflex;
unicode = 00CE;
},
{
glyphname = Idieresis;
lastChange = "2015-11-26 12:45:05 +0000";
layers = (
{
layerId = "45AE5D37-AE90-4B36-85E4-274E7BAA8508";
name = "Light Italic";
paths = (
{
closed = 1;
nodes = (
"52 0 LINE",
"188 644 LINE",
"160 644 LINE",
"24 0 LINE"
);
},
{
closed = 1;
nodes = (
"129 718 LINE",
"136 753 LINE",
"101 753 LINE",
"94 718 LINE"
);
},
{
closed = 1;
nodes = (
"286 718 LINE",
"293 753 LINE",
"258 753 LINE",
"251 718 LINE"
);
}
);
width = 188;
}
);
note = Idieresis;
unicode = 00CF;
},
{
glyphname = Idotaccent;
lastChange = "2015-11-26 12:45:03 +0000";
layers = (
{
layerId = "45AE5D37-AE90-4B36-85E4-274E7BAA8508";
name = "Light Italic";
paths = (
{
closed = 1;
nodes = (
"52 0 LINE",
"188 644 LINE",
"160 644 LINE",
"24 0 LINE"
);
},
{
closed = 1;
nodes = (
"208 718 LINE",
"215 753 LINE",
"180 753 LINE",
"173 718 LINE"
);
}
);
width = 188;
}
);
note = Idotaccent;
unicode = 0130;
},
{
glyphname = Idotbelow;
lastChange = "2015-11-26 12:45:07 +0000";
layers = (
{
layerId = "45AE5D37-AE90-4B36-85E4-274E7BAA8508";
name = "Light Italic";
paths = (
{
closed = 1;
nodes = (
"52 0 LINE",
"188 644 LINE",
"160 644 LINE",
"24 0 LINE"
);
},
{
closed = 1;
nodes = (
"28 -139 LINE",
"36 -102 LINE",
"-1 -102 LINE",
"-9 -139 LINE"
);
}
);
width = 188;
}
);
note = Idotbelow;
unicode = 1ECA;
},
{
glyphname = Igrave;
lastChange = "2015-11-26 12:45:06 +0000";
layers = (
{
layerId = "45AE5D37-AE90-4B36-85E4-274E7BAA8508";
name = "Light Italic";
paths = (
{
closed = 1;
nodes = (
"52 0 LINE",
"188 644 LINE",
"160 644 LINE",
"24 0 LINE"
);
},
{
closed = 1;
nodes = (
"194 688 LINE",
"163 837 LINE",
"133 837 LINE",
"171 688 LINE"
);
}
);
width = 188;
}
);
note = Igrave;
unicode = 00CC;
},
{
glyphname = Ihookabove;
lastChange = "2015-11-26 12:45:07 +0000";
layers = (
{
layerId = "45AE5D37-AE90-4B36-85E4-274E7BAA8508";
name = "Light Italic";
paths = (
{
closed = 1;
nodes = (
"52 0 LINE",
"188 644 LINE",
"160 644 LINE",
"24 0 LINE"
);
},
{
closed = 1;
nodes = (
"198 688 LINE",
"210 744 LINE",
"282 750 OFFCURVE",
"309 778 OFFCURVE",
"321 830 CURVE SMOOTH",
"332 885 OFFCURVE",
"298 915 OFFCURVE",
"228 915 CURVE SMOOTH",
"208 915 OFFCURVE",
"173 910 OFFCURVE",
"155 903 CURVE",
"150 878 LINE",
"169 885 OFFCURVE",
"199 890 OFFCURVE",
"221 890 CURVE SMOOTH",
"288 890 OFFCURVE",
"304 869 OFFCURVE",
"296 830 CURVE SMOOTH",
"287 789 OFFCURVE",
"272 766 OFFCURVE",
"186 763 CURVE",
"170 688 LINE"
);
}
);
width = 188;
}
);
note = Ihookabove;
unicode = 1EC8;
},
{
glyphname = Imacron;
lastChange = "2015-11-26 12:45:03 +0000";
layers = (
{
layerId = "45AE5D37-AE90-4B36-85E4-274E7BAA8508";
name = "Light Italic";
paths = (
{
closed = 1;
nodes = (
"52 0 LINE",
"188 644 LINE",
"160 644 LINE",
"24 0 LINE"
);
},
{
closed = 1;
nodes = (
"324 718 LINE",
"330 743 LINE",
"63 743 LINE",
"57 718 LINE"
);
}
);
width = 188;
}
);
note = Imacron;
unicode = 012A;
},
{
glyphname = Iogonek;
lastChange = "2015-11-26 12:45:03 +0000";
layers = (
{
layerId = "45AE5D37-AE90-4B36-85E4-274E7BAA8508";
name = "Light Italic";
paths = (
{
closed = 1;
nodes = (
"0 -220 OFFCURVE",
"20 -217 OFFCURVE",
"36 -209 CURVE",
"41 -184 LINE",
"28 -191 OFFCURVE",
"7 -195 OFFCURVE",
"-10 -195 CURVE SMOOTH",
"-54 -195 OFFCURVE",
"-62 -176 OFFCURVE",
"-53 -135 CURVE SMOOTH",
"-43 -88 OFFCURVE",
"-9 -39 OFFCURVE",
"52 0 CURVE",
"188 644 LINE",
"160 644 LINE",
"24 0 LINE",
"-22 -27 OFFCURVE",
"-69 -80 OFFCURVE",
"-80 -135 CURVE SMOOTH",
"-94 -198 OFFCURVE",
"-60 -220 OFFCURVE",
"-15 -220 CURVE SMOOTH"
);
}
);
width = 188;
}
);
note = Iogonek;
unicode = 012E;
},
{
glyphname = Itilde;
lastChange = "2015-11-26 12:45:03 +0000";
layers = (
{
layerId = "45AE5D37-AE90-4B36-85E4-274E7BAA8508";
name = "Light Italic";
paths = (
{
closed = 1;
nodes = (
"52 0 LINE",
"188 644 LINE",
"160 644 LINE",
"24 0 LINE"
);
},
{
closed = 1;
nodes = (
"281 688 OFFCURVE",
"304 698 OFFCURVE",
"321 716 CURVE",
"328 747 LINE",
"304 721 OFFCURVE",
"281 713 OFFCURVE",
"252 713 CURVE SMOOTH",
"209 713 OFFCURVE",
"188 749 OFFCURVE",
"139 749 CURVE SMOOTH",
"111 749 OFFCURVE",
"80 739 OFFCURVE",
"61 721 CURVE",
"55 690 LINE",
"82 717 OFFCURVE",
"109 724 OFFCURVE",
"137 724 CURVE SMOOTH",
"174 724 OFFCURVE",
"204 688 OFFCURVE",
"250 688 CURVE SMOOTH"
);
}
);
width = 188;
}
);
note = Itilde;
unicode = 0128;
},
{
glyphname = J;
lastChange = "2015-11-26 12:45:04 +0000";
layers = (
{
layerId = "45AE5D37-AE90-4B36-85E4-274E7BAA8508";
name = "Light Italic";
paths = (
{
closed = 1;
nodes = (
"231 -10 OFFCURVE",
"289 45 OFFCURVE",
"312 153 CURVE SMOOTH",
"416 644 LINE",
"388 644 LINE",
"284 153 LINE SMOOTH",
"264 58 OFFCURVE",
"221 16 OFFCURVE",
"109 16 CURVE SMOOTH",
"63 16 OFFCURVE",
"20 25 OFFCURVE",
"-8 40 CURVE",
"-14 14 LINE",
"13 1 OFFCURVE",
"54 -10 OFFCURVE",
"107 -10 CURVE SMOOTH"
);
}
);
width = 411;
}
);
note = J;
unicode = 004A;
},
{
glyphname = Jcircumflex;
lastChange = "2015-11-26 12:45:04 +0000";
layers = (
{
layerId = "45AE5D37-AE90-4B36-85E4-274E7BAA8508";
name = "Light Italic";
paths = (
{
closed = 1;
nodes = (
"231 -10 OFFCURVE",
"289 45 OFFCURVE",
"312 153 CURVE SMOOTH",
"416 644 LINE",
"388 644 LINE",
"284 153 LINE SMOOTH",
"264 58 OFFCURVE",
"221 16 OFFCURVE",
"109 16 CURVE SMOOTH",
"63 16 OFFCURVE",
"20 25 OFFCURVE",
"-8 40 CURVE",
"-14 14 LINE",
"13 1 OFFCURVE",
"54 -10 OFFCURVE",
"107 -10 CURVE SMOOTH"
);
},
{
closed = 1;
nodes = (
"332 688 LINE",
"435 792 LINE",
"494 688 LINE",
"521 688 LINE",
"452 810 LINE",
"422 810 LINE",
"302 688 LINE"
);
}
);
width = 411;
}
);
note = Jcircumflex;
unicode = 0134;
},
{
glyphname = K;
lastChange = "2015-11-26 12:45:03 +0000";
layers = (
{
layerId = "45AE5D37-AE90-4B36-85E4-274E7BAA8508";
name = "Light Italic";
paths = (
{
closed = 1;
nodes = (
"52 0 LINE",
"103 241 LINE",
"255 370 LINE",
"415 0 LINE",
"447 0 LINE",
"279 389 LINE",
"580 644 LINE",
"542 644 LINE",
"111 279 LINE",
"188 644 LINE",
"160 644 LINE",
"24 0 LINE"
);
}
);
width = 563;
}
);
leftKerningGroup = K;
note = K;
rightKerningGroup = K;
unicode = 004B;
},
{
glyphname = Kcommaaccent;
lastChange = "2015-11-26 12:45:03 +0000";
layers = (
{
layerId = "45AE5D37-AE90-4B36-85E4-274E7BAA8508";
name = "Light Italic";
paths = (
{
closed = 1;
nodes = (
"52 0 LINE",
"103 241 LINE",
"255 370 LINE",
"415 0 LINE",
"447 0 LINE",
"279 389 LINE",
"580 644 LINE",
"542 644 LINE",
"111 279 LINE",
"188 644 LINE",
"160 644 LINE",
"24 0 LINE"
);
},
{
closed = 1;
nodes = (
"160 -190 LINE",
"228 -37 LINE",
"195 -37 LINE",
"138 -190 LINE"
);
}
);
width = 563;
}
);
leftKerningGroup = K;
note = Kcommaaccent;
rightKerningGroup = K;
unicode = 0136;
},
{
glyphname = L;
lastChange = "2015-11-26 12:45:04 +0000";
layers = (
{
layerId = "45AE5D37-AE90-4B36-85E4-274E7BAA8508";
name = "Light Italic";
paths = (
{
closed = 1;
nodes = (
"422 0 LINE",
"427 25 LINE",
"57 25 LINE",
"188 644 LINE",
"160 644 LINE",
"24 0 LINE"
);
}
);
width = 518;
}
);
note = L;
rightKerningGroup = L;
unicode = 004C;
},
{
glyphname = Lacute;
lastChange = "2015-11-26 12:45:03 +0000";
layers = (
{
layerId = "45AE5D37-AE90-4B36-85E4-274E7BAA8508";
name = "Light Italic";
paths = (
{
closed = 1;
nodes = (
"422 0 LINE",
"427 25 LINE",
"57 25 LINE",
"188 644 LINE",
"160 644 LINE",
"24 0 LINE"
);
},
{
closed = 1;
nodes = (
"199 688 LINE",
"301 837 LINE",
"271 837 LINE",
"176 688 LINE"
);
}
);
width = 518;
}
);
note = Lacute;
rightKerningGroup = L;
unicode = 0139;
},
{
glyphname = Lcaron;
lastChange = "2015-11-26 12:45:05 +0000";
layers = (
{
layerId = "45AE5D37-AE90-4B36-85E4-274E7BAA8508";
name = "Light Italic";
paths = (
{
closed = 1;
nodes = (
"422 0 LINE",
"427 25 LINE",
"57 25 LINE",
"188 644 LINE",
"160 644 LINE",
"24 0 LINE"
);
},
{
closed = 1;
nodes = (
"369 573 LINE",
"437 726 LINE",
"404 726 LINE",
"347 573 LINE"
);
}
);
width = 518;
}
);
note = Lcaron;
rightKerningGroup = L;
unicode = 013D;
},
{
glyphname = Lcommaaccent;
lastChange = "2015-11-26 12:45:03 +0000";
layers = (
{
layerId = "45AE5D37-AE90-4B36-85E4-274E7BAA8508";
name = "Light Italic";
paths = (
{
closed = 1;
nodes = (
"422 0 LINE",
"427 25 LINE",
"57 25 LINE",
"188 644 LINE",
"160 644 LINE",
"24 0 LINE"
);
},
{
closed = 1;
nodes = (
"155 -190 LINE",
"223 -37 LINE",
"190 -37 LINE",
"133 -190 LINE"
);
}
);
width = 518;
}
);
note = Lcommaaccent;
rightKerningGroup = L;
unicode = 013B;
},
{
glyphname = Ldot;
lastChange = "2015-11-26 12:45:03 +0000";
layers = (
{
layerId = "45AE5D37-AE90-4B36-85E4-274E7BAA8508";
name = "Light Italic";
paths = (
{
closed = 1;
nodes = (
"422 0 LINE",
"427 25 LINE",
"57 25 LINE",
"188 644 LINE",
"160 644 LINE",
"24 0 LINE"
);
},
{
closed = 1;
nodes = (
"336 253 LINE",
"343 288 LINE",
"308 288 LINE",
"301 253 LINE"
);
}
);
width = 518;
}
);
note = Ldot;
rightKerningGroup = L;
unicode = 013F;
},
{
glyphname = Ldotbelow;
lastChange = "2015-11-26 12:45:04 +0000";
layers = (
{
layerId = "45AE5D37-AE90-4B36-85E4-274E7BAA8508";
name = "Light Italic";
paths = (
{
closed = 1;
nodes = (
"422 0 LINE",
"427 25 LINE",
"57 25 LINE",
"188 644 LINE",
"160 644 LINE",
"24 0 LINE"
);
},
{
closed = 1;
nodes = (
"208 -139 LINE",
"216 -102 LINE",
"179 -102 LINE",
"171 -139 LINE"
);
}
);
width = 518;
}
);
note = Ldotbelow;
rightKerningGroup = L;
unicode = 1E36;
},
{
glyphname = Ldotbelowmacron;
lastChange = "2015-11-26 12:45:03 +0000";
layers = (
{
layerId = "45AE5D37-AE90-4B36-85E4-274E7BAA8508";
name = "Light Italic";
paths = (
{
closed = 1;
nodes = (
"450 0 LINE",
"455 25 LINE",
"85 25 LINE",
"216 644 LINE",
"188 644 LINE",
"52 0 LINE"
);
},
{
closed = 1;
nodes = (
"239 -139 LINE",
"247 -102 LINE",
"210 -102 LINE",
"202 -139 LINE"
);
},
{
closed = 1;
nodes = (
"392 718 LINE",
"398 743 LINE",
"132 743 LINE",
"126 718 LINE"
);
}
);
width = 546;
}
);
note = Ldotbelowmacron;
rightKerningGroup = L;
unicode = 1E38;
},
{
glyphname = Llinebelow;
lastChange = "2015-11-26 12:45:05 +0000";
layers = (
{
layerId = "45AE5D37-AE90-4B36-85E4-274E7BAA8508";
name = "Light Italic";
paths = (
{
closed = 1;
nodes = (
"422 0 LINE",
"427 25 LINE",
"57 25 LINE",
"188 644 LINE",
"160 644 LINE",
"24 0 LINE"
);
},
{
closed = 1;
nodes = (
"334 -101 LINE",
"339 -76 LINE",
"73 -76 LINE",
"68 -101 LINE"
);
}
);
width = 518;
}
);
note = Llinebelow;
rightKerningGroup = L;
unicode = 1E3A;
},
{
glyphname = Lslash;
lastChange = "2015-11-26 12:45:07 +0000";
layers = (
{
layerId = "45AE5D37-AE90-4B36-85E4-274E7BAA8508";
name = "Light Italic";
paths = (
{
closed = 1;
nodes = (
"469 0 LINE",
"474 25 LINE",
"104 25 LINE",
"235 644 LINE",
"207 644 LINE",
"71 0 LINE"
);
},
{
closed = 1;
nodes = (
"354 394 LINE",
"360 419 LINE",
"35 289 LINE",
"30 264 LINE"
);
}
);
width = 565;
}
);
note = Lslash;
rightKerningGroup = L;
unicode = 0141;
},
{
glyphname = M;
lastChange = "2015-11-26 12:45:04 +0000";
layers = (
{
layerId = "45AE5D37-AE90-4B36-85E4-274E7BAA8508";
name = "Light Italic";
paths = (
{
closed = 1;
nodes = (
"52 0 LINE",
"182 613 LINE",
"321 113 LINE",
"353 113 LINE",
"703 613 LINE",
"573 0 LINE",
"601 0 LINE",
"737 644 LINE",
"695 644 LINE",
"341 137 LINE",
"200 644 LINE",
"160 644 LINE",
"24 0 LINE"
);
}
);
width = 737;
}
);
note = M;
unicode = 004D;
},
{
glyphname = Mdotbelow;
lastChange = "2015-11-26 12:45:05 +0000";
layers = (
{
layerId = "45AE5D37-AE90-4B36-85E4-274E7BAA8508";
name = "Light Italic";
paths = (
{
closed = 1;
nodes = (
"52 0 LINE",
"182 613 LINE",
"321 113 LINE",
"353 113 LINE",
"703 613 LINE",
"573 0 LINE",
"601 0 LINE",
"737 644 LINE",
"695 644 LINE",
"341 137 LINE",
"200 644 LINE",
"160 644 LINE",
"24 0 LINE"
);
},
{
closed = 1;
nodes = (
"327 -139 LINE",
"335 -102 LINE",
"298 -102 LINE",
"290 -139 LINE"
);
}
);
width = 737;
}
);
note = Mdotbelow;
unicode = 1E42;
},
{
glyphname = N;
lastChange = "2015-11-26 12:45:07 +0000";
layers = (
{
layerId = "45AE5D37-AE90-4B36-85E4-274E7BAA8508";
name = "Light Italic";
paths = (
{
closed = 1;
nodes = (
"52 0 LINE",
"180 606 LINE",
"482 0 LINE",
"513 0 LINE",
"649 644 LINE",
"621 644 LINE",
"493 38 LINE",
"191 644 LINE",
"160 644 LINE",
"24 0 LINE"
);
}
);
width = 649;
}
);
note = N;
unicode = 004E;
},
{
glyphname = Nacute;
lastChange = "2015-11-26 12:45:04 +0000";
layers = (
{
layerId = "45AE5D37-AE90-4B36-85E4-274E7BAA8508";
name = "Light Italic";
paths = (
{
closed = 1;
nodes = (
"52 0 LINE",
"180 606 LINE",
"482 0 LINE",
"513 0 LINE",
"649 644 LINE",
"621 644 LINE",
"493 38 LINE",
"191 644 LINE",
"160 644 LINE",
"24 0 LINE"
);
},
{
closed = 1;
nodes = (
"437 688 LINE",
"539 837 LINE",
"509 837 LINE",
"414 688 LINE"
);
}
);
width = 649;
}
);
note = Nacute;
unicode = 0143;
},
{
glyphname = Ncaron;
lastChange = "2015-11-26 12:45:05 +0000";
layers = (
{
layerId = "45AE5D37-AE90-4B36-85E4-274E7BAA8508";
name = "Light Italic";
paths = (
{
closed = 1;
nodes = (
"52 0 LINE",
"180 606 LINE",
"482 0 LINE",
"513 0 LINE",
"649 644 LINE",
"621 644 LINE",
"493 38 LINE",
"191 644 LINE",
"160 644 LINE",
"24 0 LINE"
);
},
{
closed = 1;
nodes = (
"460 688 LINE",
"581 810 LINE",
"550 810 LINE",
"447 706 LINE",
"388 810 LINE",
"361 810 LINE",
"430 688 LINE"
);
}
);
width = 649;
}
);
note = Ncaron;
unicode = 0147;
},
{
glyphname = Ncommaaccent;
lastChange = "2015-11-26 12:45:03 +0000";
layers = (
{
layerId = "45AE5D37-AE90-4B36-85E4-274E7BAA8508";
name = "Light Italic";
paths = (
{
closed = 1;
nodes = (
"52 0 LINE",
"180 606 LINE",
"482 0 LINE",
"513 0 LINE",
"649 644 LINE",
"621 644 LINE",
"493 38 LINE",
"191 644 LINE",
"160 644 LINE",
"24 0 LINE"
);
},
{
closed = 1;
nodes = (
"206 -190 LINE",
"274 -37 LINE",
"241 -37 LINE",
"184 -190 LINE"
);
}
);
width = 649;
}
);
note = Ncommaaccent;
unicode = 0145;
},
{
glyphname = Ndotaccent;
lastChange = "2015-11-26 12:45:04 +0000";
layers = (
{
layerId = "45AE5D37-AE90-4B36-85E4-274E7BAA8508";
name = "Light Italic";
paths = (
{
closed = 1;
nodes = (
"52 0 LINE",
"180 606 LINE",
"482 0 LINE",
"513 0 LINE",
"649 644 LINE",
"621 644 LINE",
"493 38 LINE",
"191 644 LINE",
"160 644 LINE",
"24 0 LINE"
);
},
{
closed = 1;
nodes = (
"456 718 LINE",
"463 753 LINE",
"428 753 LINE",
"421 718 LINE"
);
}
);
width = 649;
}
);
note = Ndotaccent;
unicode = 1E44;
},
{
glyphname = Ndotbelow;
lastChange = "2015-11-26 12:45:07 +0000";
layers = (
{
layerId = "45AE5D37-AE90-4B36-85E4-274E7BAA8508";
name = "Light Italic";
paths = (
{
closed = 1;
nodes = (
"52 0 LINE",
"180 606 LINE",
"482 0 LINE",
"513 0 LINE",
"649 644 LINE",
"621 644 LINE",
"493 38 LINE",
"191 644 LINE",
"160 644 LINE",
"24 0 LINE"
);
},
{
closed = 1;
nodes = (
"255 -139 LINE",
"263 -102 LINE",
"226 -102 LINE",
"218 -139 LINE"
);
}
);
width = 649;
}
);
note = Ndotbelow;
unicode = 1E46;
},
{
glyphname = Eng;
lastChange = "2015-11-26 12:45:03 +0000";
layers = (
{
layerId = "45AE5D37-AE90-4B36-85E4-274E7BAA8508";
name = "Light Italic";
paths = (
{
closed = 1;
nodes = (
"421 -234 OFFCURVE",
"473 -188 OFFCURVE",
"489 -110 CURVE SMOOTH",
"649 644 LINE",
"621 644 LINE",
"493 38 LINE",
"191 644 LINE",
"160 644 LINE",
"24 0 LINE",
"52 0 LINE",
"180 606 LINE",
"484 -4 LINE",
"461 -110 LINE SMOOTH",
"448 -174 OFFCURVE",
"414 -209 OFFCURVE",
"334 -209 CURVE SMOOTH",
"318 -209 OFFCURVE",
"297 -206 OFFCURVE",
"275 -198 CURVE",
"270 -224 LINE",
"288 -230 OFFCURVE",
"314 -234 OFFCURVE",
"338 -234 CURVE SMOOTH"
);
}
);
width = 649;
}
);
note = Eng;
unicode = 014A;
},
{
glyphname = Nlinebelow;
lastChange = "2015-11-26 12:45:03 +0000";
layers = (
{
layerId = "45AE5D37-AE90-4B36-85E4-274E7BAA8508";
name = "Light Italic";
paths = (
{
closed = 1;
nodes = (
"52 0 LINE",
"180 606 LINE",
"482 0 LINE",
"513 0 LINE",
"649 644 LINE",
"621 644 LINE",
"493 38 LINE",
"191 644 LINE",
"160 644 LINE",
"24 0 LINE"
);
},
{
closed = 1;
nodes = (
"388 -101 LINE",
"393 -76 LINE",
"127 -76 LINE",
"122 -101 LINE"
);
}
);
width = 649;
}
);
note = Nlinebelow;
unicode = 1E48;
},
{
glyphname = Ntilde;
lastChange = "2015-11-26 12:45:03 +0000";
layers = (
{
layerId = "45AE5D37-AE90-4B36-85E4-274E7BAA8508";
name = "Light Italic";
paths = (
{
closed = 1;
nodes = (
"52 0 LINE",
"180 606 LINE",
"482 0 LINE",
"513 0 LINE",
"649 644 LINE",
"621 644 LINE",
"493 38 LINE",
"191 644 LINE",
"160 644 LINE",
"24 0 LINE"
);
},
{
closed = 1;
nodes = (
"527 718 OFFCURVE",
"550 728 OFFCURVE",
"567 746 CURVE",
"574 777 LINE",
"550 751 OFFCURVE",
"527 743 OFFCURVE",
"498 743 CURVE SMOOTH",
"455 743 OFFCURVE",
"434 779 OFFCURVE",
"385 779 CURVE SMOOTH",
"357 779 OFFCURVE",
"326 769 OFFCURVE",
"307 751 CURVE",
"301 720 LINE",
"328 747 OFFCURVE",
"355 754 OFFCURVE",
"383 754 CURVE SMOOTH",
"420 754 OFFCURVE",
"450 718 OFFCURVE",
"496 718 CURVE SMOOTH"
);
}
);
width = 649;
}
);
note = Ntilde;
unicode = 00D1;
},
{
glyphname = O;
lastChange = "2015-11-26 12:45:06 +0000";
layers = (
{
layerId = "45AE5D37-AE90-4B36-85E4-274E7BAA8508";
name = "Light Italic";
paths = (
{
closed = 1;
nodes = (
"484 -10 OFFCURVE",
"590 117 OFFCURVE",
"633 316 CURVE SMOOTH",
"682 546 OFFCURVE",
"615 654 OFFCURVE",
"424 654 CURVE SMOOTH",
"228 654 OFFCURVE",
"120 546 OFFCURVE",
"71 316 CURVE SMOOTH",
"28 117 OFFCURVE",
"91 -10 OFFCURVE",
"282 -10 CURVE SMOOTH"
);
},
{
closed = 1;
nodes = (
"108 15 OFFCURVE",
"56 120 OFFCURVE",
"98 316 CURVE SMOOTH",
"147 546 OFFCURVE",
"259 629 OFFCURVE",
"418 629 CURVE SMOOTH",
"594 629 OFFCURVE",
"655 546 OFFCURVE",
"606 316 CURVE SMOOTH",
"564 120 OFFCURVE",
"458 15 OFFCURVE",
"288 15 CURVE SMOOTH"
);
}
);
width = 682;
}
);
leftKerningGroup = O;
note = O;
rightKerningGroup = O;
unicode = 004F;
},
{
glyphname = Oacute;
lastChange = "2015-11-26 12:45:07 +0000";
layers = (
{
layerId = "45AE5D37-AE90-4B36-85E4-274E7BAA8508";
name = "Light Italic";
paths = (
{
closed = 1;
nodes = (
"484 -10 OFFCURVE",
"590 117 OFFCURVE",
"633 316 CURVE SMOOTH",
"682 546 OFFCURVE",
"615 654 OFFCURVE",
"424 654 CURVE SMOOTH",
"228 654 OFFCURVE",
"120 546 OFFCURVE",
"71 316 CURVE SMOOTH",
"28 117 OFFCURVE",
"91 -10 OFFCURVE",
"282 -10 CURVE SMOOTH"
);
},
{
closed = 1;
nodes = (
"108 15 OFFCURVE",
"56 120 OFFCURVE",
"98 316 CURVE SMOOTH",
"147 546 OFFCURVE",
"259 629 OFFCURVE",
"418 629 CURVE SMOOTH",
"594 629 OFFCURVE",
"655 546 OFFCURVE",
"606 316 CURVE SMOOTH",
"564 120 OFFCURVE",
"458 15 OFFCURVE",
"288 15 CURVE SMOOTH"
);
},
{
closed = 1;
nodes = (
"447 688 LINE",
"549 837 LINE",
"519 837 LINE",
"424 688 LINE"
);
}
);
width = 682;
}
);
leftKerningGroup = O;
note = Oacute;
rightKerningGroup = O;
unicode = 00D3;
},
{
glyphname = Obreve;
lastChange = "2015-11-26 12:45:03 +0000";
layers = (
{
layerId = "45AE5D37-AE90-4B36-85E4-274E7BAA8508";
name = "Light Italic";
paths = (
{
closed = 1;
nodes = (
"484 -10 OFFCURVE",
"590 117 OFFCURVE",
"633 316 CURVE SMOOTH",
"682 546 OFFCURVE",
"615 654 OFFCURVE",
"424 654 CURVE SMOOTH",
"228 654 OFFCURVE",
"120 546 OFFCURVE",
"71 316 CURVE SMOOTH",
"28 117 OFFCURVE",
"91 -10 OFFCURVE",
"282 -10 CURVE SMOOTH"
);
},
{
closed = 1;
nodes = (
"108 15 OFFCURVE",
"56 120 OFFCURVE",
"98 316 CURVE SMOOTH",
"147 546 OFFCURVE",
"259 629 OFFCURVE",
"418 629 CURVE SMOOTH",
"594 629 OFFCURVE",
"655 546 OFFCURVE",
"606 316 CURVE SMOOTH",
"564 120 OFFCURVE",
"458 15 OFFCURVE",
"288 15 CURVE SMOOTH"
);
},
{
closed = 1;
nodes = (
"485 688 OFFCURVE",
"535 730 OFFCURVE",
"547 783 CURVE",
"520 783 LINE",
"511 743 OFFCURVE",
"475 713 OFFCURVE",
"434 713 CURVE SMOOTH",
"394 713 OFFCURVE",
"370 743 OFFCURVE",
"379 783 CURVE",
"356 783 LINE",
"344 730 OFFCURVE",
"378 688 OFFCURVE",
"431 688 CURVE SMOOTH"
);
}
);
width = 682;
}
);
leftKerningGroup = O;
note = Obreve;
rightKerningGroup = O;
unicode = 014E;
},
{
glyphname = Ocaron;
lastChange = "2015-11-26 12:45:07 +0000";
layers = (
{
layerId = "45AE5D37-AE90-4B36-85E4-274E7BAA8508";
name = "Light Italic";
paths = (
{
closed = 1;
nodes = (
"484 -10 OFFCURVE",
"590 117 OFFCURVE",
"633 316 CURVE SMOOTH",
"682 546 OFFCURVE",
"615 654 OFFCURVE",
"424 654 CURVE SMOOTH",
"228 654 OFFCURVE",
"120 546 OFFCURVE",
"71 316 CURVE SMOOTH",
"28 117 OFFCURVE",
"91 -10 OFFCURVE",
"282 -10 CURVE SMOOTH"
);
},
{
closed = 1;
nodes = (
"108 15 OFFCURVE",
"56 120 OFFCURVE",
"98 316 CURVE SMOOTH",
"147 546 OFFCURVE",
"259 629 OFFCURVE",
"418 629 CURVE SMOOTH",
"594 629 OFFCURVE",
"655 546 OFFCURVE",
"606 316 CURVE SMOOTH",
"564 120 OFFCURVE",
"458 15 OFFCURVE",
"288 15 CURVE SMOOTH"
);
},
{
closed = 1;
nodes = (
"446 688 LINE",
"567 810 LINE",
"536 810 LINE",
"433 706 LINE",
"374 810 LINE",
"347 810 LINE",
"416 688 LINE"
);
}
);
width = 682;
}
);
leftKerningGroup = O;
note = Ocaron;
rightKerningGroup = O;
unicode = 01D1;
},
{
glyphname = Ocircumflex;
lastChange = "2015-11-26 12:45:03 +0000";
layers = (
{
layerId = "45AE5D37-AE90-4B36-85E4-274E7BAA8508";
name = "Light Italic";
paths = (
{
closed = 1;
nodes = (
"484 -10 OFFCURVE",
"590 117 OFFCURVE",
"633 316 CURVE SMOOTH",
"682 546 OFFCURVE",
"615 654 OFFCURVE",
"424 654 CURVE SMOOTH",
"228 654 OFFCURVE",
"120 546 OFFCURVE",
"71 316 CURVE SMOOTH",
"28 117 OFFCURVE",
"91 -10 OFFCURVE",
"282 -10 CURVE SMOOTH"
);
},
{
closed = 1;
nodes = (
"108 15 OFFCURVE",
"56 120 OFFCURVE",
"98 316 CURVE SMOOTH",
"147 546 OFFCURVE",
"259 629 OFFCURVE",
"418 629 CURVE SMOOTH",
"594 629 OFFCURVE",
"655 546 OFFCURVE",
"606 316 CURVE SMOOTH",
"564 120 OFFCURVE",
"458 15 OFFCURVE",
"288 15 CURVE SMOOTH"
);
},
{
closed = 1;
nodes = (
"352 688 LINE",
"455 792 LINE",
"514 688 LINE",
"541 688 LINE",
"472 810 LINE",
"442 810 LINE",
"322 688 LINE"
);
}
);
width = 682;
}
);
leftKerningGroup = O;
note = Ocircumflex;
rightKerningGroup = O;
unicode = 00D4;
},
{
glyphname = Ocircumflexacute;
lastChange = "2015-11-26 12:45:04 +0000";
layers = (
{
layerId = "45AE5D37-AE90-4B36-85E4-274E7BAA8508";
name = "Light Italic";
paths = (
{
closed = 1;
nodes = (
"484 -10 OFFCURVE",
"590 117 OFFCURVE",
"633 316 CURVE SMOOTH",
"682 546 OFFCURVE",
"615 654 OFFCURVE",
"424 654 CURVE SMOOTH",
"228 654 OFFCURVE",
"120 546 OFFCURVE",
"71 316 CURVE SMOOTH",
"28 117 OFFCURVE",
"91 -10 OFFCURVE",
"282 -10 CURVE SMOOTH"
);
},
{
closed = 1;
nodes = (
"108 15 OFFCURVE",
"56 120 OFFCURVE",
"98 316 CURVE SMOOTH",
"147 546 OFFCURVE",
"259 629 OFFCURVE",
"418 629 CURVE SMOOTH",
"594 629 OFFCURVE",
"655 546 OFFCURVE",
"606 316 CURVE SMOOTH",
"564 120 OFFCURVE",
"458 15 OFFCURVE",
"288 15 CURVE SMOOTH"
);
},
{
closed = 1;
nodes = (
"359 688 LINE",
"458 774 LINE",
"521 688 LINE",
"548 688 LINE",
"474 790 LINE",
"444 790 LINE",
"328 688 LINE"
);
},
{
closed = 1;
nodes = (
"540 790 LINE",
"627 899 LINE",
"599 899 LINE",
"518 790 LINE"
);
}
);
width = 682;
}
);
leftKerningGroup = O;
note = Ocircumflexacute;
rightKerningGroup = O;
unicode = 1ED0;
},
{
glyphname = Ocircumflexdotbelow;
lastChange = "2015-11-26 12:45:07 +0000";
layers = (
{
layerId = "45AE5D37-AE90-4B36-85E4-274E7BAA8508";
name = "Light Italic";
paths = (
{
closed = 1;
nodes = (
"484 -10 OFFCURVE",
"590 117 OFFCURVE",
"633 316 CURVE SMOOTH",
"682 546 OFFCURVE",
"615 654 OFFCURVE",
"424 654 CURVE SMOOTH",
"228 654 OFFCURVE",
"120 546 OFFCURVE",
"71 316 CURVE SMOOTH",
"28 117 OFFCURVE",
"91 -10 OFFCURVE",
"282 -10 CURVE SMOOTH"
);
},
{
closed = 1;
nodes = (
"275 -139 LINE",
"283 -102 LINE",
"246 -102 LINE",
"238 -139 LINE"
);
},
{
closed = 1;
nodes = (
"108 15 OFFCURVE",
"56 120 OFFCURVE",
"98 316 CURVE SMOOTH",
"147 546 OFFCURVE",
"259 629 OFFCURVE",
"418 629 CURVE SMOOTH",
"594 629 OFFCURVE",
"655 546 OFFCURVE",
"606 316 CURVE SMOOTH",
"564 120 OFFCURVE",
"458 15 OFFCURVE",
"288 15 CURVE SMOOTH"
);
},
{
closed = 1;
nodes = (
"356 708 LINE",
"459 812 LINE",
"518 708 LINE",
"545 708 LINE",
"476 830 LINE",
"446 830 LINE",
"326 708 LINE"
);
}
);
width = 682;
}
);
leftKerningGroup = O;
note = Ocircumflexdotbelow;
rightKerningGroup = O;
unicode = 1ED8;
},
{
glyphname = Ocircumflexgrave;
lastChange = "2015-11-26 12:45:07 +0000";
layers = (
{
layerId = "45AE5D37-AE90-4B36-85E4-274E7BAA8508";
name = "Light Italic";
paths = (
{
closed = 1;
nodes = (
"484 -10 OFFCURVE",
"590 117 OFFCURVE",
"633 316 CURVE SMOOTH",
"682 546 OFFCURVE",
"615 654 OFFCURVE",
"424 654 CURVE SMOOTH",
"228 654 OFFCURVE",
"120 546 OFFCURVE",
"71 316 CURVE SMOOTH",
"28 117 OFFCURVE",
"91 -10 OFFCURVE",
"282 -10 CURVE SMOOTH"
);
},
{
closed = 1;
nodes = (
"108 15 OFFCURVE",
"56 120 OFFCURVE",
"98 316 CURVE SMOOTH",
"147 546 OFFCURVE",
"259 629 OFFCURVE",
"418 629 CURVE SMOOTH",
"594 629 OFFCURVE",
"655 546 OFFCURVE",
"606 316 CURVE SMOOTH",
"564 120 OFFCURVE",
"458 15 OFFCURVE",
"288 15 CURVE SMOOTH"
);
},
{
closed = 1;
nodes = (
"356 688 LINE",
"455 774 LINE",
"518 688 LINE",
"545 688 LINE",
"471 790 LINE",
"441 790 LINE",
"325 688 LINE"
);
},
{
closed = 1;
nodes = (
"397 790 LINE",
"364 899 LINE",
"335 899 LINE",
"375 790 LINE"
);
}
);
width = 682;
}
);
leftKerningGroup = O;
note = Ocircumflexgrave;
rightKerningGroup = O;
unicode = 1ED2;
},
{
glyphname = Ocircumflexhookabove;
lastChange = "2015-11-26 12:45:06 +0000";
layers = (
{
layerId = "45AE5D37-AE90-4B36-85E4-274E7BAA8508";
name = "Light Italic";
paths = (
{
closed = 1;
nodes = (
"484 -10 OFFCURVE",
"590 117 OFFCURVE",
"633 316 CURVE SMOOTH",
"682 546 OFFCURVE",
"615 654 OFFCURVE",
"424 654 CURVE SMOOTH",
"228 654 OFFCURVE",
"120 546 OFFCURVE",
"71 316 CURVE SMOOTH",
"28 117 OFFCURVE",
"91 -10 OFFCURVE",
"282 -10 CURVE SMOOTH"
);
},
{
closed = 1;
nodes = (
"108 15 OFFCURVE",
"56 120 OFFCURVE",
"98 316 CURVE SMOOTH",
"147 546 OFFCURVE",
"259 629 OFFCURVE",
"418 629 CURVE SMOOTH",
"594 629 OFFCURVE",
"655 546 OFFCURVE",
"606 316 CURVE SMOOTH",
"564 120 OFFCURVE",
"458 15 OFFCURVE",
"288 15 CURVE SMOOTH"
);
},
{
closed = 1;
nodes = (
"355 688 LINE",
"454 774 LINE",
"517 688 LINE",
"544 688 LINE",
"470 790 LINE",
"440 790 LINE",
"324 688 LINE"
);
},
{
closed = 1;
nodes = (
"545 769 LINE",
"553 806 LINE",
"611 812 OFFCURVE",
"640 833 OFFCURVE",
"648 875 CURVE SMOOTH",
"658 920 OFFCURVE",
"632 944 OFFCURVE",
"582 944 CURVE SMOOTH",
"559 944 OFFCURVE",
"538 939 OFFCURVE",
"521 932 CURVE",
"515 907 LINE",
"535 915 OFFCURVE",
"554 920 OFFCURVE",
"577 920 CURVE SMOOTH",
"615 920 OFFCURVE",
"630 904 OFFCURVE",
"623 875 CURVE",
"617 844 OFFCURVE",
"601 829 OFFCURVE",
"529 825 CURVE",
"517 769 LINE"
);
}
);
width = 682;
}
);
leftKerningGroup = O;
note = Ocircumflexhookabove;
rightKerningGroup = O;
unicode = 1ED4;
},
{
glyphname = Ocircumflextilde;
lastChange = "2015-11-26 12:45:05 +0000";
layers = (
{
layerId = "45AE5D37-AE90-4B36-85E4-274E7BAA8508";
name = "Light Italic";
paths = (
{
closed = 1;
nodes = (
"484 -10 OFFCURVE",
"590 117 OFFCURVE",
"633 316 CURVE SMOOTH",
"682 546 OFFCURVE",
"615 654 OFFCURVE",
"424 654 CURVE SMOOTH",
"228 654 OFFCURVE",
"120 546 OFFCURVE",
"71 316 CURVE SMOOTH",
"28 117 OFFCURVE",
"91 -10 OFFCURVE",
"282 -10 CURVE SMOOTH"
);
},
{
closed = 1;
nodes = (
"108 15 OFFCURVE",
"56 120 OFFCURVE",
"98 316 CURVE SMOOTH",
"147 546 OFFCURVE",
"259 629 OFFCURVE",
"418 629 CURVE SMOOTH",
"594 629 OFFCURVE",
"655 546 OFFCURVE",
"606 316 CURVE SMOOTH",
"564 120 OFFCURVE",
"458 15 OFFCURVE",
"288 15 CURVE SMOOTH"
);
},
{
closed = 1;
nodes = (
"502 688 OFFCURVE",
"568 720 OFFCURVE",
"587 812 CURVE",
"561 812 LINE",
"547 743 OFFCURVE",
"496 713 OFFCURVE",
"435 713 CURVE SMOOTH",
"368 713 OFFCURVE",
"337 743 OFFCURVE",
"351 812 CURVE",
"327 812 LINE",
"308 720 OFFCURVE",
"365 688 OFFCURVE",
"431 688 CURVE SMOOTH"
);
},
{
closed = 1;
nodes = (
"365 874 OFFCURVE",
"389 880 OFFCURVE",
"417 880 CURVE SMOOTH",
"454 880 OFFCURVE",
"474 848 OFFCURVE",
"520 848 CURVE SMOOTH",
"549 848 OFFCURVE",
"576 857 OFFCURVE",
"595 874 CURVE",
"602 905 LINE",
"573 879 OFFCURVE",
"550 873 OFFCURVE",
"522 873 CURVE SMOOTH",
"479 873 OFFCURVE",
"468 905 OFFCURVE",
"419 905 CURVE SMOOTH",
"390 905 OFFCURVE",
"363 896 OFFCURVE",
"343 879 CURVE",
"337 848 LINE"
);
}
);
width = 682;
}
);
leftKerningGroup = O;
note = Ocircumflextilde;
rightKerningGroup = O;
unicode = 1ED6;
},
{
glyphname = Odieresis;
lastChange = "2015-11-26 12:45:03 +0000";
layers = (
{
layerId = "45AE5D37-AE90-4B36-85E4-274E7BAA8508";
name = "Light Italic";
paths = (
{
closed = 1;
nodes = (
"484 -10 OFFCURVE",
"590 117 OFFCURVE",
"633 316 CURVE SMOOTH",
"682 546 OFFCURVE",
"615 654 OFFCURVE",
"424 654 CURVE SMOOTH",
"228 654 OFFCURVE",
"120 546 OFFCURVE",
"71 316 CURVE SMOOTH",
"28 117 OFFCURVE",
"91 -10 OFFCURVE",
"282 -10 CURVE SMOOTH"
);
},
{
closed = 1;
nodes = (
"108 15 OFFCURVE",
"56 120 OFFCURVE",
"98 316 CURVE SMOOTH",
"147 546 OFFCURVE",
"259 629 OFFCURVE",
"418 629 CURVE SMOOTH",
"594 629 OFFCURVE",
"655 546 OFFCURVE",
"606 316 CURVE SMOOTH",
"564 120 OFFCURVE",
"458 15 OFFCURVE",
"288 15 CURVE SMOOTH"
);
},
{
closed = 1;
nodes = (
"376 718 LINE",
"383 753 LINE",
"348 753 LINE",
"341 718 LINE"
);
},
{
closed = 1;
nodes = (
"533 718 LINE",
"540 753 LINE",
"505 753 LINE",
"498 718 LINE"
);
}
);
width = 682;
}
);
leftKerningGroup = O;
note = Odieresis;
rightKerningGroup = O;
unicode = 00D6;
},
{
glyphname = Odotbelow;
lastChange = "2015-11-26 12:45:03 +0000";
layers = (
{
layerId = "45AE5D37-AE90-4B36-85E4-274E7BAA8508";
name = "Light Italic";
paths = (
{
closed = 1;
nodes = (
"484 -10 OFFCURVE",
"590 117 OFFCURVE",
"633 316 CURVE SMOOTH",
"682 546 OFFCURVE",
"615 654 OFFCURVE",
"424 654 CURVE SMOOTH",
"228 654 OFFCURVE",
"120 546 OFFCURVE",
"71 316 CURVE SMOOTH",
"28 117 OFFCURVE",
"91 -10 OFFCURVE",
"282 -10 CURVE SMOOTH"
);
},
{
closed = 1;
nodes = (
"275 -139 LINE",
"283 -102 LINE",
"246 -102 LINE",
"238 -139 LINE"
);
},
{
closed = 1;
nodes = (
"108 15 OFFCURVE",
"56 120 OFFCURVE",
"98 316 CURVE SMOOTH",
"147 546 OFFCURVE",
"259 629 OFFCURVE",
"418 629 CURVE SMOOTH",
"594 629 OFFCURVE",
"655 546 OFFCURVE",
"606 316 CURVE SMOOTH",
"564 120 OFFCURVE",
"458 15 OFFCURVE",
"288 15 CURVE SMOOTH"
);
}
);
width = 682;
}
);
leftKerningGroup = O;
note = Odotbelow;
rightKerningGroup = O;
unicode = 1ECC;
},
{
glyphname = Ograve;
lastChange = "2015-11-26 12:45:06 +0000";
layers = (
{
layerId = "45AE5D37-AE90-4B36-85E4-274E7BAA8508";
name = "Light Italic";
paths = (
{
closed = 1;
nodes = (
"484 -10 OFFCURVE",
"590 117 OFFCURVE",
"633 316 CURVE SMOOTH",
"682 546 OFFCURVE",
"615 654 OFFCURVE",
"424 654 CURVE SMOOTH",
"228 654 OFFCURVE",
"120 546 OFFCURVE",
"71 316 CURVE SMOOTH",
"28 117 OFFCURVE",
"91 -10 OFFCURVE",
"282 -10 CURVE SMOOTH"
);
},
{
closed = 1;
nodes = (
"108 15 OFFCURVE",
"56 120 OFFCURVE",
"98 316 CURVE SMOOTH",
"147 546 OFFCURVE",
"259 629 OFFCURVE",
"418 629 CURVE SMOOTH",
"594 629 OFFCURVE",
"655 546 OFFCURVE",
"606 316 CURVE SMOOTH",
"564 120 OFFCURVE",
"458 15 OFFCURVE",
"288 15 CURVE SMOOTH"
);
},
{
closed = 1;
nodes = (
"448 688 LINE",
"417 837 LINE",
"387 837 LINE",
"425 688 LINE"
);
}
);
width = 682;
}
);
leftKerningGroup = O;
note = Ograve;
rightKerningGroup = O;
unicode = 00D2;
},
{
glyphname = Ohookabove;
lastChange = "2015-11-26 12:45:06 +0000";
layers = (
{
layerId = "45AE5D37-AE90-4B36-85E4-274E7BAA8508";
name = "Light Italic";
paths = (
{
closed = 1;
nodes = (
"484 -10 OFFCURVE",
"590 117 OFFCURVE",
"633 316 CURVE SMOOTH",
"682 546 OFFCURVE",
"615 654 OFFCURVE",
"424 654 CURVE SMOOTH",
"228 654 OFFCURVE",
"120 546 OFFCURVE",
"71 316 CURVE SMOOTH",
"28 117 OFFCURVE",
"91 -10 OFFCURVE",
"282 -10 CURVE SMOOTH"
);
},
{
closed = 1;
nodes = (
"108 15 OFFCURVE",
"56 120 OFFCURVE",
"98 316 CURVE SMOOTH",
"147 546 OFFCURVE",
"259 629 OFFCURVE",
"418 629 CURVE SMOOTH",
"594 629 OFFCURVE",
"655 546 OFFCURVE",
"606 316 CURVE SMOOTH",
"564 120 OFFCURVE",
"458 15 OFFCURVE",
"288 15 CURVE SMOOTH"
);
},
{
closed = 1;
nodes = (
"449 688 LINE",
"461 744 LINE",
"533 750 OFFCURVE",
"560 778 OFFCURVE",
"572 830 CURVE SMOOTH",
"583 885 OFFCURVE",
"549 915 OFFCURVE",
"479 915 CURVE SMOOTH",
"459 915 OFFCURVE",
"424 910 OFFCURVE",
"406 903 CURVE",
"401 878 LINE",
"420 885 OFFCURVE",
"450 890 OFFCURVE",
"472 890 CURVE SMOOTH",
"539 890 OFFCURVE",
"555 869 OFFCURVE",
"547 830 CURVE SMOOTH",
"538 789 OFFCURVE",
"523 766 OFFCURVE",
"437 763 CURVE",
"421 688 LINE"
);
}
);
width = 682;
}
);
leftKerningGroup = O;
note = Ohookabove;
rightKerningGroup = O;
unicode = 1ECE;
},
{
glyphname = Ohorn;
lastChange = "2015-11-26 12:45:05 +0000";
layers = (
{
layerId = "45AE5D37-AE90-4B36-85E4-274E7BAA8508";
name = "Light Italic";
paths = (
{
closed = 1;
nodes = (
"485 -10 OFFCURVE",
"590 117 OFFCURVE",
"633 316 CURVE SMOOTH",
"652 408 OFFCURVE",
"654 480 OFFCURVE",
"636 534 CURVE",
"719 539 OFFCURVE",
"774 573 OFFCURVE",
"799 688 CURVE",
"774 688 LINE",
"753 590 OFFCURVE",
"713 559 OFFCURVE",
"626 559 CURVE",
"594 621 OFFCURVE",
"529 654 OFFCURVE",
"424 654 CURVE SMOOTH",
"222 654 OFFCURVE",
"120 546 OFFCURVE",
"71 316 CURVE SMOOTH",
"28 117 OFFCURVE",
"86 -10 OFFCURVE",
"282 -10 CURVE SMOOTH"
);
},
{
closed = 1;
nodes = (
"110 15 OFFCURVE",
"56 120 OFFCURVE",
"98 316 CURVE SMOOTH",
"147 546 OFFCURVE",
"247 629 OFFCURVE",
"418 629 CURVE SMOOTH",
"595 629 OFFCURVE",
"655 546 OFFCURVE",
"606 316 CURVE SMOOTH",
"564 120 OFFCURVE",
"461 15 OFFCURVE",
"288 15 CURVE SMOOTH"
);
}
);
width = 739;
}
);
leftKerningGroup = O;
note = Ohorn;
rightKerningGroup = O;
unicode = 01A0;
},
{
glyphname = Ohornacute;
lastChange = "2015-11-26 12:45:03 +0000";
layers = (
{
layerId = "45AE5D37-AE90-4B36-85E4-274E7BAA8508";
name = "Light Italic";
paths = (
{
closed = 1;
nodes = (
"485 -10 OFFCURVE",
"590 117 OFFCURVE",
"633 316 CURVE SMOOTH",
"652 408 OFFCURVE",
"654 480 OFFCURVE",
"636 534 CURVE",
"719 539 OFFCURVE",
"774 573 OFFCURVE",
"799 688 CURVE",
"774 688 LINE",
"753 590 OFFCURVE",
"713 559 OFFCURVE",
"626 559 CURVE",
"594 621 OFFCURVE",
"529 654 OFFCURVE",
"424 654 CURVE SMOOTH",
"222 654 OFFCURVE",
"120 546 OFFCURVE",
"71 316 CURVE SMOOTH",
"28 117 OFFCURVE",
"86 -10 OFFCURVE",
"282 -10 CURVE SMOOTH"
);
},
{
closed = 1;
nodes = (
"110 15 OFFCURVE",
"56 120 OFFCURVE",
"98 316 CURVE SMOOTH",
"147 546 OFFCURVE",
"247 629 OFFCURVE",
"418 629 CURVE SMOOTH",
"595 629 OFFCURVE",
"655 546 OFFCURVE",
"606 316 CURVE SMOOTH",
"564 120 OFFCURVE",
"461 15 OFFCURVE",
"288 15 CURVE SMOOTH"
);
},
{
closed = 1;
nodes = (
"456 688 LINE",
"558 837 LINE",
"528 837 LINE",
"433 688 LINE"
);
}
);
width = 739;
}
);
leftKerningGroup = O;
note = Ohornacute;
rightKerningGroup = O;
unicode = 1EDA;
},
{
glyphname = Ohorndotbelow;
lastChange = "2015-11-26 12:45:06 +0000";
layers = (
{
layerId = "45AE5D37-AE90-4B36-85E4-274E7BAA8508";
name = "Light Italic";
paths = (
{
closed = 1;
nodes = (
"485 -10 OFFCURVE",
"590 117 OFFCURVE",
"633 316 CURVE SMOOTH",
"652 408 OFFCURVE",
"654 480 OFFCURVE",
"636 534 CURVE",
"719 539 OFFCURVE",
"774 573 OFFCURVE",
"799 688 CURVE",
"774 688 LINE",
"753 590 OFFCURVE",
"713 559 OFFCURVE",
"626 559 CURVE",
"594 621 OFFCURVE",
"529 654 OFFCURVE",
"424 654 CURVE SMOOTH",
"222 654 OFFCURVE",
"120 546 OFFCURVE",
"71 316 CURVE SMOOTH",
"28 117 OFFCURVE",
"86 -10 OFFCURVE",
"282 -10 CURVE SMOOTH"
);
},
{
closed = 1;
nodes = (
"279 -139 LINE",
"287 -102 LINE",
"250 -102 LINE",
"242 -139 LINE"
);
},
{
closed = 1;
nodes = (
"110 15 OFFCURVE",
"56 120 OFFCURVE",
"98 316 CURVE SMOOTH",
"147 546 OFFCURVE",
"247 629 OFFCURVE",
"418 629 CURVE SMOOTH",
"595 629 OFFCURVE",
"655 546 OFFCURVE",
"606 316 CURVE SMOOTH",
"564 120 OFFCURVE",
"461 15 OFFCURVE",
"288 15 CURVE SMOOTH"
);
}
);
width = 739;
}
);
leftKerningGroup = O;
note = Ohorndotbelow;
rightKerningGroup = O;
unicode = 1EE2;
},
{
glyphname = Ohorngrave;
lastChange = "2015-11-26 12:45:06 +0000";
layers = (
{
layerId = "45AE5D37-AE90-4B36-85E4-274E7BAA8508";
name = "Light Italic";
paths = (
{
closed = 1;
nodes = (
"485 -10 OFFCURVE",
"590 117 OFFCURVE",
"633 316 CURVE SMOOTH",
"652 408 OFFCURVE",
"654 480 OFFCURVE",
"636 534 CURVE",
"719 539 OFFCURVE",
"774 573 OFFCURVE",
"799 688 CURVE",
"774 688 LINE",
"753 590 OFFCURVE",
"713 559 OFFCURVE",
"626 559 CURVE",
"594 621 OFFCURVE",
"529 654 OFFCURVE",
"424 654 CURVE SMOOTH",
"222 654 OFFCURVE",
"120 546 OFFCURVE",
"71 316 CURVE SMOOTH",
"28 117 OFFCURVE",
"86 -10 OFFCURVE",
"282 -10 CURVE SMOOTH"
);
},
{
closed = 1;
nodes = (
"110 15 OFFCURVE",
"56 120 OFFCURVE",
"98 316 CURVE SMOOTH",
"147 546 OFFCURVE",
"247 629 OFFCURVE",
"418 629 CURVE SMOOTH",
"595 629 OFFCURVE",
"655 546 OFFCURVE",
"606 316 CURVE SMOOTH",
"564 120 OFFCURVE",
"461 15 OFFCURVE",
"288 15 CURVE SMOOTH"
);
},
{
closed = 1;
nodes = (
"474 688 LINE",
"443 837 LINE",
"413 837 LINE",
"451 688 LINE"
);
}
);
width = 739;
}
);
leftKerningGroup = O;
note = Ohorngrave;
rightKerningGroup = O;
unicode = 1EDC;
},
{
glyphname = Ohornhookabove;
lastChange = "2015-11-26 12:45:04 +0000";
layers = (
{
layerId = "45AE5D37-AE90-4B36-85E4-274E7BAA8508";
name = "Light Italic";
paths = (
{
closed = 1;
nodes = (
"485 -10 OFFCURVE",
"590 117 OFFCURVE",
"633 316 CURVE SMOOTH",
"652 408 OFFCURVE",
"654 480 OFFCURVE",
"636 534 CURVE",
"719 539 OFFCURVE",
"774 573 OFFCURVE",
"799 688 CURVE",
"774 688 LINE",
"753 590 OFFCURVE",
"713 559 OFFCURVE",
"626 559 CURVE",
"594 621 OFFCURVE",
"529 654 OFFCURVE",
"424 654 CURVE SMOOTH",
"222 654 OFFCURVE",
"120 546 OFFCURVE",
"71 316 CURVE SMOOTH",
"28 117 OFFCURVE",
"86 -10 OFFCURVE",
"282 -10 CURVE SMOOTH"
);
},
{
closed = 1;
nodes = (
"110 15 OFFCURVE",
"56 120 OFFCURVE",
"98 316 CURVE SMOOTH",
"147 546 OFFCURVE",
"247 629 OFFCURVE",
"418 629 CURVE SMOOTH",
"595 629 OFFCURVE",
"655 546 OFFCURVE",
"606 316 CURVE SMOOTH",
"564 120 OFFCURVE",
"461 15 OFFCURVE",
"288 15 CURVE SMOOTH"
);
},
{
closed = 1;
nodes = (
"456 688 LINE",
"468 744 LINE",
"540 750 OFFCURVE",
"567 778 OFFCURVE",
"579 830 CURVE SMOOTH",
"590 885 OFFCURVE",
"556 915 OFFCURVE",
"486 915 CURVE SMOOTH",
"466 915 OFFCURVE",
"431 910 OFFCURVE",
"413 903 CURVE",
"408 878 LINE",
"427 885 OFFCURVE",
"457 890 OFFCURVE",
"479 890 CURVE SMOOTH",
"546 890 OFFCURVE",
"562 869 OFFCURVE",
"554 830 CURVE SMOOTH",
"545 789 OFFCURVE",
"530 766 OFFCURVE",
"444 763 CURVE",
"428 688 LINE"
);
}
);
width = 739;
}
);
leftKerningGroup = O;
note = Ohornhookabove;
rightKerningGroup = O;
unicode = 1EDE;
},
{
glyphname = Ohorntilde;
lastChange = "2015-11-26 12:45:06 +0000";
layers = (
{
layerId = "45AE5D37-AE90-4B36-85E4-274E7BAA8508";
name = "Light Italic";
paths = (
{
closed = 1;
nodes = (
"485 -10 OFFCURVE",
"590 117 OFFCURVE",
"633 316 CURVE SMOOTH",
"652 408 OFFCURVE",
"654 480 OFFCURVE",
"636 534 CURVE",
"719 539 OFFCURVE",
"774 573 OFFCURVE",
"799 688 CURVE",
"774 688 LINE",
"753 590 OFFCURVE",
"713 559 OFFCURVE",
"626 559 CURVE",
"594 621 OFFCURVE",
"529 654 OFFCURVE",
"424 654 CURVE SMOOTH",
"222 654 OFFCURVE",
"120 546 OFFCURVE",
"71 316 CURVE SMOOTH",
"28 117 OFFCURVE",
"86 -10 OFFCURVE",
"282 -10 CURVE SMOOTH"
);
},
{
closed = 1;
nodes = (
"110 15 OFFCURVE",
"56 120 OFFCURVE",
"98 316 CURVE SMOOTH",
"147 546 OFFCURVE",
"247 629 OFFCURVE",
"418 629 CURVE SMOOTH",
"595 629 OFFCURVE",
"655 546 OFFCURVE",
"606 316 CURVE SMOOTH",
"564 120 OFFCURVE",
"461 15 OFFCURVE",
"288 15 CURVE SMOOTH"
);
},
{
closed = 1;
nodes = (
"554 718 OFFCURVE",
"577 728 OFFCURVE",
"594 746 CURVE",
"601 777 LINE",
"577 751 OFFCURVE",
"554 743 OFFCURVE",
"525 743 CURVE SMOOTH",
"482 743 OFFCURVE",
"461 779 OFFCURVE",
"412 779 CURVE SMOOTH",
"384 779 OFFCURVE",
"353 769 OFFCURVE",
"334 751 CURVE",
"328 720 LINE",
"355 747 OFFCURVE",
"382 754 OFFCURVE",
"410 754 CURVE SMOOTH",
"447 754 OFFCURVE",
"477 718 OFFCURVE",
"523 718 CURVE SMOOTH"
);
}
);
width = 739;
}
);
leftKerningGroup = O;
note = Ohorntilde;
rightKerningGroup = O;
unicode = 1EE0;
},
{
glyphname = Ohungarumlaut;
lastChange = "2015-11-26 12:45:06 +0000";
layers = (
{
layerId = "45AE5D37-AE90-4B36-85E4-274E7BAA8508";
name = "Light Italic";
paths = (
{
closed = 1;
nodes = (
"484 -10 OFFCURVE",
"590 117 OFFCURVE",
"633 316 CURVE SMOOTH",
"682 546 OFFCURVE",
"615 654 OFFCURVE",
"424 654 CURVE SMOOTH",
"228 654 OFFCURVE",
"120 546 OFFCURVE",
"71 316 CURVE SMOOTH",
"28 117 OFFCURVE",
"91 -10 OFFCURVE",
"282 -10 CURVE SMOOTH"
);
},
{
closed = 1;
nodes = (
"108 15 OFFCURVE",
"56 120 OFFCURVE",
"98 316 CURVE SMOOTH",
"147 546 OFFCURVE",
"259 629 OFFCURVE",
"418 629 CURVE SMOOTH",
"594 629 OFFCURVE",
"655 546 OFFCURVE",
"606 316 CURVE SMOOTH",
"564 120 OFFCURVE",
"458 15 OFFCURVE",
"288 15 CURVE SMOOTH"
);
},
{
closed = 1;
nodes = (
"331 688 LINE",
"427 817 LINE",
"398 817 LINE",
"309 688 LINE"
);
},
{
closed = 1;
nodes = (
"522 688 LINE",
"619 817 LINE",
"590 817 LINE",
"500 688 LINE"
);
}
);
width = 682;
}
);
leftKerningGroup = O;
note = Ohungarumlaut;
rightKerningGroup = O;
unicode = 0150;
},
{
glyphname = Omacron;
lastChange = "2015-11-26 12:45:07 +0000";
layers = (
{
layerId = "45AE5D37-AE90-4B36-85E4-274E7BAA8508";
name = "Light Italic";
paths = (
{
closed = 1;
nodes = (
"484 -10 OFFCURVE",
"590 117 OFFCURVE",
"633 316 CURVE SMOOTH",
"682 546 OFFCURVE",
"615 654 OFFCURVE",
"424 654 CURVE SMOOTH",
"228 654 OFFCURVE",
"120 546 OFFCURVE",
"71 316 CURVE SMOOTH",
"28 117 OFFCURVE",
"91 -10 OFFCURVE",
"282 -10 CURVE SMOOTH"
);
},
{
closed = 1;
nodes = (
"108 15 OFFCURVE",
"56 120 OFFCURVE",
"98 316 CURVE SMOOTH",
"147 546 OFFCURVE",
"259 629 OFFCURVE",
"418 629 CURVE SMOOTH",
"594 629 OFFCURVE",
"655 546 OFFCURVE",
"606 316 CURVE SMOOTH",
"564 120 OFFCURVE",
"458 15 OFFCURVE",
"288 15 CURVE SMOOTH"
);
},
{
closed = 1;
nodes = (
"570 718 LINE",
"576 743 LINE",
"310 743 LINE",
"304 718 LINE"
);
}
);
width = 682;
}
);
leftKerningGroup = O;
note = Omacron;
rightKerningGroup = O;
unicode = 014C;
},
{
glyphname = Oslash;
lastChange = "2015-11-26 12:45:05 +0000";
layers = (
{
layerId = "45AE5D37-AE90-4B36-85E4-274E7BAA8508";
name = "Light Italic";
paths = (
{
closed = 1;
nodes = (
"139 -53 LINE",
"173 8 LINE",
"203 -4 OFFCURVE",
"239 -10 OFFCURVE",
"282 -10 CURVE SMOOTH",
"484 -10 OFFCURVE",
"590 117 OFFCURVE",
"633 316 CURVE SMOOTH",
"671 496 OFFCURVE",
"638 601 OFFCURVE",
"531 638 CURVE",
"562 693 LINE",
"535 693 LINE",
"507 645 LINE",
"483 651 OFFCURVE",
"455 654 OFFCURVE",
"424 654 CURVE SMOOTH",
"228 654 OFFCURVE",
"120 546 OFFCURVE",
"71 316 CURVE SMOOTH",
"40 172 OFFCURVE",
"64 66 OFFCURVE",
"152 18 CURVE",
"112 -53 LINE"
);
},
{
closed = 1;
nodes = (
"86 82 OFFCURVE",
"68 176 OFFCURVE",
"98 316 CURVE SMOOTH",
"147 546 OFFCURVE",
"259 629 OFFCURVE",
"418 629 CURVE SMOOTH",
"446 629 OFFCURVE",
"472 626 OFFCURVE",
"494 622 CURVE",
"164 40 LINE"
);
},
{
closed = 1;
nodes = (
"248 15 OFFCURVE",
"214 20 OFFCURVE",
"186 30 CURVE",
"518 616 LINE",
"616 585 OFFCURVE",
"644 495 OFFCURVE",
"606 316 CURVE SMOOTH",
"564 120 OFFCURVE",
"458 15 OFFCURVE",
"288 15 CURVE SMOOTH"
);
}
);
width = 682;
}
);
leftKerningGroup = O;
note = Oslash;
rightKerningGroup = O;
unicode = 00D8;
},
{
glyphname = Oslashacute;
lastChange = "2015-11-26 12:45:04 +0000";
layers = (
{
layerId = "45AE5D37-AE90-4B36-85E4-274E7BAA8508";
name = "Light Italic";
paths = (
{
closed = 1;
nodes = (
"139 -53 LINE",
"173 8 LINE",
"203 -4 OFFCURVE",
"239 -10 OFFCURVE",
"282 -10 CURVE SMOOTH",
"484 -10 OFFCURVE",
"590 117 OFFCURVE",
"633 316 CURVE SMOOTH",
"671 496 OFFCURVE",
"638 601 OFFCURVE",
"531 638 CURVE",
"562 693 LINE",
"535 693 LINE",
"507 645 LINE",
"483 651 OFFCURVE",
"455 654 OFFCURVE",
"424 654 CURVE SMOOTH",
"228 654 OFFCURVE",
"120 546 OFFCURVE",
"71 316 CURVE SMOOTH",
"40 172 OFFCURVE",
"64 66 OFFCURVE",
"152 18 CURVE",
"112 -53 LINE"
);
},
{
closed = 1;
nodes = (
"86 82 OFFCURVE",
"68 176 OFFCURVE",
"98 316 CURVE SMOOTH",
"147 546 OFFCURVE",
"259 629 OFFCURVE",
"418 629 CURVE SMOOTH",
"446 629 OFFCURVE",
"472 626 OFFCURVE",
"494 622 CURVE",
"164 40 LINE"
);
},
{
closed = 1;
nodes = (
"248 15 OFFCURVE",
"214 20 OFFCURVE",
"186 30 CURVE",
"518 616 LINE",
"616 585 OFFCURVE",
"644 495 OFFCURVE",
"606 316 CURVE SMOOTH",
"564 120 OFFCURVE",
"458 15 OFFCURVE",
"288 15 CURVE SMOOTH"
);
},
{
closed = 1;
nodes = (
"444 688 LINE",
"546 837 LINE",
"516 837 LINE",
"421 688 LINE"
);
}
);
width = 682;
}
);
leftKerningGroup = O;
note = Oslashacute;
rightKerningGroup = O;
unicode = 01FE;
},
{
glyphname = Otilde;
lastChange = "2015-11-26 12:45:04 +0000";
layers = (
{
layerId = "45AE5D37-AE90-4B36-85E4-274E7BAA8508";
name = "Light Italic";
paths = (
{
closed = 1;
nodes = (
"484 -10 OFFCURVE",
"590 117 OFFCURVE",
"633 316 CURVE SMOOTH",
"682 546 OFFCURVE",
"615 654 OFFCURVE",
"424 654 CURVE SMOOTH",
"228 654 OFFCURVE",
"120 546 OFFCURVE",
"71 316 CURVE SMOOTH",
"28 117 OFFCURVE",
"91 -10 OFFCURVE",
"282 -10 CURVE SMOOTH"
);
},
{
closed = 1;
nodes = (
"108 15 OFFCURVE",
"56 120 OFFCURVE",
"98 316 CURVE SMOOTH",
"147 546 OFFCURVE",
"259 629 OFFCURVE",
"418 629 CURVE SMOOTH",
"594 629 OFFCURVE",
"655 546 OFFCURVE",
"606 316 CURVE SMOOTH",
"564 120 OFFCURVE",
"458 15 OFFCURVE",
"288 15 CURVE SMOOTH"
);
},
{
closed = 1;
nodes = (
"534 718 OFFCURVE",
"557 728 OFFCURVE",
"574 746 CURVE",
"581 777 LINE",
"557 751 OFFCURVE",
"534 743 OFFCURVE",
"505 743 CURVE SMOOTH",
"462 743 OFFCURVE",
"441 779 OFFCURVE",
"392 779 CURVE SMOOTH",
"364 779 OFFCURVE",
"333 769 OFFCURVE",
"314 751 CURVE",
"308 720 LINE",
"335 747 OFFCURVE",
"362 754 OFFCURVE",
"390 754 CURVE SMOOTH",
"427 754 OFFCURVE",
"457 718 OFFCURVE",
"503 718 CURVE SMOOTH"
);
}
);
width = 682;
}
);
leftKerningGroup = O;
note = Otilde;
rightKerningGroup = O;
unicode = 00D5;
},
{
glyphname = OE;
lastChange = "2015-11-26 12:45:07 +0000";
layers = (
{
layerId = "45AE5D37-AE90-4B36-85E4-274E7BAA8508";
name = "Light Italic";
paths = (
{
closed = 1;
nodes = (
"420 -10 OFFCURVE",
"513 47 OFFCURVE",
"572 146 CURVE",
"541 0 LINE",
"949 0 LINE",
"954 25 LINE",
"574 25 LINE",
"634 310 LINE",
"979 310 LINE",
"985 335 LINE",
"640 335 LINE",
"700 619 LINE",
"1080 619 LINE",
"1085 644 LINE",
"677 644 LINE",
"646 498 LINE",
"629 603 OFFCURVE",
"556 654 OFFCURVE",
"426 654 CURVE SMOOTH",
"230 654 OFFCURVE",
"122 546 OFFCURVE",
"73 316 CURVE SMOOTH",
"30 117 OFFCURVE",
"93 -10 OFFCURVE",
"284 -10 CURVE SMOOTH"
);
},
{
closed = 1;
nodes = (
"110 15 OFFCURVE",
"58 120 OFFCURVE",
"100 316 CURVE SMOOTH",
"149 546 OFFCURVE",
"261 629 OFFCURVE",
"420 629 CURVE SMOOTH",
"589 629 OFFCURVE",
"652 552 OFFCURVE",
"613 343 CURVE SMOOTH",
"606 308 LINE SMOOTH",
"568 116 OFFCURVE",
"458 15 OFFCURVE",
"290 15 CURVE SMOOTH"
);
}
);
width = 1065;
}
);
leftKerningGroup = O;
note = OE;
rightKerningGroup = E;
unicode = 0152;
},
{
glyphname = P;
lastChange = "2015-11-26 12:45:05 +0000";
layers = (
{
layerId = "45AE5D37-AE90-4B36-85E4-274E7BAA8508";
name = "Light Italic";
paths = (
{
closed = 1;
nodes = (
"52 0 LINE",
"107 261 LINE",
"316 261 LINE SMOOTH",
"449 261 OFFCURVE",
"534 331 OFFCURVE",
"559 451 CURVE SMOOTH",
"584 568 OFFCURVE",
"539 644 OFFCURVE",
"401 644 CURVE SMOOTH",
"160 644 LINE",
"24 0 LINE"
);
},
{
closed = 1;
nodes = (
"183 619 LINE",
"404 619 LINE SMOOTH",
"521 619 OFFCURVE",
"555 559 OFFCURVE",
"532 451 CURVE SMOOTH",
"511 350 OFFCURVE",
"443 286 OFFCURVE",
"323 286 CURVE SMOOTH",
"112 286 LINE"
);
}
);
width = 560;
}
);
note = P;
unicode = 0050;
},
{
glyphname = Thorn;
lastChange = "2015-11-26 12:45:03 +0000";
layers = (
{
layerId = "45AE5D37-AE90-4B36-85E4-274E7BAA8508";
name = "Light Italic";
paths = (
{
closed = 1;
nodes = (
"52 0 LINE",
"79 130 LINE",
"288 130 LINE SMOOTH",
"414 130 OFFCURVE",
"506 200 OFFCURVE",
"532 320 CURVE SMOOTH",
"556 437 OFFCURVE",
"512 513 OFFCURVE",
"374 513 CURVE SMOOTH",
"161 513 LINE",
"188 644 LINE",
"160 644 LINE",
"24 0 LINE"
);
},
{
closed = 1;
nodes = (
"155 487 LINE",
"371 487 LINE SMOOTH",
"484 487 OFFCURVE",
"527 428 OFFCURVE",
"505 320 CURVE SMOOTH",
"483 219 OFFCURVE",
"410 155 OFFCURVE",
"295 155 CURVE SMOOTH",
"84 155 LINE"
);
}
);
width = 580;
}
);
note = Thorn;
unicode = 00DE;
},
{
glyphname = Q;
lastChange = "2015-11-26 12:45:07 +0000";
layers = (
{
layerId = "45AE5D37-AE90-4B36-85E4-274E7BAA8508";
name = "Light Italic";
paths = (
{
closed = 1;
nodes = (
"367 -172 OFFCURVE",
"397 -168 OFFCURVE",
"418 -162 CURVE",
"424 -136 LINE",
"402 -142 OFFCURVE",
"370 -146 OFFCURVE",
"350 -146 CURVE SMOOTH",
"276 -146 OFFCURVE",
"268 -106 OFFCURVE",
"288 -10 CURVE",
"484 -7 OFFCURVE",
"590 119 OFFCURVE",
"633 316 CURVE SMOOTH",
"682 546 OFFCURVE",
"620 654 OFFCURVE",
"424 654 CURVE SMOOTH",
"228 654 OFFCURVE",
"120 546 OFFCURVE",
"71 316 CURVE SMOOTH",
"29 124 OFFCURVE",
"82 -1 OFFCURVE",
"261 -9 CURVE",
"241 -110 OFFCURVE",
"252 -172 OFFCURVE",
"345 -172 CURVE SMOOTH"
);
},
{
closed = 1;
nodes = (
"104 15 OFFCURVE",
"56 120 OFFCURVE",
"98 316 CURVE SMOOTH",
"147 546 OFFCURVE",
"257 629 OFFCURVE",
"418 629 CURVE SMOOTH",
"598 629 OFFCURVE",
"655 546 OFFCURVE",
"606 316 CURVE SMOOTH",
"564 120 OFFCURVE",
"458 15 OFFCURVE",
"288 15 CURVE SMOOTH"
);
}
);
width = 682;
}
);
leftKerningGroup = O;
note = Q;
rightKerningGroup = O;
unicode = 0051;
},
{
glyphname = R;
lastChange = "2015-11-26 12:45:04 +0000";
layers = (
{
layerId = "45AE5D37-AE90-4B36-85E4-274E7BAA8508";
name = "Light Italic";
paths = (
{
closed = 1;
nodes = (
"52 0 LINE",
"110 273 LINE",
"277 273 LINE SMOOTH",
"364 273 OFFCURVE",
"380 253 OFFCURVE",
"392 202 CURVE SMOOTH",
"438 0 LINE",
"466 0 LINE",
"421 208 LINE SMOOTH",
"413 244 OFFCURVE",
"406 264 OFFCURVE",
"376 278 CURVE",
"478 292 OFFCURVE",
"539 357 OFFCURVE",
"561 460 CURVE SMOOTH",
"585 573 OFFCURVE",
"543 644 OFFCURVE",
"416 644 CURVE SMOOTH",
"160 644 LINE",
"24 0 LINE"
);
},
{
closed = 1;
nodes = (
"183 619 LINE",
"414 619 LINE SMOOTH",
"526 619 OFFCURVE",
"557 566 OFFCURVE",
"534 460 CURVE SMOOTH",
"510 344 OFFCURVE",
"436 298 OFFCURVE",
"333 298 CURVE SMOOTH",
"115 298 LINE"
);
}
);
width = 582;
}
);
note = R;
rightKerningGroup = R;
unicode = 0052;
},
{
glyphname = Racute;
lastChange = "2015-11-26 12:45:04 +0000";
layers = (
{
layerId = "45AE5D37-AE90-4B36-85E4-274E7BAA8508";
name = "Light Italic";
paths = (
{
closed = 1;
nodes = (
"52 0 LINE",
"110 273 LINE",
"277 273 LINE SMOOTH",
"364 273 OFFCURVE",
"380 253 OFFCURVE",
"392 202 CURVE SMOOTH",
"438 0 LINE",
"466 0 LINE",
"421 208 LINE SMOOTH",
"413 244 OFFCURVE",
"406 264 OFFCURVE",
"376 278 CURVE",
"478 292 OFFCURVE",
"539 357 OFFCURVE",
"561 460 CURVE SMOOTH",
"585 573 OFFCURVE",
"543 644 OFFCURVE",
"416 644 CURVE SMOOTH",
"160 644 LINE",
"24 0 LINE"
);
},
{
closed = 1;
nodes = (
"183 619 LINE",
"414 619 LINE SMOOTH",
"526 619 OFFCURVE",
"557 566 OFFCURVE",
"534 460 CURVE SMOOTH",
"510 344 OFFCURVE",
"436 298 OFFCURVE",
"333 298 CURVE SMOOTH",
"115 298 LINE"
);
},
{
closed = 1;
nodes = (
"391 688 LINE",
"493 837 LINE",
"463 837 LINE",
"368 688 LINE"
);
}
);
width = 582;
}
);
note = Racute;
rightKerningGroup = R;
unicode = 0154;
},
{
glyphname = Rcaron;
lastChange = "2015-11-26 12:45:04 +0000";
layers = (
{
layerId = "45AE5D37-AE90-4B36-85E4-274E7BAA8508";
name = "Light Italic";
paths = (
{
closed = 1;
nodes = (
"52 0 LINE",
"110 273 LINE",
"277 273 LINE SMOOTH",
"364 273 OFFCURVE",
"380 253 OFFCURVE",
"392 202 CURVE SMOOTH",
"438 0 LINE",
"466 0 LINE",
"421 208 LINE SMOOTH",
"413 244 OFFCURVE",
"406 264 OFFCURVE",
"376 278 CURVE",
"478 292 OFFCURVE",
"539 357 OFFCURVE",
"561 460 CURVE SMOOTH",
"585 573 OFFCURVE",
"543 644 OFFCURVE",
"416 644 CURVE SMOOTH",
"160 644 LINE",
"24 0 LINE"
);
},
{
closed = 1;
nodes = (
"183 619 LINE",
"414 619 LINE SMOOTH",
"526 619 OFFCURVE",
"557 566 OFFCURVE",
"534 460 CURVE SMOOTH",
"510 344 OFFCURVE",
"436 298 OFFCURVE",
"333 298 CURVE SMOOTH",
"115 298 LINE"
);
},
{
closed = 1;
nodes = (
"403 688 LINE",
"524 810 LINE",
"493 810 LINE",
"390 706 LINE",
"331 810 LINE",
"304 810 LINE",
"373 688 LINE"
);
}
);
width = 582;
}
);
note = Rcaron;
rightKerningGroup = R;
unicode = 0158;
},
{
glyphname = Rcommaaccent;
lastChange = "2015-11-26 12:45:03 +0000";
layers = (
{
layerId = "45AE5D37-AE90-4B36-85E4-274E7BAA8508";
name = "Light Italic";
paths = (
{
closed = 1;
nodes = (
"52 0 LINE",
"110 273 LINE",
"277 273 LINE SMOOTH",
"364 273 OFFCURVE",
"380 253 OFFCURVE",
"392 202 CURVE SMOOTH",
"438 0 LINE",
"466 0 LINE",
"421 208 LINE SMOOTH",
"413 244 OFFCURVE",
"406 264 OFFCURVE",
"376 278 CURVE",
"478 292 OFFCURVE",
"539 357 OFFCURVE",
"561 460 CURVE SMOOTH",
"585 573 OFFCURVE",
"543 644 OFFCURVE",
"416 644 CURVE SMOOTH",
"160 644 LINE",
"24 0 LINE"
);
},
{
closed = 1;
nodes = (
"154 -190 LINE",
"222 -37 LINE",
"189 -37 LINE",
"132 -190 LINE"
);
},
{
closed = 1;
nodes = (
"183 619 LINE",
"414 619 LINE SMOOTH",
"526 619 OFFCURVE",
"557 566 OFFCURVE",
"534 460 CURVE SMOOTH",
"510 344 OFFCURVE",
"436 298 OFFCURVE",
"333 298 CURVE SMOOTH",
"115 298 LINE"
);
}
);
width = 582;
}
);
note = Rcommaaccent;
rightKerningGroup = R;
unicode = 0156;
},
{
glyphname = Rdotbelow;
lastChange = "2015-11-26 12:45:03 +0000";
layers = (
{
layerId = "45AE5D37-AE90-4B36-85E4-274E7BAA8508";
name = "Light Italic";
paths = (
{
closed = 1;
nodes = (
"52 0 LINE",
"110 273 LINE",
"277 273 LINE SMOOTH",
"364 273 OFFCURVE",
"380 253 OFFCURVE",
"392 202 CURVE SMOOTH",
"438 0 LINE",
"466 0 LINE",
"421 208 LINE SMOOTH",
"413 244 OFFCURVE",
"406 264 OFFCURVE",
"376 278 CURVE",
"478 292 OFFCURVE",
"539 357 OFFCURVE",
"561 460 CURVE SMOOTH",
"585 573 OFFCURVE",
"543 644 OFFCURVE",
"416 644 CURVE SMOOTH",
"160 644 LINE",
"24 0 LINE"
);
},
{
closed = 1;
nodes = (
"244 -139 LINE",
"252 -102 LINE",
"215 -102 LINE",
"207 -139 LINE"
);
},
{
closed = 1;
nodes = (
"183 619 LINE",
"414 619 LINE SMOOTH",
"526 619 OFFCURVE",
"557 566 OFFCURVE",
"534 460 CURVE SMOOTH",
"510 344 OFFCURVE",
"436 298 OFFCURVE",
"333 298 CURVE SMOOTH",
"115 298 LINE"
);
}
);
width = 582;
}
);
note = Rdotbelow;
rightKerningGroup = R;
unicode = 1E5A;
},
{
glyphname = Rdotbelowmacron;
lastChange = "2015-11-26 12:45:03 +0000";
layers = (
{
layerId = "45AE5D37-AE90-4B36-85E4-274E7BAA8508";
name = "Light Italic";
paths = (
{
closed = 1;
nodes = (
"52 0 LINE",
"110 273 LINE",
"277 273 LINE SMOOTH",
"364 273 OFFCURVE",
"380 253 OFFCURVE",
"392 202 CURVE SMOOTH",
"438 0 LINE",
"466 0 LINE",
"421 208 LINE SMOOTH",
"413 244 OFFCURVE",
"406 264 OFFCURVE",
"376 278 CURVE",
"478 292 OFFCURVE",
"539 357 OFFCURVE",
"561 460 CURVE SMOOTH",
"585 573 OFFCURVE",
"543 644 OFFCURVE",
"416 644 CURVE SMOOTH",
"160 644 LINE",
"24 0 LINE"
);
},
{
closed = 1;
nodes = (
"222 -139 LINE",
"230 -102 LINE",
"193 -102 LINE",
"185 -139 LINE"
);
},
{
closed = 1;
nodes = (
"183 619 LINE",
"414 619 LINE SMOOTH",
"526 619 OFFCURVE",
"557 566 OFFCURVE",
"534 460 CURVE SMOOTH",
"510 344 OFFCURVE",
"436 298 OFFCURVE",
"333 298 CURVE SMOOTH",
"115 298 LINE"
);
},
{
closed = 1;
nodes = (
"520 718 LINE",
"526 743 LINE",
"260 743 LINE",
"254 718 LINE"
);
}
);
width = 582;
}
);
note = Rdotbelowmacron;
rightKerningGroup = R;
unicode = 1E5C;
},
{
glyphname = Rlinebelow;
lastChange = "2015-11-26 12:45:07 +0000";
layers = (
{
layerId = "45AE5D37-AE90-4B36-85E4-274E7BAA8508";
name = "Light Italic";
paths = (
{
closed = 1;
nodes = (
"52 0 LINE",
"110 273 LINE",
"277 273 LINE SMOOTH",
"364 273 OFFCURVE",
"380 253 OFFCURVE",
"392 202 CURVE SMOOTH",
"438 0 LINE",
"466 0 LINE",
"421 208 LINE SMOOTH",
"413 244 OFFCURVE",
"406 264 OFFCURVE",
"376 278 CURVE",
"478 292 OFFCURVE",
"539 357 OFFCURVE",
"561 460 CURVE SMOOTH",
"585 573 OFFCURVE",
"543 644 OFFCURVE",
"416 644 CURVE SMOOTH",
"160 644 LINE",
"24 0 LINE"
);
},
{
closed = 1;
nodes = (
"340 -101 LINE",
"345 -76 LINE",
"79 -76 LINE",
"74 -101 LINE"
);
},
{
closed = 1;
nodes = (
"183 619 LINE",
"414 619 LINE SMOOTH",
"526 619 OFFCURVE",
"557 566 OFFCURVE",
"534 460 CURVE SMOOTH",
"510 344 OFFCURVE",
"436 298 OFFCURVE",
"333 298 CURVE SMOOTH",
"115 298 LINE"
);
}
);
width = 582;
}
);
note = Rlinebelow;
rightKerningGroup = R;
unicode = 1E5E;
},
{
glyphname = S;
lastChange = "2015-11-26 12:45:03 +0000";
layers = (
{
layerId = "45AE5D37-AE90-4B36-85E4-274E7BAA8508";
name = "Light Italic";
paths = (
{
closed = 1;
nodes = (
"353 -10 OFFCURVE",
"444 44 OFFCURVE",
"469 160 CURVE SMOOTH",
"488 253 OFFCURVE",
"446 303 OFFCURVE",
"297 338 CURVE SMOOTH",
"155 372 OFFCURVE",
"116 403 OFFCURVE",
"134 485 CURVE SMOOTH",
"155 584 OFFCURVE",
"234 629 OFFCURVE",
"369 629 CURVE SMOOTH",
"430 629 OFFCURVE",
"483 620 OFFCURVE",
"523 606 CURVE",
"529 631 LINE",
"501 641 OFFCURVE",
"437 654 OFFCURVE",
"367 654 CURVE SMOOTH",
"207 654 OFFCURVE",
"128 585 OFFCURVE",
"107 485 CURVE SMOOTH",
"88 397 OFFCURVE",
"129 350 OFFCURVE",
"272 318 CURVE SMOOTH",
"409 288 OFFCURVE",
"461 252 OFFCURVE",
"442 160 CURVE SMOOTH",
"420 58 OFFCURVE",
"338 14 OFFCURVE",
"203 14 CURVE SMOOTH",
"134 14 OFFCURVE",
"79 23 OFFCURVE",
"30 41 CURVE",
"25 16 LINE",
"67 -1 OFFCURVE",
"122 -10 OFFCURVE",
"198 -10 CURVE SMOOTH"
);
}
);
width = 551;
}
);
leftKerningGroup = S;
note = S;
rightKerningGroup = S;
unicode = 0053;
},
{
glyphname = Sacute;
lastChange = "2015-11-26 12:45:06 +0000";
layers = (
{
layerId = "45AE5D37-AE90-4B36-85E4-274E7BAA8508";
name = "Light Italic";
paths = (
{
closed = 1;
nodes = (
"353 -10 OFFCURVE",
"444 44 OFFCURVE",
"469 160 CURVE SMOOTH",
"488 253 OFFCURVE",
"446 303 OFFCURVE",
"297 338 CURVE SMOOTH",
"155 372 OFFCURVE",
"116 403 OFFCURVE",
"134 485 CURVE SMOOTH",
"155 584 OFFCURVE",
"234 629 OFFCURVE",
"369 629 CURVE SMOOTH",
"430 629 OFFCURVE",
"483 620 OFFCURVE",
"523 606 CURVE",
"529 631 LINE",
"501 641 OFFCURVE",
"437 654 OFFCURVE",
"367 654 CURVE SMOOTH",
"207 654 OFFCURVE",
"128 585 OFFCURVE",
"107 485 CURVE SMOOTH",
"88 397 OFFCURVE",
"129 350 OFFCURVE",
"272 318 CURVE SMOOTH",
"409 288 OFFCURVE",
"461 252 OFFCURVE",
"442 160 CURVE SMOOTH",
"420 58 OFFCURVE",
"338 14 OFFCURVE",
"203 14 CURVE SMOOTH",
"134 14 OFFCURVE",
"79 23 OFFCURVE",
"30 41 CURVE",
"25 16 LINE",
"67 -1 OFFCURVE",
"122 -10 OFFCURVE",
"198 -10 CURVE SMOOTH"
);
},
{
closed = 1;
nodes = (
"371 700 LINE",
"473 849 LINE",
"443 849 LINE",
"348 700 LINE"
);
}
);
width = 551;
}
);
leftKerningGroup = S;
note = Sacute;
rightKerningGroup = S;
unicode = 015A;
},
{
glyphname = Scaron;
lastChange = "2015-11-26 12:45:06 +0000";
layers = (
{
layerId = "45AE5D37-AE90-4B36-85E4-274E7BAA8508";
name = "Light Italic";
paths = (
{
closed = 1;
nodes = (
"353 -10 OFFCURVE",
"444 44 OFFCURVE",
"469 160 CURVE SMOOTH",
"488 253 OFFCURVE",
"446 303 OFFCURVE",
"297 338 CURVE SMOOTH",
"155 372 OFFCURVE",
"116 403 OFFCURVE",
"134 485 CURVE SMOOTH",
"155 584 OFFCURVE",
"234 629 OFFCURVE",
"369 629 CURVE SMOOTH",
"430 629 OFFCURVE",
"483 620 OFFCURVE",
"523 606 CURVE",
"529 631 LINE",
"501 641 OFFCURVE",
"437 654 OFFCURVE",
"367 654 CURVE SMOOTH",
"207 654 OFFCURVE",
"128 585 OFFCURVE",
"107 485 CURVE SMOOTH",
"88 397 OFFCURVE",
"129 350 OFFCURVE",
"272 318 CURVE SMOOTH",
"409 288 OFFCURVE",
"461 252 OFFCURVE",
"442 160 CURVE SMOOTH",
"420 58 OFFCURVE",
"338 14 OFFCURVE",
"203 14 CURVE SMOOTH",
"134 14 OFFCURVE",
"79 23 OFFCURVE",
"30 41 CURVE",
"25 16 LINE",
"67 -1 OFFCURVE",
"122 -10 OFFCURVE",
"198 -10 CURVE SMOOTH"
);
},
{
closed = 1;
nodes = (
"392 688 LINE",
"513 810 LINE",
"482 810 LINE",
"379 706 LINE",
"320 810 LINE",
"293 810 LINE",
"362 688 LINE"
);
}
);
width = 551;
}
);
leftKerningGroup = S;
note = Scaron;
rightKerningGroup = S;
unicode = 0160;
},
{
glyphname = Scedilla;
lastChange = "2015-11-26 12:45:03 +0000";
layers = (
{
layerId = "45AE5D37-AE90-4B36-85E4-274E7BAA8508";
name = "Light Italic";
paths = (
{
closed = 1;
nodes = (
"245 -240 OFFCURVE",
"291 -204 OFFCURVE",
"305 -139 CURVE SMOOTH",
"317 -81 OFFCURVE",
"277 -53 OFFCURVE",
"206 -53 CURVE",
"231 -9 LINE",
"366 -1 OFFCURVE",
"446 52 OFFCURVE",
"469 160 CURVE SMOOTH",
"488 253 OFFCURVE",
"446 303 OFFCURVE",
"297 338 CURVE SMOOTH",
"155 372 OFFCURVE",
"116 403 OFFCURVE",
"134 485 CURVE SMOOTH",
"155 584 OFFCURVE",
"234 629 OFFCURVE",
"369 629 CURVE SMOOTH",
"430 629 OFFCURVE",
"483 620 OFFCURVE",
"523 606 CURVE",
"529 631 LINE",
"501 641 OFFCURVE",
"437 654 OFFCURVE",
"367 654 CURVE SMOOTH",
"207 654 OFFCURVE",
"128 585 OFFCURVE",
"107 485 CURVE SMOOTH",
"88 397 OFFCURVE",
"129 350 OFFCURVE",
"272 318 CURVE SMOOTH",
"409 288 OFFCURVE",
"461 252 OFFCURVE",
"442 160 CURVE SMOOTH",
"420 58 OFFCURVE",
"338 14 OFFCURVE",
"203 14 CURVE SMOOTH",
"134 14 OFFCURVE",
"79 23 OFFCURVE",
"30 41 CURVE",
"25 16 LINE",
"67 -1 OFFCURVE",
"122 -10 OFFCURVE",
"202 -10 CURVE",
"165 -76 LINE",
"193 -76 LINE SMOOTH",
"264 -76 OFFCURVE",
"288 -93 OFFCURVE",
"278 -141 CURVE SMOOTH",
"266 -195 OFFCURVE",
"227 -215 OFFCURVE",
"156 -215 CURVE SMOOTH",
"133 -215 OFFCURVE",
"110 -212 OFFCURVE",
"94 -207 CURVE",
"88 -232 LINE",
"102 -236 OFFCURVE",
"128 -240 OFFCURVE",
"149 -240 CURVE SMOOTH"
);
}
);
width = 551;
}
);
leftKerningGroup = S;
note = Scedilla;
rightKerningGroup = S;
unicode = 015E;
},
{
glyphname = Scircumflex;
lastChange = "2015-11-26 12:45:04 +0000";
layers = (
{
layerId = "45AE5D37-AE90-4B36-85E4-274E7BAA8508";
name = "Light Italic";
paths = (
{
closed = 1;
nodes = (
"353 -10 OFFCURVE",
"444 44 OFFCURVE",
"469 160 CURVE SMOOTH",
"488 253 OFFCURVE",
"446 303 OFFCURVE",
"297 338 CURVE SMOOTH",
"155 372 OFFCURVE",
"116 403 OFFCURVE",
"134 485 CURVE SMOOTH",
"155 584 OFFCURVE",
"234 629 OFFCURVE",
"369 629 CURVE SMOOTH",
"430 629 OFFCURVE",
"483 620 OFFCURVE",
"523 606 CURVE",
"529 631 LINE",
"501 641 OFFCURVE",
"437 654 OFFCURVE",
"367 654 CURVE SMOOTH",
"207 654 OFFCURVE",
"128 585 OFFCURVE",
"107 485 CURVE SMOOTH",
"88 397 OFFCURVE",
"129 350 OFFCURVE",
"272 318 CURVE SMOOTH",
"409 288 OFFCURVE",
"461 252 OFFCURVE",
"442 160 CURVE SMOOTH",
"420 58 OFFCURVE",
"338 14 OFFCURVE",
"203 14 CURVE SMOOTH",
"134 14 OFFCURVE",
"79 23 OFFCURVE",
"30 41 CURVE",
"25 16 LINE",
"67 -1 OFFCURVE",
"122 -10 OFFCURVE",
"198 -10 CURVE SMOOTH"
);
},
{
closed = 1;
nodes = (
"289 720 LINE",
"392 824 LINE",
"451 720 LINE",
"478 720 LINE",
"409 842 LINE",
"379 842 LINE",
"259 720 LINE"
);
}
);
width = 551;
}
);
leftKerningGroup = S;
note = Scircumflex;
rightKerningGroup = S;
unicode = 015C;
},
{
glyphname = Scommaaccent;
lastChange = "2015-11-26 12:45:04 +0000";
layers = (
{
layerId = "45AE5D37-AE90-4B36-85E4-274E7BAA8508";
name = "Light Italic";
paths = (
{
closed = 1;
nodes = (
"353 -10 OFFCURVE",
"444 44 OFFCURVE",
"469 160 CURVE SMOOTH",
"488 253 OFFCURVE",
"446 303 OFFCURVE",
"297 338 CURVE SMOOTH",
"155 372 OFFCURVE",
"116 403 OFFCURVE",
"134 485 CURVE SMOOTH",
"155 584 OFFCURVE",
"234 629 OFFCURVE",
"369 629 CURVE SMOOTH",
"430 629 OFFCURVE",
"483 620 OFFCURVE",
"523 606 CURVE",
"529 631 LINE",
"501 641 OFFCURVE",
"437 654 OFFCURVE",
"367 654 CURVE SMOOTH",
"207 654 OFFCURVE",
"128 585 OFFCURVE",
"107 485 CURVE SMOOTH",
"88 397 OFFCURVE",
"129 350 OFFCURVE",
"272 318 CURVE SMOOTH",
"409 288 OFFCURVE",
"461 252 OFFCURVE",
"442 160 CURVE SMOOTH",
"420 58 OFFCURVE",
"338 14 OFFCURVE",
"203 14 CURVE SMOOTH",
"134 14 OFFCURVE",
"79 23 OFFCURVE",
"30 41 CURVE",
"25 16 LINE",
"67 -1 OFFCURVE",
"122 -10 OFFCURVE",
"198 -10 CURVE SMOOTH"
);
},
{
closed = 1;
nodes = (
"157 -210 LINE",
"224 -57 LINE",
"192 -57 LINE",
"135 -210 LINE"
);
}
);
width = 551;
}
);
leftKerningGroup = S;
note = Scommaaccent;
rightKerningGroup = S;
unicode = 0218;
},
{
glyphname = Sdotaccent;
lastChange = "2015-11-26 12:45:06 +0000";
layers = (
{
layerId = "45AE5D37-AE90-4B36-85E4-274E7BAA8508";
name = "Light Italic";
paths = (
{
closed = 1;
nodes = (
"353 -10 OFFCURVE",
"444 44 OFFCURVE",
"469 160 CURVE SMOOTH",
"488 253 OFFCURVE",
"446 303 OFFCURVE",
"297 338 CURVE SMOOTH",
"155 372 OFFCURVE",
"116 403 OFFCURVE",
"134 485 CURVE SMOOTH",
"155 584 OFFCURVE",
"234 629 OFFCURVE",
"369 629 CURVE SMOOTH",
"430 629 OFFCURVE",
"483 620 OFFCURVE",
"523 606 CURVE",
"529 631 LINE",
"501 641 OFFCURVE",
"437 654 OFFCURVE",
"367 654 CURVE SMOOTH",
"207 654 OFFCURVE",
"128 585 OFFCURVE",
"107 485 CURVE SMOOTH",
"88 397 OFFCURVE",
"129 350 OFFCURVE",
"272 318 CURVE SMOOTH",
"409 288 OFFCURVE",
"461 252 OFFCURVE",
"442 160 CURVE SMOOTH",
"420 58 OFFCURVE",
"338 14 OFFCURVE",
"203 14 CURVE SMOOTH",
"134 14 OFFCURVE",
"79 23 OFFCURVE",
"30 41 CURVE",
"25 16 LINE",
"67 -1 OFFCURVE",
"122 -10 OFFCURVE",
"198 -10 CURVE SMOOTH"
);
},
{
closed = 1;
nodes = (
"383 718 LINE",
"390 753 LINE",
"355 753 LINE",
"348 718 LINE"
);
}
);
width = 551;
}
);
leftKerningGroup = S;
note = Sdotaccent;
rightKerningGroup = S;
unicode = 1E60;
},
{
glyphname = Sdotbelow;
lastChange = "2015-11-26 12:45:05 +0000";
layers = (
{
layerId = "45AE5D37-AE90-4B36-85E4-274E7BAA8508";
name = "Light Italic";
paths = (
{
closed = 1;
nodes = (
"353 -10 OFFCURVE",
"444 44 OFFCURVE",
"469 160 CURVE SMOOTH",
"488 253 OFFCURVE",
"446 303 OFFCURVE",
"297 338 CURVE SMOOTH",
"155 372 OFFCURVE",
"116 403 OFFCURVE",
"134 485 CURVE SMOOTH",
"155 584 OFFCURVE",
"234 629 OFFCURVE",
"369 629 CURVE SMOOTH",
"430 629 OFFCURVE",
"483 620 OFFCURVE",
"523 606 CURVE",
"529 631 LINE",
"501 641 OFFCURVE",
"437 654 OFFCURVE",
"367 654 CURVE SMOOTH",
"207 654 OFFCURVE",
"128 585 OFFCURVE",
"107 485 CURVE SMOOTH",
"88 397 OFFCURVE",
"129 350 OFFCURVE",
"272 318 CURVE SMOOTH",
"409 288 OFFCURVE",
"461 252 OFFCURVE",
"442 160 CURVE SMOOTH",
"420 58 OFFCURVE",
"338 14 OFFCURVE",
"203 14 CURVE SMOOTH",
"134 14 OFFCURVE",
"79 23 OFFCURVE",
"30 41 CURVE",
"25 16 LINE",
"67 -1 OFFCURVE",
"122 -10 OFFCURVE",
"198 -10 CURVE SMOOTH"
);
},
{
closed = 1;
nodes = (
"207 -139 LINE",
"215 -102 LINE",
"178 -102 LINE",
"170 -139 LINE"
);
}
);
width = 551;
}
);
leftKerningGroup = S;
note = Sdotbelow;
rightKerningGroup = S;
unicode = 1E62;
},
{
glyphname = Germandbls;
lastChange = "2015-11-26 12:45:05 +0000";
layers = (
{
layerId = "45AE5D37-AE90-4B36-85E4-274E7BAA8508";
name = "Light Italic";
paths = (
{
closed = 1;
nodes = (
"432 -10 OFFCURVE",
"507 51 OFFCURVE",
"534 178 CURVE SMOOTH",
"557 286 OFFCURVE",
"512 347 OFFCURVE",
"392 347 CURVE SMOOTH",
"323 347 LINE",
"561 477 LINE",
"583 580 OFFCURVE",
"534 654 OFFCURVE",
"384 654 CURVE SMOOTH",
"235 654 OFFCURVE",
"143 588 OFFCURVE",
"115 453 CURVE SMOOTH",
"19 0 LINE",
"47 0 LINE",
"142 449 LINE SMOOTH",
"169 574 OFFCURVE",
"246 628 OFFCURVE",
"378 628 CURVE SMOOTH",
"521 628 OFFCURVE",
"552 567 OFFCURVE",
"535 488 CURVE",
"285 351 LINE",
"279 322 LINE",
"381 322 LINE SMOOTH",
"502 322 OFFCURVE",
"528 275 OFFCURVE",
"507 178 CURVE SMOOTH",
"484 66 OFFCURVE",
"416 15 OFFCURVE",
"308 15 CURVE SMOOTH",
"257 15 OFFCURVE",
"207 20 OFFCURVE",
"169 38 CURVE",
"163 12 LINE",
"199 -4 OFFCURVE",
"251 -10 OFFCURVE",
"302 -10 CURVE SMOOTH"
);
}
);
width = 613;
}
);
note = uni1E9E;
unicode = 1E9E;
},
{
glyphname = Schwa;
lastChange = "2015-11-26 12:45:04 +0000";
layers = (
{
layerId = "45AE5D37-AE90-4B36-85E4-274E7BAA8508";
name = "Light Italic";
paths = (
{
closed = 1;
nodes = (
"457 -10 OFFCURVE",
"563 113 OFFCURVE",
"606 317 CURVE SMOOTH",
"655 549 OFFCURVE",
"587 654 OFFCURVE",
"358 654 CURVE SMOOTH",
"301 654 OFFCURVE",
"234 642 OFFCURVE",
"179 622 CURVE",
"173 595 LINE",
"235 618 OFFCURVE",
"291 629 OFFCURVE",
"346 629 CURVE SMOOTH",
"578 629 OFFCURVE",
"620 530 OFFCURVE",
"584 343 CURVE",
"76 343 LINE",
"55 241 LINE SMOOTH",
"25 102 OFFCURVE",
"72 -10 OFFCURVE",
"251 -10 CURVE SMOOTH"
);
},
{
closed = 1;
nodes = (
"102 15 OFFCURVE",
"51 93 OFFCURVE",
"83 243 CURVE SMOOTH",
"99 317 LINE",
"579 317 LINE",
"538 125 OFFCURVE",
"441 15 OFFCURVE",
"257 15 CURVE SMOOTH"
);
}
);
width = 655;
}
);
note = uni018F;
unicode = 018F;
},
{
glyphname = T;
lastChange = "2015-11-26 12:45:06 +0000";
layers = (
{
layerId = "45AE5D37-AE90-4B36-85E4-274E7BAA8508";
name = "Light Italic";
paths = (
{
closed = 1;
nodes = (
"243 0 LINE",
"374 619 LINE",
"604 619 LINE",
"609 644 LINE",
"120 644 LINE",
"115 619 LINE",
"346 619 LINE",
"215 0 LINE"
);
}
);
width = 569;
}
);
leftKerningGroup = T;
note = T;
rightKerningGroup = T;
unicode = 0054;
},
{
glyphname = Tbar;
lastChange = "2015-11-26 12:45:07 +0000";
layers = (
{
layerId = "45AE5D37-AE90-4B36-85E4-274E7BAA8508";
name = "Light Italic";
paths = (
{
closed = 1;
nodes = (
"243 0 LINE",
"374 619 LINE",
"604 619 LINE",
"609 644 LINE",
"120 644 LINE",
"115 619 LINE",
"346 619 LINE",
"215 0 LINE"
);
},
{
closed = 1;
nodes = (
"477 347 LINE",
"483 372 LINE",
"129 372 LINE",
"123 347 LINE"
);
}
);
width = 569;
}
);
leftKerningGroup = T;
note = Tbar;
rightKerningGroup = T;
unicode = 0166;
},
{
glyphname = Tcaron;
lastChange = "2015-11-26 12:45:06 +0000";
layers = (
{
layerId = "45AE5D37-AE90-4B36-85E4-274E7BAA8508";
name = "Light Italic";
paths = (
{
closed = 1;
nodes = (
"243 0 LINE",
"374 619 LINE",
"604 619 LINE",
"609 644 LINE",
"120 644 LINE",
"115 619 LINE",
"346 619 LINE",
"215 0 LINE"
);
},
{
closed = 1;
nodes = (
"395 720 LINE",
"516 842 LINE",
"485 842 LINE",
"382 738 LINE",
"323 842 LINE",
"296 842 LINE",
"365 720 LINE"
);
}
);
width = 569;
}
);
leftKerningGroup = T;
note = Tcaron;
rightKerningGroup = T;
unicode = 0164;
},
{
glyphname = Tcedilla;
lastChange = "2015-11-26 12:45:06 +0000";
layers = (
{
layerId = "45AE5D37-AE90-4B36-85E4-274E7BAA8508";
name = "Light Italic";
paths = (
{
closed = 1;
nodes = (
"252 -240 OFFCURVE",
"298 -204 OFFCURVE",
"312 -139 CURVE SMOOTH",
"324 -81 OFFCURVE",
"284 -53 OFFCURVE",
"213 -53 CURVE",
"243 0 LINE",
"374 619 LINE",
"604 619 LINE",
"609 644 LINE",
"120 644 LINE",
"115 619 LINE",
"346 619 LINE",
"215 0 LINE",
"172 -76 LINE",
"200 -76 LINE SMOOTH",
"271 -76 OFFCURVE",
"295 -93 OFFCURVE",
"285 -141 CURVE SMOOTH",
"273 -195 OFFCURVE",
"234 -215 OFFCURVE",
"163 -215 CURVE SMOOTH",
"140 -215 OFFCURVE",
"117 -212 OFFCURVE",
"101 -207 CURVE",
"95 -232 LINE",
"109 -236 OFFCURVE",
"135 -240 OFFCURVE",
"156 -240 CURVE SMOOTH"
);
}
);
width = 569;
}
);
leftKerningGroup = T;
note = Tcedilla;
rightKerningGroup = T;
unicode = 0162;
},
{
glyphname = Tcommaaccent;
lastChange = "2015-11-26 12:45:04 +0000";
layers = (
{
layerId = "45AE5D37-AE90-4B36-85E4-274E7BAA8508";
name = "Light Italic";
paths = (
{
closed = 1;
nodes = (
"243 0 LINE",
"374 619 LINE",
"604 619 LINE",
"609 644 LINE",
"120 644 LINE",
"115 619 LINE",
"346 619 LINE",
"215 0 LINE"
);
},
{
closed = 1;
nodes = (
"168 -190 LINE",
"236 -37 LINE",
"203 -37 LINE",
"146 -190 LINE"
);
}
);
width = 569;
}
);
leftKerningGroup = T;
note = Tcommaaccent;
rightKerningGroup = T;
unicode = 021A;
},
{
glyphname = Tdotbelow;
lastChange = "2015-11-26 12:45:05 +0000";
layers = (
{
layerId = "45AE5D37-AE90-4B36-85E4-274E7BAA8508";
name = "Light Italic";
paths = (
{
closed = 1;
nodes = (
"243 0 LINE",
"374 619 LINE",
"604 619 LINE",
"609 644 LINE",
"120 644 LINE",
"115 619 LINE",
"346 619 LINE",
"215 0 LINE"
);
},
{
closed = 1;
nodes = (
"218 -139 LINE",
"226 -102 LINE",
"189 -102 LINE",
"181 -139 LINE"
);
}
);
width = 569;
}
);
leftKerningGroup = T;
note = Tdotbelow;
rightKerningGroup = T;
unicode = 1E6C;
},
{
glyphname = Tlinebelow;
lastChange = "2015-11-26 12:45:05 +0000";
layers = (
{
layerId = "45AE5D37-AE90-4B36-85E4-274E7BAA8508";
name = "Light Italic";
paths = (
{
closed = 1;
nodes = (
"243 0 LINE",
"374 619 LINE",
"604 619 LINE",
"609 644 LINE",
"120 644 LINE",
"115 619 LINE",
"346 619 LINE",
"215 0 LINE"
);
},
{
closed = 1;
nodes = (
"340 -101 LINE",
"345 -76 LINE",
"79 -76 LINE",
"74 -101 LINE"
);
}
);
width = 569;
}
);
leftKerningGroup = T;
note = Tlinebelow;
rightKerningGroup = T;
unicode = 1E6E;
},
{
glyphname = U;
lastChange = "2015-11-26 12:45:04 +0000";
layers = (
{
layerId = "45AE5D37-AE90-4B36-85E4-274E7BAA8508";
name = "Light Italic";
paths = (
{
closed = 1;
nodes = (
"454 -10 OFFCURVE",
"540 72 OFFCURVE",
"574 231 CURVE SMOOTH",
"661 644 LINE",
"633 644 LINE",
"543 219 LINE SMOOTH",
"514 82 OFFCURVE",
"426 16 OFFCURVE",
"275 16 CURVE SMOOTH",
"124 16 OFFCURVE",
"63 78 OFFCURVE",
"93 219 CURVE SMOOTH",
"183 644 LINE",
"155 644 LINE",
"68 231 LINE SMOOTH",
"34 74 OFFCURVE",
"96 -10 OFFCURVE",
"269 -10 CURVE SMOOTH"
);
}
);
width = 656;
}
);
leftKerningGroup = U;
note = U;
rightKerningGroup = U;
unicode = 0055;
},
{
glyphname = Uacute;
lastChange = "2015-11-26 12:45:04 +0000";
layers = (
{
layerId = "45AE5D37-AE90-4B36-85E4-274E7BAA8508";
name = "Light Italic";
paths = (
{
closed = 1;
nodes = (
"454 -10 OFFCURVE",
"540 72 OFFCURVE",
"574 231 CURVE SMOOTH",
"661 644 LINE",
"633 644 LINE",
"543 219 LINE SMOOTH",
"514 82 OFFCURVE",
"426 16 OFFCURVE",
"275 16 CURVE SMOOTH",
"124 16 OFFCURVE",
"63 78 OFFCURVE",
"93 219 CURVE SMOOTH",
"183 644 LINE",
"155 644 LINE",
"68 231 LINE SMOOTH",
"34 74 OFFCURVE",
"96 -10 OFFCURVE",
"269 -10 CURVE SMOOTH"
);
},
{
closed = 1;
nodes = (
"422 688 LINE",
"524 837 LINE",
"494 837 LINE",
"399 688 LINE"
);
}
);
width = 656;
}
);
leftKerningGroup = U;
note = Uacute;
rightKerningGroup = U;
unicode = 00DA;
},
{
glyphname = Ubreve;
lastChange = "2015-11-26 12:45:04 +0000";
layers = (
{
layerId = "45AE5D37-AE90-4B36-85E4-274E7BAA8508";
name = "Light Italic";
paths = (
{
closed = 1;
nodes = (
"454 -10 OFFCURVE",
"540 72 OFFCURVE",
"574 231 CURVE SMOOTH",
"661 644 LINE",
"633 644 LINE",
"543 219 LINE SMOOTH",
"514 82 OFFCURVE",
"426 16 OFFCURVE",
"275 16 CURVE SMOOTH",
"124 16 OFFCURVE",
"63 78 OFFCURVE",
"93 219 CURVE SMOOTH",
"183 644 LINE",
"155 644 LINE",
"68 231 LINE SMOOTH",
"34 74 OFFCURVE",
"96 -10 OFFCURVE",
"269 -10 CURVE SMOOTH"
);
},
{
closed = 1;
nodes = (
"462 688 OFFCURVE",
"512 730 OFFCURVE",
"524 783 CURVE",
"497 783 LINE",
"488 743 OFFCURVE",
"452 713 OFFCURVE",
"411 713 CURVE SMOOTH",
"371 713 OFFCURVE",
"347 743 OFFCURVE",
"356 783 CURVE",
"333 783 LINE",
"321 730 OFFCURVE",
"355 688 OFFCURVE",
"408 688 CURVE SMOOTH"
);
}
);
width = 656;
}
);
leftKerningGroup = U;
note = Ubreve;
rightKerningGroup = U;
unicode = 016C;
},
{
glyphname = Ucaron;
lastChange = "2015-11-26 12:45:05 +0000";
layers = (
{
layerId = "45AE5D37-AE90-4B36-85E4-274E7BAA8508";
name = "Light Italic";
paths = (
{
closed = 1;
nodes = (
"454 -10 OFFCURVE",
"540 72 OFFCURVE",
"574 231 CURVE SMOOTH",
"661 644 LINE",
"633 644 LINE",
"543 219 LINE SMOOTH",
"514 82 OFFCURVE",
"426 16 OFFCURVE",
"275 16 CURVE SMOOTH",
"124 16 OFFCURVE",
"63 78 OFFCURVE",
"93 219 CURVE SMOOTH",
"183 644 LINE",
"155 644 LINE",
"68 231 LINE SMOOTH",
"34 74 OFFCURVE",
"96 -10 OFFCURVE",
"269 -10 CURVE SMOOTH"
);
},
{
closed = 1;
nodes = (
"433 688 LINE",
"554 810 LINE",
"523 810 LINE",
"420 706 LINE",
"361 810 LINE",
"334 810 LINE",
"403 688 LINE"
);
}
);
width = 656;
}
);
leftKerningGroup = U;
note = Ucaron;
rightKerningGroup = U;
unicode = 01D3;
},
{
glyphname = Ucircumflex;
lastChange = "2015-11-26 12:45:06 +0000";
layers = (
{
layerId = "45AE5D37-AE90-4B36-85E4-274E7BAA8508";
name = "Light Italic";
paths = (
{
closed = 1;
nodes = (
"454 -10 OFFCURVE",
"540 72 OFFCURVE",
"574 231 CURVE SMOOTH",
"661 644 LINE",
"633 644 LINE",
"543 219 LINE SMOOTH",
"514 82 OFFCURVE",
"426 16 OFFCURVE",
"275 16 CURVE SMOOTH",
"124 16 OFFCURVE",
"63 78 OFFCURVE",
"93 219 CURVE SMOOTH",
"183 644 LINE",
"155 644 LINE",
"68 231 LINE SMOOTH",
"34 74 OFFCURVE",
"96 -10 OFFCURVE",
"269 -10 CURVE SMOOTH"
);
},
{
closed = 1;
nodes = (
"339 688 LINE",
"442 792 LINE",
"501 688 LINE",
"528 688 LINE",
"459 810 LINE",
"429 810 LINE",
"309 688 LINE"
);
}
);
width = 656;
}
);
leftKerningGroup = U;
note = Ucircumflex;
rightKerningGroup = U;
unicode = 00DB;
},
{
glyphname = Udieresis;
lastChange = "2015-11-26 12:45:04 +0000";
layers = (
{
layerId = "45AE5D37-AE90-4B36-85E4-274E7BAA8508";
name = "Light Italic";
paths = (
{
closed = 1;
nodes = (
"454 -10 OFFCURVE",
"540 72 OFFCURVE",
"574 231 CURVE SMOOTH",
"661 644 LINE",
"633 644 LINE",
"543 219 LINE SMOOTH",
"514 82 OFFCURVE",
"426 16 OFFCURVE",
"275 16 CURVE SMOOTH",
"124 16 OFFCURVE",
"63 78 OFFCURVE",
"93 219 CURVE SMOOTH",
"183 644 LINE",
"155 644 LINE",
"68 231 LINE SMOOTH",
"34 74 OFFCURVE",
"96 -10 OFFCURVE",
"269 -10 CURVE SMOOTH"
);
},
{
closed = 1;
nodes = (
"363 718 LINE",
"370 753 LINE",
"335 753 LINE",
"328 718 LINE"
);
},
{
closed = 1;
nodes = (
"520 718 LINE",
"527 753 LINE",
"492 753 LINE",
"485 718 LINE"
);
}
);
width = 656;
}
);
leftKerningGroup = U;
note = Udieresis;
rightKerningGroup = U;
unicode = 00DC;
},
{
glyphname = Udieresisacute;
lastChange = "2015-11-26 12:45:04 +0000";
layers = (
{
layerId = "45AE5D37-AE90-4B36-85E4-274E7BAA8508";
name = "Light Italic";
paths = (
{
closed = 1;
nodes = (
"454 -10 OFFCURVE",
"540 72 OFFCURVE",
"574 231 CURVE SMOOTH",
"661 644 LINE",
"633 644 LINE",
"543 219 LINE SMOOTH",
"514 82 OFFCURVE",
"426 16 OFFCURVE",
"275 16 CURVE SMOOTH",
"124 16 OFFCURVE",
"63 78 OFFCURVE",
"93 219 CURVE SMOOTH",
"183 644 LINE",
"155 644 LINE",
"68 231 LINE SMOOTH",
"34 74 OFFCURVE",
"96 -10 OFFCURVE",
"269 -10 CURVE SMOOTH"
);
},
{
closed = 1;
nodes = (
"357 688 LINE",
"364 723 LINE",
"329 723 LINE",
"322 688 LINE"
);
},
{
closed = 1;
nodes = (
"514 688 LINE",
"521 723 LINE",
"486 723 LINE",
"479 688 LINE"
);
},
{
closed = 1;
nodes = (
"437 758 LINE",
"525 867 LINE",
"496 867 LINE",
"415 758 LINE"
);
}
);
width = 656;
}
);
leftKerningGroup = U;
note = Udieresisacute;
rightKerningGroup = U;
unicode = 01D7;
},
{
glyphname = Udieresiscaron;
lastChange = "2015-11-26 12:45:06 +0000";
layers = (
{
layerId = "45AE5D37-AE90-4B36-85E4-274E7BAA8508";
name = "Light Italic";
paths = (
{
closed = 1;
nodes = (
"454 -10 OFFCURVE",
"540 72 OFFCURVE",
"574 231 CURVE SMOOTH",
"661 644 LINE",
"633 644 LINE",
"543 219 LINE SMOOTH",
"514 82 OFFCURVE",
"426 16 OFFCURVE",
"275 16 CURVE SMOOTH",
"124 16 OFFCURVE",
"63 78 OFFCURVE",
"93 219 CURVE SMOOTH",
"183 644 LINE",
"155 644 LINE",
"68 231 LINE SMOOTH",
"34 74 OFFCURVE",
"96 -10 OFFCURVE",
"269 -10 CURVE SMOOTH"
);
},
{
closed = 1;
nodes = (
"358 688 LINE",
"365 723 LINE",
"330 723 LINE",
"323 688 LINE"
);
},
{
closed = 1;
nodes = (
"514 688 LINE",
"521 723 LINE",
"487 723 LINE",
"480 688 LINE"
);
},
{
closed = 1;
nodes = (
"448 758 LINE",
"564 860 LINE",
"535 860 LINE",
"437 774 LINE",
"374 860 LINE",
"345 860 LINE",
"418 758 LINE"
);
}
);
width = 656;
}
);
leftKerningGroup = U;
note = Udieresiscaron;
rightKerningGroup = U;
unicode = 01D9;
},
{
glyphname = Udieresisgrave;
lastChange = "2015-11-26 12:45:07 +0000";
layers = (
{
layerId = "45AE5D37-AE90-4B36-85E4-274E7BAA8508";
name = "Light Italic";
paths = (
{
closed = 1;
nodes = (
"454 -10 OFFCURVE",
"540 72 OFFCURVE",
"574 231 CURVE SMOOTH",
"661 644 LINE",
"633 644 LINE",
"543 219 LINE SMOOTH",
"514 82 OFFCURVE",
"426 16 OFFCURVE",
"275 16 CURVE SMOOTH",
"124 16 OFFCURVE",
"63 78 OFFCURVE",
"93 219 CURVE SMOOTH",
"183 644 LINE",
"155 644 LINE",
"68 231 LINE SMOOTH",
"34 74 OFFCURVE",
"96 -10 OFFCURVE",
"269 -10 CURVE SMOOTH"
);
},
{
closed = 1;
nodes = (
"357 688 LINE",
"364 723 LINE",
"329 723 LINE",
"322 688 LINE"
);
},
{
closed = 1;
nodes = (
"514 688 LINE",
"521 723 LINE",
"486 723 LINE",
"479 688 LINE"
);
},
{
closed = 1;
nodes = (
"449 758 LINE",
"416 867 LINE",
"387 867 LINE",
"427 758 LINE"
);
}
);
width = 656;
}
);
leftKerningGroup = U;
note = Udieresisgrave;
rightKerningGroup = U;
unicode = 01DB;
},
{
glyphname = Udieresismacron;
lastChange = "2015-11-26 12:45:03 +0000";
layers = (
{
layerId = "45AE5D37-AE90-4B36-85E4-274E7BAA8508";
name = "Light Italic";
paths = (
{
closed = 1;
nodes = (
"454 -10 OFFCURVE",
"540 72 OFFCURVE",
"574 231 CURVE SMOOTH",
"661 644 LINE",
"633 644 LINE",
"543 219 LINE SMOOTH",
"514 82 OFFCURVE",
"426 16 OFFCURVE",
"275 16 CURVE SMOOTH",
"124 16 OFFCURVE",
"63 78 OFFCURVE",
"93 219 CURVE SMOOTH",
"183 644 LINE",
"155 644 LINE",
"68 231 LINE SMOOTH",
"34 74 OFFCURVE",
"96 -10 OFFCURVE",
"269 -10 CURVE SMOOTH"
);
},
{
closed = 1;
nodes = (
"363 718 LINE",
"370 753 LINE",
"335 753 LINE",
"328 718 LINE"
);
},
{
closed = 1;
nodes = (
"520 718 LINE",
"527 753 LINE",
"492 753 LINE",
"485 718 LINE"
);
},
{
closed = 1;
nodes = (
"582 833 LINE",
"588 858 LINE",
"322 858 LINE",
"316 833 LINE"
);
}
);
width = 656;
}
);
leftKerningGroup = U;
note = Udieresismacron;
rightKerningGroup = U;
unicode = 01D5;
},
{
glyphname = Udotbelow;
lastChange = "2015-11-26 12:45:03 +0000";
layers = (
{
layerId = "45AE5D37-AE90-4B36-85E4-274E7BAA8508";
name = "Light Italic";
paths = (
{
closed = 1;
nodes = (
"454 -10 OFFCURVE",
"540 72 OFFCURVE",
"574 231 CURVE SMOOTH",
"661 644 LINE",
"633 644 LINE",
"543 219 LINE SMOOTH",
"514 82 OFFCURVE",
"426 16 OFFCURVE",
"275 16 CURVE SMOOTH",
"124 16 OFFCURVE",
"63 78 OFFCURVE",
"93 219 CURVE SMOOTH",
"183 644 LINE",
"155 644 LINE",
"68 231 LINE SMOOTH",
"34 74 OFFCURVE",
"96 -10 OFFCURVE",
"269 -10 CURVE SMOOTH"
);
},
{
closed = 1;
nodes = (
"262 -139 LINE",
"270 -102 LINE",
"233 -102 LINE",
"225 -139 LINE"
);
}
);
width = 656;
}
);
leftKerningGroup = U;
note = Udotbelow;
rightKerningGroup = U;
unicode = 1EE4;
},
{
glyphname = Ugrave;
lastChange = "2015-11-26 12:45:06 +0000";
layers = (
{
layerId = "45AE5D37-AE90-4B36-85E4-274E7BAA8508";
name = "Light Italic";
paths = (
{
closed = 1;
nodes = (
"454 -10 OFFCURVE",
"540 72 OFFCURVE",
"574 231 CURVE SMOOTH",
"661 644 LINE",
"633 644 LINE",
"543 219 LINE SMOOTH",
"514 82 OFFCURVE",
"426 16 OFFCURVE",
"275 16 CURVE SMOOTH",
"124 16 OFFCURVE",
"63 78 OFFCURVE",
"93 219 CURVE SMOOTH",
"183 644 LINE",
"155 644 LINE",
"68 231 LINE SMOOTH",
"34 74 OFFCURVE",
"96 -10 OFFCURVE",
"269 -10 CURVE SMOOTH"
);
},
{
closed = 1;
nodes = (
"453 688 LINE",
"422 837 LINE",
"392 837 LINE",
"430 688 LINE"
);
}
);
width = 656;
}
);
leftKerningGroup = U;
note = Ugrave;
rightKerningGroup = U;
unicode = 00D9;
},
{
glyphname = Uhookabove;
lastChange = "2015-11-26 12:45:05 +0000";
layers = (
{
layerId = "45AE5D37-AE90-4B36-85E4-274E7BAA8508";
name = "Light Italic";
paths = (
{
closed = 1;
nodes = (
"454 -10 OFFCURVE",
"540 72 OFFCURVE",
"574 231 CURVE SMOOTH",
"661 644 LINE",
"633 644 LINE",
"543 219 LINE SMOOTH",
"514 82 OFFCURVE",
"426 16 OFFCURVE",
"275 16 CURVE SMOOTH",
"124 16 OFFCURVE",
"63 78 OFFCURVE",
"93 219 CURVE SMOOTH",
"183 644 LINE",
"155 644 LINE",
"68 231 LINE SMOOTH",
"34 74 OFFCURVE",
"96 -10 OFFCURVE",
"269 -10 CURVE SMOOTH"
);
},
{
closed = 1;
nodes = (
"429 688 LINE",
"441 744 LINE",
"513 750 OFFCURVE",
"540 778 OFFCURVE",
"552 830 CURVE SMOOTH",
"563 885 OFFCURVE",
"529 915 OFFCURVE",
"459 915 CURVE SMOOTH",
"439 915 OFFCURVE",
"404 910 OFFCURVE",
"386 903 CURVE",
"381 878 LINE",
"400 885 OFFCURVE",
"430 890 OFFCURVE",
"452 890 CURVE SMOOTH",
"519 890 OFFCURVE",
"535 869 OFFCURVE",
"527 830 CURVE SMOOTH",
"518 789 OFFCURVE",
"503 766 OFFCURVE",
"417 763 CURVE",
"401 688 LINE"
);
}
);
width = 656;
}
);
leftKerningGroup = U;
note = Uhookabove;
rightKerningGroup = U;
unicode = 1EE6;
},
{
glyphname = Uhorn;
lastChange = "2015-11-26 12:45:06 +0000";
layers = (
{
layerId = "45AE5D37-AE90-4B36-85E4-274E7BAA8508";
name = "Light Italic";
paths = (
{
closed = 1;
nodes = (
"447 -10 OFFCURVE",
"540 70 OFFCURVE",
"574 231 CURVE SMOOTH",
"638 534 LINE",
"729 535 OFFCURVE",
"790 566 OFFCURVE",
"816 688 CURVE",
"791 688 LINE",
"770 589 OFFCURVE",
"729 559 OFFCURVE",
"643 559 CURVE",
"661 644 LINE",
"633 644 LINE",
"543 219 LINE SMOOTH",
"514 82 OFFCURVE",
"421 16 OFFCURVE",
"275 16 CURVE SMOOTH",
"125 16 OFFCURVE",
"64 82 OFFCURVE",
"93 219 CURVE SMOOTH",
"183 644 LINE",
"155 644 LINE",
"68 231 LINE SMOOTH",
"34 74 OFFCURVE",
"101 -10 OFFCURVE",
"269 -10 CURVE SMOOTH"
);
}
);
width = 766;
}
);
leftKerningGroup = U;
note = Uhorn;
rightKerningGroup = U;
unicode = 01AF;
},
{
glyphname = Uhornacute;
lastChange = "2015-11-26 12:45:07 +0000";
layers = (
{
layerId = "45AE5D37-AE90-4B36-85E4-274E7BAA8508";
name = "Light Italic";
paths = (
{
closed = 1;
nodes = (
"447 -10 OFFCURVE",
"540 70 OFFCURVE",
"574 231 CURVE SMOOTH",
"638 534 LINE",
"729 535 OFFCURVE",
"790 566 OFFCURVE",
"816 688 CURVE",
"791 688 LINE",
"770 589 OFFCURVE",
"729 559 OFFCURVE",
"643 559 CURVE",
"661 644 LINE",
"633 644 LINE",
"543 219 LINE SMOOTH",
"514 82 OFFCURVE",
"421 16 OFFCURVE",
"275 16 CURVE SMOOTH",
"125 16 OFFCURVE",
"64 82 OFFCURVE",
"93 219 CURVE SMOOTH",
"183 644 LINE",
"155 644 LINE",
"68 231 LINE SMOOTH",
"34 74 OFFCURVE",
"101 -10 OFFCURVE",
"269 -10 CURVE SMOOTH"
);
},
{
closed = 1;
nodes = (
"441 688 LINE",
"543 837 LINE",
"513 837 LINE",
"418 688 LINE"
);
}
);
width = 766;
}
);
leftKerningGroup = U;
note = Uhornacute;
rightKerningGroup = U;
unicode = 1EE8;
},
{
glyphname = Uhorndotbelow;
lastChange = "2015-11-26 12:45:05 +0000";
layers = (
{
layerId = "45AE5D37-AE90-4B36-85E4-274E7BAA8508";
name = "Light Italic";
paths = (
{
closed = 1;
nodes = (
"447 -10 OFFCURVE",
"540 70 OFFCURVE",
"574 231 CURVE SMOOTH",
"638 534 LINE",
"729 535 OFFCURVE",
"790 566 OFFCURVE",
"816 688 CURVE",
"791 688 LINE",
"770 589 OFFCURVE",
"729 559 OFFCURVE",
"643 559 CURVE",
"661 644 LINE",
"633 644 LINE",
"543 219 LINE SMOOTH",
"514 82 OFFCURVE",
"421 16 OFFCURVE",
"275 16 CURVE SMOOTH",
"125 16 OFFCURVE",
"64 82 OFFCURVE",
"93 219 CURVE SMOOTH",
"183 644 LINE",
"155 644 LINE",
"68 231 LINE SMOOTH",
"34 74 OFFCURVE",
"101 -10 OFFCURVE",
"269 -10 CURVE SMOOTH"
);
},
{
closed = 1;
nodes = (
"258 -139 LINE",
"266 -102 LINE",
"229 -102 LINE",
"221 -139 LINE"
);
}
);
width = 766;
}
);
leftKerningGroup = U;
note = Uhorndotbelow;
rightKerningGroup = U;
unicode = 1EF0;
},
{
glyphname = Uhorngrave;
lastChange = "2015-11-26 12:45:07 +0000";
layers = (
{
layerId = "45AE5D37-AE90-4B36-85E4-274E7BAA8508";
name = "Light Italic";
paths = (
{
closed = 1;
nodes = (
"447 -10 OFFCURVE",
"540 70 OFFCURVE",
"574 231 CURVE SMOOTH",
"638 534 LINE",
"729 535 OFFCURVE",
"790 566 OFFCURVE",
"816 688 CURVE",
"791 688 LINE",
"770 589 OFFCURVE",
"729 559 OFFCURVE",
"643 559 CURVE",
"661 644 LINE",
"633 644 LINE",
"543 219 LINE SMOOTH",
"514 82 OFFCURVE",
"421 16 OFFCURVE",
"275 16 CURVE SMOOTH",
"125 16 OFFCURVE",
"64 82 OFFCURVE",
"93 219 CURVE SMOOTH",
"183 644 LINE",
"155 644 LINE",
"68 231 LINE SMOOTH",
"34 74 OFFCURVE",
"101 -10 OFFCURVE",
"269 -10 CURVE SMOOTH"
);
},
{
closed = 1;
nodes = (
"440 688 LINE",
"409 837 LINE",
"379 837 LINE",
"417 688 LINE"
);
}
);
width = 766;
}
);
leftKerningGroup = U;
note = Uhorngrave;
rightKerningGroup = U;
unicode = 1EEA;
},
{
glyphname = Uhornhookabove;
lastChange = "2015-11-26 12:45:04 +0000";
layers = (
{
layerId = "45AE5D37-AE90-4B36-85E4-274E7BAA8508";
name = "Light Italic";
paths = (
{
closed = 1;
nodes = (
"447 -10 OFFCURVE",
"540 70 OFFCURVE",
"574 231 CURVE SMOOTH",
"638 534 LINE",
"729 535 OFFCURVE",
"790 566 OFFCURVE",
"816 688 CURVE",
"791 688 LINE",
"770 589 OFFCURVE",
"729 559 OFFCURVE",
"643 559 CURVE",
"661 644 LINE",
"633 644 LINE",
"543 219 LINE SMOOTH",
"514 82 OFFCURVE",
"421 16 OFFCURVE",
"275 16 CURVE SMOOTH",
"125 16 OFFCURVE",
"64 82 OFFCURVE",
"93 219 CURVE SMOOTH",
"183 644 LINE",
"155 644 LINE",
"68 231 LINE SMOOTH",
"34 74 OFFCURVE",
"101 -10 OFFCURVE",
"269 -10 CURVE SMOOTH"
);
},
{
closed = 1;
nodes = (
"440 688 LINE",
"452 744 LINE",
"524 750 OFFCURVE",
"551 778 OFFCURVE",
"563 830 CURVE SMOOTH",
"574 885 OFFCURVE",
"540 915 OFFCURVE",
"470 915 CURVE SMOOTH",
"450 915 OFFCURVE",
"415 910 OFFCURVE",
"397 903 CURVE",
"392 878 LINE",
"411 885 OFFCURVE",
"441 890 OFFCURVE",
"463 890 CURVE SMOOTH",
"530 890 OFFCURVE",
"546 869 OFFCURVE",
"538 830 CURVE SMOOTH",
"529 789 OFFCURVE",
"514 766 OFFCURVE",
"428 763 CURVE",
"412 688 LINE"
);
}
);
width = 766;
}
);
leftKerningGroup = U;
note = Uhornhookabove;
rightKerningGroup = U;
unicode = 1EEC;
},
{
glyphname = Uhorntilde;
lastChange = "2015-11-26 12:45:06 +0000";
layers = (
{
layerId = "45AE5D37-AE90-4B36-85E4-274E7BAA8508";
name = "Light Italic";
paths = (
{
closed = 1;
nodes = (
"447 -10 OFFCURVE",
"540 70 OFFCURVE",
"574 231 CURVE SMOOTH",
"638 534 LINE",
"729 535 OFFCURVE",
"790 566 OFFCURVE",
"816 688 CURVE",
"791 688 LINE",
"770 589 OFFCURVE",
"729 559 OFFCURVE",
"643 559 CURVE",
"661 644 LINE",
"633 644 LINE",
"543 219 LINE SMOOTH",
"514 82 OFFCURVE",
"421 16 OFFCURVE",
"275 16 CURVE SMOOTH",
"125 16 OFFCURVE",
"64 82 OFFCURVE",
"93 219 CURVE SMOOTH",
"183 644 LINE",
"155 644 LINE",
"68 231 LINE SMOOTH",
"34 74 OFFCURVE",
"101 -10 OFFCURVE",
"269 -10 CURVE SMOOTH"
);
},
{
closed = 1;
nodes = (
"518 718 OFFCURVE",
"541 728 OFFCURVE",
"558 746 CURVE",
"565 777 LINE",
"541 751 OFFCURVE",
"518 743 OFFCURVE",
"489 743 CURVE SMOOTH",
"446 743 OFFCURVE",
"425 779 OFFCURVE",
"376 779 CURVE SMOOTH",
"348 779 OFFCURVE",
"317 769 OFFCURVE",
"298 751 CURVE",
"292 720 LINE",
"319 747 OFFCURVE",
"346 754 OFFCURVE",
"374 754 CURVE SMOOTH",
"411 754 OFFCURVE",
"441 718 OFFCURVE",
"487 718 CURVE SMOOTH"
);
}
);
width = 766;
}
);
leftKerningGroup = U;
note = Uhorntilde;
rightKerningGroup = U;
unicode = 1EEE;
},
{
glyphname = Uhungarumlaut;
lastChange = "2015-11-26 12:45:04 +0000";
layers = (
{
layerId = "45AE5D37-AE90-4B36-85E4-274E7BAA8508";
name = "Light Italic";
paths = (
{
closed = 1;
nodes = (
"454 -10 OFFCURVE",
"540 72 OFFCURVE",
"574 231 CURVE SMOOTH",
"661 644 LINE",
"633 644 LINE",
"543 219 LINE SMOOTH",
"514 82 OFFCURVE",
"426 16 OFFCURVE",
"275 16 CURVE SMOOTH",
"124 16 OFFCURVE",
"63 78 OFFCURVE",
"93 219 CURVE SMOOTH",
"183 644 LINE",
"155 644 LINE",
"68 231 LINE SMOOTH",
"34 74 OFFCURVE",
"96 -10 OFFCURVE",
"269 -10 CURVE SMOOTH"
);
},
{
closed = 1;
nodes = (
"304 688 LINE",
"400 817 LINE",
"371 817 LINE",
"282 688 LINE"
);
},
{
closed = 1;
nodes = (
"495 688 LINE",
"592 817 LINE",
"563 817 LINE",
"473 688 LINE"
);
}
);
width = 656;
}
);
leftKerningGroup = U;
note = Uhungarumlaut;
rightKerningGroup = U;
unicode = 0170;
},
{
glyphname = Umacron;
lastChange = "2015-11-26 12:45:06 +0000";
layers = (
{
layerId = "45AE5D37-AE90-4B36-85E4-274E7BAA8508";
name = "Light Italic";
paths = (
{
closed = 1;
nodes = (
"454 -10 OFFCURVE",
"540 72 OFFCURVE",
"574 231 CURVE SMOOTH",
"661 644 LINE",
"633 644 LINE",
"543 219 LINE SMOOTH",
"514 82 OFFCURVE",
"426 16 OFFCURVE",
"275 16 CURVE SMOOTH",
"124 16 OFFCURVE",
"63 78 OFFCURVE",
"93 219 CURVE SMOOTH",
"183 644 LINE",
"155 644 LINE",
"68 231 LINE SMOOTH",
"34 74 OFFCURVE",
"96 -10 OFFCURVE",
"269 -10 CURVE SMOOTH"
);
},
{
closed = 1;
nodes = (
"557 718 LINE",
"563 743 LINE",
"297 743 LINE",
"291 718 LINE"
);
}
);
width = 656;
}
);
leftKerningGroup = U;
note = Umacron;
rightKerningGroup = U;
unicode = 016A;
},
{
glyphname = Uogonek;
lastChange = "2015-11-26 12:45:07 +0000";
layers = (
{
layerId = "45AE5D37-AE90-4B36-85E4-274E7BAA8508";
name = "Light Italic";
paths = (
{
closed = 1;
nodes = (
"252 -220 OFFCURVE",
"272 -217 OFFCURVE",
"288 -209 CURVE",
"293 -184 LINE",
"280 -191 OFFCURVE",
"259 -195 OFFCURVE",
"242 -195 CURVE SMOOTH",
"198 -195 OFFCURVE",
"190 -176 OFFCURVE",
"199 -135 CURVE SMOOTH",
"208 -92 OFFCURVE",
"237 -47 OFFCURVE",
"289 -9 CURVE",
"460 -3 OFFCURVE",
"541 78 OFFCURVE",
"574 231 CURVE SMOOTH",
"661 644 LINE",
"633 644 LINE",
"543 219 LINE SMOOTH",
"514 82 OFFCURVE",
"426 16 OFFCURVE",
"275 16 CURVE SMOOTH",
"124 16 OFFCURVE",
"63 78 OFFCURVE",
"93 219 CURVE SMOOTH",
"183 644 LINE",
"155 644 LINE",
"68 231 LINE SMOOTH",
"34 76 OFFCURVE",
"94 -7 OFFCURVE",
"260 -10 CURVE",
"220 -39 OFFCURVE",
"182 -86 OFFCURVE",
"172 -135 CURVE SMOOTH",
"158 -198 OFFCURVE",
"192 -220 OFFCURVE",
"237 -220 CURVE SMOOTH"
);
}
);
width = 656;
}
);
leftKerningGroup = U;
note = Uogonek;
rightKerningGroup = U;
unicode = 0172;
},
{
glyphname = Uring;
lastChange = "2015-11-26 12:45:07 +0000";
layers = (
{
layerId = "45AE5D37-AE90-4B36-85E4-274E7BAA8508";
name = "Light Italic";
paths = (
{
closed = 1;
nodes = (
"454 -10 OFFCURVE",
"540 72 OFFCURVE",
"574 231 CURVE SMOOTH",
"661 644 LINE",
"633 644 LINE",
"543 219 LINE SMOOTH",
"514 82 OFFCURVE",
"426 16 OFFCURVE",
"275 16 CURVE SMOOTH",
"124 16 OFFCURVE",
"63 78 OFFCURVE",
"93 219 CURVE SMOOTH",
"183 644 LINE",
"155 644 LINE",
"68 231 LINE SMOOTH",
"34 74 OFFCURVE",
"96 -10 OFFCURVE",
"269 -10 CURVE SMOOTH"
);
},
{
closed = 1;
nodes = (
"476 688 OFFCURVE",
"523 730 OFFCURVE",
"534 783 CURVE SMOOTH",
"545 837 OFFCURVE",
"515 879 OFFCURVE",
"458 879 CURVE SMOOTH",
"401 879 OFFCURVE",
"354 837 OFFCURVE",
"343 783 CURVE SMOOTH",
"332 730 OFFCURVE",
"361 688 OFFCURVE",
"418 688 CURVE SMOOTH"
);
},
{
closed = 1;
nodes = (
"372 713 OFFCURVE",
"359 743 OFFCURVE",
"368 783 CURVE SMOOTH",
"376 824 OFFCURVE",
"413 854 OFFCURVE",
"453 854 CURVE SMOOTH",
"507 854 OFFCURVE",
"517 824 OFFCURVE",
"509 783 CURVE SMOOTH",
"500 743 OFFCURVE",
"464 713 OFFCURVE",
"423 713 CURVE SMOOTH"
);
}
);
width = 656;
}
);
leftKerningGroup = U;
note = Uring;
rightKerningGroup = U;
unicode = 016E;
},
{
glyphname = Utilde;
lastChange = "2015-11-26 12:45:05 +0000";
layers = (
{
layerId = "45AE5D37-AE90-4B36-85E4-274E7BAA8508";
name = "Light Italic";
paths = (
{
closed = 1;
nodes = (
"454 -10 OFFCURVE",
"540 72 OFFCURVE",
"574 231 CURVE SMOOTH",
"661 644 LINE",
"633 644 LINE",
"543 219 LINE SMOOTH",
"514 82 OFFCURVE",
"426 16 OFFCURVE",
"275 16 CURVE SMOOTH",
"124 16 OFFCURVE",
"63 78 OFFCURVE",
"93 219 CURVE SMOOTH",
"183 644 LINE",
"155 644 LINE",
"68 231 LINE SMOOTH",
"34 74 OFFCURVE",
"96 -10 OFFCURVE",
"269 -10 CURVE SMOOTH"
);
},
{
closed = 1;
nodes = (
"521 718 OFFCURVE",
"544 728 OFFCURVE",
"561 746 CURVE",
"568 777 LINE",
"544 751 OFFCURVE",
"521 743 OFFCURVE",
"492 743 CURVE SMOOTH",
"449 743 OFFCURVE",
"428 779 OFFCURVE",
"379 779 CURVE SMOOTH",
"351 779 OFFCURVE",
"320 769 OFFCURVE",
"301 751 CURVE",
"295 720 LINE",
"322 747 OFFCURVE",
"349 754 OFFCURVE",
"377 754 CURVE SMOOTH",
"414 754 OFFCURVE",
"444 718 OFFCURVE",
"490 718 CURVE SMOOTH"
);
}
);
width = 656;
}
);
leftKerningGroup = U;
note = Utilde;
rightKerningGroup = U;
unicode = 0168;
},
{
glyphname = V;
lastChange = "2015-11-26 12:45:03 +0000";
layers = (
{
layerId = "45AE5D37-AE90-4B36-85E4-274E7BAA8508";
name = "Light Italic";
paths = (
{
closed = 1;
nodes = (
"292 0 LINE",
"670 644 LINE",
"639 644 LINE",
"270 16 LINE",
"167 644 LINE",
"140 644 LINE",
"247 0 LINE"
);
}
);
width = 650;
}
);
note = V;
unicode = 0056;
},
{
glyphname = W;
lastChange = "2015-11-26 12:45:06 +0000";
layers = (
{
layerId = "45AE5D37-AE90-4B36-85E4-274E7BAA8508";
name = "Light Italic";
paths = (
{
closed = 1;
nodes = (
"202 0 LINE",
"494 570 LINE",
"532 0 LINE",
"575 0 LINE",
"860 644 LINE",
"832 644 LINE",
"555 20 LINE",
"511 644 LINE",
"487 644 LINE",
"475 586 LINE",
"182 20 LINE",
"169 644 LINE",
"140 644 LINE",
"154 0 LINE"
);
}
);
width = 840;
}
);
leftKerningGroup = W;
note = W;
rightKerningGroup = W;
unicode = 0057;
},
{
glyphname = Wacute;
lastChange = "2015-11-26 12:45:05 +0000";
layers = (
{
layerId = "45AE5D37-AE90-4B36-85E4-274E7BAA8508";
name = "Light Italic";
paths = (
{
closed = 1;
nodes = (
"202 0 LINE",
"494 570 LINE",
"532 0 LINE",
"575 0 LINE",
"860 644 LINE",
"832 644 LINE",
"555 20 LINE",
"511 644 LINE",
"487 644 LINE",
"475 586 LINE",
"182 20 LINE",
"169 644 LINE",
"140 644 LINE",
"154 0 LINE"
);
},
{
closed = 1;
nodes = (
"534 688 LINE",
"636 837 LINE",
"606 837 LINE",
"511 688 LINE"
);
}
);
width = 840;
}
);
leftKerningGroup = W;
note = Wacute;
rightKerningGroup = W;
unicode = 1E82;
},
{
glyphname = Wcircumflex;
lastChange = "2015-11-26 12:45:05 +0000";
layers = (
{
layerId = "45AE5D37-AE90-4B36-85E4-274E7BAA8508";
name = "Light Italic";
paths = (
{
closed = 1;
nodes = (
"202 0 LINE",
"494 570 LINE",
"532 0 LINE",
"575 0 LINE",
"860 644 LINE",
"832 644 LINE",
"555 20 LINE",
"511 644 LINE",
"487 644 LINE",
"475 586 LINE",
"182 20 LINE",
"169 644 LINE",
"140 644 LINE",
"154 0 LINE"
);
},
{
closed = 1;
nodes = (
"438 688 LINE",
"541 792 LINE",
"600 688 LINE",
"627 688 LINE",
"558 810 LINE",
"528 810 LINE",
"408 688 LINE"
);
}
);
width = 840;
}
);
leftKerningGroup = W;
note = Wcircumflex;
rightKerningGroup = W;
unicode = 0174;
},
{
glyphname = Wdieresis;
lastChange = "2015-11-26 12:45:05 +0000";
layers = (
{
layerId = "45AE5D37-AE90-4B36-85E4-274E7BAA8508";
name = "Light Italic";
paths = (
{
closed = 1;
nodes = (
"202 0 LINE",
"494 570 LINE",
"532 0 LINE",
"575 0 LINE",
"860 644 LINE",
"832 644 LINE",
"555 20 LINE",
"511 644 LINE",
"487 644 LINE",
"475 586 LINE",
"182 20 LINE",
"169 644 LINE",
"140 644 LINE",
"154 0 LINE"
);
},
{
closed = 1;
nodes = (
"462 718 LINE",
"469 753 LINE",
"434 753 LINE",
"427 718 LINE"
);
},
{
closed = 1;
nodes = (
"619 718 LINE",
"626 753 LINE",
"591 753 LINE",
"584 718 LINE"
);
}
);
width = 840;
}
);
leftKerningGroup = W;
note = Wdieresis;
rightKerningGroup = W;
unicode = 1E84;
},
{
glyphname = Wgrave;
lastChange = "2015-11-26 12:45:05 +0000";
layers = (
{
layerId = "45AE5D37-AE90-4B36-85E4-274E7BAA8508";
name = "Light Italic";
paths = (
{
closed = 1;
nodes = (
"202 0 LINE",
"494 570 LINE",
"532 0 LINE",
"575 0 LINE",
"860 644 LINE",
"832 644 LINE",
"555 20 LINE",
"511 644 LINE",
"487 644 LINE",
"475 586 LINE",
"182 20 LINE",
"169 644 LINE",
"140 644 LINE",
"154 0 LINE"
);
},
{
closed = 1;
nodes = (
"522 688 LINE",
"491 837 LINE",
"461 837 LINE",
"499 688 LINE"
);
}
);
width = 840;
}
);
leftKerningGroup = W;
note = Wgrave;
rightKerningGroup = W;
unicode = 1E80;
},
{
glyphname = X;
lastChange = "2015-11-26 12:45:06 +0000";
layers = (
{
layerId = "45AE5D37-AE90-4B36-85E4-274E7BAA8508";
name = "Light Italic";
paths = (
{
closed = 1;
nodes = (
"33 0 LINE",
"305 299 LINE",
"451 0 LINE",
"480 0 LINE",
"325 317 LINE",
"616 644 LINE",
"587 644 LINE",
"312 333 LINE",
"169 644 LINE",
"140 644 LINE",
"292 317 LINE",
"4 0 LINE"
);
}
);
width = 596;
}
);
note = X;
unicode = 0058;
},
{
glyphname = Y;
lastChange = "2015-11-26 12:45:05 +0000";
layers = (
{
layerId = "45AE5D37-AE90-4B36-85E4-274E7BAA8508";
name = "Light Italic";
paths = (
{
closed = 1;
nodes = (
"261 0 LINE",
"312 242 LINE",
"626 644 LINE",
"595 644 LINE",
"301 268 LINE",
"167 644 LINE",
"140 644 LINE",
"284 242 LINE",
"233 0 LINE"
);
}
);
width = 606;
}
);
leftKerningGroup = Y;
note = Y;
rightKerningGroup = Y;
unicode = 0059;
},
{
glyphname = Yacute;
lastChange = "2015-11-26 12:45:06 +0000";
layers = (
{
layerId = "45AE5D37-AE90-4B36-85E4-274E7BAA8508";
name = "Light Italic";
paths = (
{
closed = 1;
nodes = (
"261 0 LINE",
"312 242 LINE",
"626 644 LINE",
"595 644 LINE",
"301 268 LINE",
"167 644 LINE",
"140 644 LINE",
"284 242 LINE",
"233 0 LINE"
);
},
{
closed = 1;
nodes = (
"390 688 LINE",
"492 837 LINE",
"462 837 LINE",
"367 688 LINE"
);
}
);
width = 606;
}
);
leftKerningGroup = Y;
note = Yacute;
rightKerningGroup = Y;
unicode = 00DD;
},
{
glyphname = Ycircumflex;
lastChange = "2015-11-26 12:45:07 +0000";
layers = (
{
layerId = "45AE5D37-AE90-4B36-85E4-274E7BAA8508";
name = "Light Italic";
paths = (
{
closed = 1;
nodes = (
"261 0 LINE",
"312 242 LINE",
"626 644 LINE",
"595 644 LINE",
"301 268 LINE",
"167 644 LINE",
"140 644 LINE",
"284 242 LINE",
"233 0 LINE"
);
},
{
closed = 1;
nodes = (
"314 688 LINE",
"417 792 LINE",
"476 688 LINE",
"503 688 LINE",
"434 810 LINE",
"404 810 LINE",
"284 688 LINE"
);
}
);
width = 606;
}
);
leftKerningGroup = Y;
note = Ycircumflex;
rightKerningGroup = Y;
unicode = 0176;
},
{
glyphname = Ydieresis;
lastChange = "2015-11-26 12:45:07 +0000";
layers = (
{
layerId = "45AE5D37-AE90-4B36-85E4-274E7BAA8508";
name = "Light Italic";
paths = (
{
closed = 1;
nodes = (
"261 0 LINE",
"312 242 LINE",
"626 644 LINE",
"595 644 LINE",
"301 268 LINE",
"167 644 LINE",
"140 644 LINE",
"284 242 LINE",
"233 0 LINE"
);
},
{
closed = 1;
nodes = (
"338 718 LINE",
"345 753 LINE",
"310 753 LINE",
"303 718 LINE"
);
},
{
closed = 1;
nodes = (
"495 718 LINE",
"502 753 LINE",
"467 753 LINE",
"460 718 LINE"
);
}
);
width = 606;
}
);
leftKerningGroup = Y;
note = Ydieresis;
rightKerningGroup = Y;
unicode = 0178;
},
{
glyphname = Ydotaccent;
lastChange = "2015-11-26 12:45:06 +0000";
layers = (
{
layerId = "45AE5D37-AE90-4B36-85E4-274E7BAA8508";
name = "Light Italic";
paths = (
{
closed = 1;
nodes = (
"261 0 LINE",
"312 242 LINE",
"626 644 LINE",
"595 644 LINE",
"301 268 LINE",
"167 644 LINE",
"140 644 LINE",
"284 242 LINE",
"233 0 LINE"
);
},
{
closed = 1;
nodes = (
"417 718 LINE",
"424 753 LINE",
"389 753 LINE",
"382 718 LINE"
);
}
);
width = 606;
}
);
leftKerningGroup = Y;
note = Ydotaccent;
rightKerningGroup = Y;
unicode = 1E8E;
},
{
glyphname = Ydotbelow;
lastChange = "2015-11-26 12:45:03 +0000";
layers = (
{
layerId = "45AE5D37-AE90-4B36-85E4-274E7BAA8508";
name = "Light Italic";
paths = (
{
closed = 1;
nodes = (
"261 0 LINE",
"312 242 LINE",
"626 644 LINE",
"595 644 LINE",
"301 268 LINE",
"167 644 LINE",
"140 644 LINE",
"284 242 LINE",
"233 0 LINE"
);
},
{
closed = 1;
nodes = (
"241 -119 LINE",
"249 -82 LINE",
"212 -82 LINE",
"204 -119 LINE"
);
}
);
width = 606;
}
);
leftKerningGroup = Y;
note = Ydotbelow;
rightKerningGroup = Y;
unicode = 1EF4;
},
{
glyphname = Ygrave;
lastChange = "2015-11-26 12:45:06 +0000";
layers = (
{
layerId = "45AE5D37-AE90-4B36-85E4-274E7BAA8508";
name = "Light Italic";
paths = (
{
closed = 1;
nodes = (
"261 0 LINE",
"312 242 LINE",
"626 644 LINE",
"595 644 LINE",
"301 268 LINE",
"167 644 LINE",
"140 644 LINE",
"284 242 LINE",
"233 0 LINE"
);
},
{
closed = 1;
nodes = (
"420 688 LINE",
"389 837 LINE",
"359 837 LINE",
"397 688 LINE"
);
}
);
width = 606;
}
);
leftKerningGroup = Y;
note = Ygrave;
rightKerningGroup = Y;
unicode = 1EF2;
},
{
glyphname = Yhookabove;
lastChange = "2015-11-26 12:45:06 +0000";
layers = (
{
layerId = "45AE5D37-AE90-4B36-85E4-274E7BAA8508";
name = "Light Italic";
paths = (
{
closed = 1;
nodes = (
"261 0 LINE",
"312 242 LINE",
"626 644 LINE",
"595 644 LINE",
"301 268 LINE",
"167 644 LINE",
"140 644 LINE",
"284 242 LINE",
"233 0 LINE"
);
},
{
closed = 1;
nodes = (
"394 688 LINE",
"406 744 LINE",
"478 750 OFFCURVE",
"505 778 OFFCURVE",
"517 830 CURVE SMOOTH",
"528 885 OFFCURVE",
"494 915 OFFCURVE",
"424 915 CURVE SMOOTH",
"404 915 OFFCURVE",
"369 910 OFFCURVE",
"351 903 CURVE",
"346 878 LINE",
"365 885 OFFCURVE",
"395 890 OFFCURVE",
"417 890 CURVE SMOOTH",
"484 890 OFFCURVE",
"500 869 OFFCURVE",
"492 830 CURVE SMOOTH",
"483 789 OFFCURVE",
"468 766 OFFCURVE",
"382 763 CURVE",
"366 688 LINE"
);
}
);
width = 606;
}
);
leftKerningGroup = Y;
note = Yhookabove;
rightKerningGroup = Y;
unicode = 1EF6;
},
{
glyphname = Ytilde;
lastChange = "2015-11-26 12:45:05 +0000";
layers = (
{
layerId = "45AE5D37-AE90-4B36-85E4-274E7BAA8508";
name = "Light Italic";
paths = (
{
closed = 1;
nodes = (
"261 0 LINE",
"312 242 LINE",
"626 644 LINE",
"595 644 LINE",
"301 268 LINE",
"167 644 LINE",
"140 644 LINE",
"284 242 LINE",
"233 0 LINE"
);
},
{
closed = 1;
nodes = (
"496 718 OFFCURVE",
"519 728 OFFCURVE",
"536 746 CURVE",
"543 777 LINE",
"519 751 OFFCURVE",
"496 743 OFFCURVE",
"467 743 CURVE SMOOTH",
"424 743 OFFCURVE",
"403 779 OFFCURVE",
"354 779 CURVE SMOOTH",
"326 779 OFFCURVE",
"295 769 OFFCURVE",
"276 751 CURVE",
"270 720 LINE",
"297 747 OFFCURVE",
"324 754 OFFCURVE",
"352 754 CURVE SMOOTH",
"389 754 OFFCURVE",
"419 718 OFFCURVE",
"465 718 CURVE SMOOTH"
);
}
);
width = 606;
}
);
leftKerningGroup = Y;
note = Ytilde;
rightKerningGroup = Y;
unicode = 1EF8;
},
{
glyphname = Z;
lastChange = "2015-11-26 12:45:03 +0000";
layers = (
{
layerId = "45AE5D37-AE90-4B36-85E4-274E7BAA8508";
name = "Light Italic";
paths = (
{
closed = 1;
nodes = (
"453 0 LINE",
"458 25 LINE",
"44 25 LINE",
"579 618 LINE",
"584 644 LINE",
"157 644 LINE",
"152 619 LINE",
"547 619 LINE",
"8 22 LINE",
"4 0 LINE"
);
}
);
width = 564;
}
);
leftKerningGroup = Z;
note = Z;
rightKerningGroup = Z;
unicode = 005A;
},
{
glyphname = Zacute;
lastChange = "2015-11-26 12:45:05 +0000";
layers = (
{
layerId = "45AE5D37-AE90-4B36-85E4-274E7BAA8508";
name = "Light Italic";
paths = (
{
closed = 1;
nodes = (
"453 0 LINE",
"458 25 LINE",
"44 25 LINE",
"579 618 LINE",
"584 644 LINE",
"157 644 LINE",
"152 619 LINE",
"547 619 LINE",
"8 22 LINE",
"4 0 LINE"
);
},
{
closed = 1;
nodes = (
"413 688 LINE",
"515 837 LINE",
"485 837 LINE",
"390 688 LINE"
);
}
);
width = 564;
}
);
leftKerningGroup = Z;
note = Zacute;
rightKerningGroup = Z;
unicode = 0179;
},
{
glyphname = Zcaron;
lastChange = "2015-11-26 12:45:07 +0000";
layers = (
{
layerId = "45AE5D37-AE90-4B36-85E4-274E7BAA8508";
name = "Light Italic";
paths = (
{
closed = 1;
nodes = (
"453 0 LINE",
"458 25 LINE",
"44 25 LINE",
"579 618 LINE",
"584 644 LINE",
"157 644 LINE",
"152 619 LINE",
"547 619 LINE",
"8 22 LINE",
"4 0 LINE"
);
},
{
closed = 1;
nodes = (
"418 688 LINE",
"539 810 LINE",
"508 810 LINE",
"405 706 LINE",
"346 810 LINE",
"319 810 LINE",
"388 688 LINE"
);
}
);
width = 564;
}
);
leftKerningGroup = Z;
note = Zcaron;
rightKerningGroup = Z;
unicode = 017D;
},
{
glyphname = Zdotaccent;
lastChange = "2015-11-26 12:45:04 +0000";
layers = (
{
layerId = "45AE5D37-AE90-4B36-85E4-274E7BAA8508";
name = "Light Italic";
paths = (
{
closed = 1;
nodes = (
"453 0 LINE",
"458 25 LINE",
"44 25 LINE",
"579 618 LINE",
"584 644 LINE",
"157 644 LINE",
"152 619 LINE",
"547 619 LINE",
"8 22 LINE",
"4 0 LINE"
);
},
{
closed = 1;
nodes = (
"419 718 LINE",
"426 753 LINE",
"391 753 LINE",
"384 718 LINE"
);
}
);
width = 564;
}
);
leftKerningGroup = Z;
note = Zdotaccent;
rightKerningGroup = Z;
unicode = 017B;
},
{
glyphname = Zdotbelow;
lastChange = "2015-11-26 12:45:05 +0000";
layers = (
{
layerId = "45AE5D37-AE90-4B36-85E4-274E7BAA8508";
name = "Light Italic";
paths = (
{
closed = 1;
nodes = (
"453 0 LINE",
"458 25 LINE",
"44 25 LINE",
"579 618 LINE",
"584 644 LINE",
"157 644 LINE",
"152 619 LINE",
"547 619 LINE",
"8 22 LINE",
"4 0 LINE"
);
},
{
closed = 1;
nodes = (
"239 -139 LINE",
"247 -102 LINE",
"210 -102 LINE",
"202 -139 LINE"
);
}
);
width = 564;
}
);
leftKerningGroup = Z;
note = Zdotbelow;
rightKerningGroup = Z;
unicode = 1E92;
},
{
glyphname = a;
lastChange = "2015-11-26 12:45:05 +0000";
layers = (
{
layerId = "45AE5D37-AE90-4B36-85E4-274E7BAA8508";
name = "Light Italic";
paths = (
{
closed = 1;
nodes = (
"287 -10 OFFCURVE",
"346 11 OFFCURVE",
"403 57 CURVE",
"395 0 LINE",
"418 0 LINE",
"518 474 LINE",
"490 474 LINE",
"481 430 LINE",
"437 470 OFFCURVE",
"395 484 OFFCURVE",
"325 484 CURVE SMOOTH",
"194 484 OFFCURVE",
"87 391 OFFCURVE",
"50 218 CURVE SMOOTH",
"13 45 OFFCURVE",
"94 -10 OFFCURVE",
"212 -10 CURVE SMOOTH"
);
},
{
closed = 1;
nodes = (
"92 15 OFFCURVE",
"46 72 OFFCURVE",
"77 218 CURVE SMOOTH",
"110 372 OFFCURVE",
"203 459 OFFCURVE",
"329 459 CURVE SMOOTH",
"401 459 OFFCURVE",
"443 437 OFFCURVE",
"475 401 CURVE",
"408 86 LINE",
"350 37 OFFCURVE",
"292 15 OFFCURVE",
"223 15 CURVE SMOOTH"
);
}
);
width = 554;
}
);
leftKerningGroup = a;
note = a;
rightKerningGroup = a;
unicode = 0061;
},
{
glyphname = aacute;
lastChange = "2015-11-26 12:45:05 +0000";
layers = (
{
layerId = "45AE5D37-AE90-4B36-85E4-274E7BAA8508";
name = "Light Italic";
paths = (
{
closed = 1;
nodes = (
"287 -10 OFFCURVE",
"346 11 OFFCURVE",
"403 57 CURVE",
"395 0 LINE",
"418 0 LINE",
"518 474 LINE",
"490 474 LINE",
"481 430 LINE",
"437 470 OFFCURVE",
"395 484 OFFCURVE",
"325 484 CURVE SMOOTH",
"194 484 OFFCURVE",
"87 391 OFFCURVE",
"50 218 CURVE SMOOTH",
"13 45 OFFCURVE",
"94 -10 OFFCURVE",
"212 -10 CURVE SMOOTH"
);
},
{
closed = 1;
nodes = (
"92 15 OFFCURVE",
"46 72 OFFCURVE",
"77 218 CURVE SMOOTH",
"110 372 OFFCURVE",
"203 459 OFFCURVE",
"329 459 CURVE SMOOTH",
"401 459 OFFCURVE",
"443 437 OFFCURVE",
"475 401 CURVE",
"408 86 LINE",
"350 37 OFFCURVE",
"292 15 OFFCURVE",
"223 15 CURVE SMOOTH"
);
},
{
closed = 1;
nodes = (
"339 522 LINE",
"441 671 LINE",
"411 671 LINE",
"316 522 LINE"
);
}
);
width = 526;
}
);
leftKerningGroup = a;
note = aacute;
rightKerningGroup = a;
unicode = 00E1;
},
{
glyphname = abreve;
lastChange = "2015-11-26 12:45:04 +0000";
layers = (
{
layerId = "45AE5D37-AE90-4B36-85E4-274E7BAA8508";
name = "Light Italic";
paths = (
{
closed = 1;
nodes = (
"287 -10 OFFCURVE",
"346 11 OFFCURVE",
"403 57 CURVE",
"395 0 LINE",
"418 0 LINE",
"518 474 LINE",
"490 474 LINE",
"481 430 LINE",
"437 470 OFFCURVE",
"395 484 OFFCURVE",
"325 484 CURVE SMOOTH",
"194 484 OFFCURVE",
"87 391 OFFCURVE",
"50 218 CURVE SMOOTH",
"13 45 OFFCURVE",
"94 -10 OFFCURVE",
"212 -10 CURVE SMOOTH"
);
},
{
closed = 1;
nodes = (
"92 15 OFFCURVE",
"46 72 OFFCURVE",
"77 218 CURVE SMOOTH",
"110 372 OFFCURVE",
"203 459 OFFCURVE",
"329 459 CURVE SMOOTH",
"401 459 OFFCURVE",
"443 437 OFFCURVE",
"475 401 CURVE",
"408 86 LINE",
"350 37 OFFCURVE",
"292 15 OFFCURVE",
"223 15 CURVE SMOOTH"
);
},
{
closed = 1;
nodes = (
"396 522 OFFCURVE",
"446 564 OFFCURVE",
"458 617 CURVE",
"431 617 LINE",
"422 577 OFFCURVE",
"386 547 OFFCURVE",
"345 547 CURVE SMOOTH",
"305 547 OFFCURVE",
"281 577 OFFCURVE",
"290 617 CURVE",
"267 617 LINE",
"255 564 OFFCURVE",
"289 522 OFFCURVE",
"342 522 CURVE SMOOTH"
);
}
);
width = 522;
}
);
leftKerningGroup = a;
note = abreve;
rightKerningGroup = a;
unicode = 0103;
},
{
glyphname = abreveacute;
lastChange = "2015-11-26 12:45:04 +0000";
layers = (
{
layerId = "45AE5D37-AE90-4B36-85E4-274E7BAA8508";
name = "Light Italic";
paths = (
{
closed = 1;
nodes = (
"287 -10 OFFCURVE",
"346 11 OFFCURVE",
"403 57 CURVE",
"395 0 LINE",
"418 0 LINE",
"518 474 LINE",
"490 474 LINE",
"481 430 LINE",
"437 470 OFFCURVE",
"395 484 OFFCURVE",
"325 484 CURVE SMOOTH",
"194 484 OFFCURVE",
"87 391 OFFCURVE",
"50 218 CURVE SMOOTH",
"13 45 OFFCURVE",
"94 -10 OFFCURVE",
"212 -10 CURVE SMOOTH"
);
},
{
closed = 1;
nodes = (
"92 15 OFFCURVE",
"46 72 OFFCURVE",
"77 218 CURVE SMOOTH",
"110 372 OFFCURVE",
"203 459 OFFCURVE",
"329 459 CURVE SMOOTH",
"401 459 OFFCURVE",
"443 437 OFFCURVE",
"475 401 CURVE",
"408 86 LINE",
"350 37 OFFCURVE",
"292 15 OFFCURVE",
"223 15 CURVE SMOOTH"
);
},
{
closed = 1;
nodes = (
"412 522 OFFCURVE",
"478 554 OFFCURVE",
"497 646 CURVE",
"471 646 LINE",
"457 577 OFFCURVE",
"406 547 OFFCURVE",
"345 547 CURVE SMOOTH",
"278 547 OFFCURVE",
"247 577 OFFCURVE",
"261 646 CURVE",
"237 646 LINE",
"218 554 OFFCURVE",
"275 522 OFFCURVE",
"341 522 CURVE SMOOTH"
);
},
{
closed = 1;
nodes = (
"358 614 LINE",
"446 723 LINE",
"417 723 LINE",
"336 614 LINE"
);
}
);
width = 522;
}
);
leftKerningGroup = a;
note = abreveacute;
rightKerningGroup = a;
unicode = 1EAF;
},
{
glyphname = abrevedotbelow;
lastChange = "2015-11-26 12:45:04 +0000";
layers = (
{
layerId = "45AE5D37-AE90-4B36-85E4-274E7BAA8508";
name = "Light Italic";
paths = (
{
closed = 1;
nodes = (
"287 -10 OFFCURVE",
"346 11 OFFCURVE",
"403 57 CURVE",
"395 0 LINE",
"418 0 LINE",
"518 474 LINE",
"490 474 LINE",
"481 430 LINE",
"437 470 OFFCURVE",
"395 484 OFFCURVE",
"325 484 CURVE SMOOTH",
"194 484 OFFCURVE",
"87 391 OFFCURVE",
"50 218 CURVE SMOOTH",
"13 45 OFFCURVE",
"94 -10 OFFCURVE",
"212 -10 CURVE SMOOTH"
);
},
{
closed = 1;
nodes = (
"215 -139 LINE",
"223 -102 LINE",
"186 -102 LINE",
"178 -139 LINE"
);
},
{
closed = 1;
nodes = (
"92 15 OFFCURVE",
"46 72 OFFCURVE",
"77 218 CURVE SMOOTH",
"110 372 OFFCURVE",
"203 459 OFFCURVE",
"329 459 CURVE SMOOTH",
"401 459 OFFCURVE",
"443 437 OFFCURVE",
"475 401 CURVE",
"408 86 LINE",
"350 37 OFFCURVE",
"292 15 OFFCURVE",
"223 15 CURVE SMOOTH"
);
},
{
closed = 1;
nodes = (
"388 522 OFFCURVE",
"438 564 OFFCURVE",
"450 617 CURVE",
"423 617 LINE",
"414 577 OFFCURVE",
"378 547 OFFCURVE",
"337 547 CURVE SMOOTH",
"297 547 OFFCURVE",
"273 577 OFFCURVE",
"282 617 CURVE",
"259 617 LINE",
"247 564 OFFCURVE",
"281 522 OFFCURVE",
"334 522 CURVE SMOOTH"
);
}
);
width = 522;
}
);
leftKerningGroup = a;
note = abrevedotbelow;
rightKerningGroup = a;
unicode = 1EB7;
},
{
glyphname = abrevegrave;
lastChange = "2015-11-26 12:45:03 +0000";
layers = (
{
layerId = "45AE5D37-AE90-4B36-85E4-274E7BAA8508";
name = "Light Italic";
paths = (
{
closed = 1;
nodes = (
"287 -10 OFFCURVE",
"346 11 OFFCURVE",
"403 57 CURVE",
"395 0 LINE",
"418 0 LINE",
"518 474 LINE",
"490 474 LINE",
"481 430 LINE",
"437 470 OFFCURVE",
"395 484 OFFCURVE",
"325 484 CURVE SMOOTH",
"194 484 OFFCURVE",
"87 391 OFFCURVE",
"50 218 CURVE SMOOTH",
"13 45 OFFCURVE",
"94 -10 OFFCURVE",
"212 -10 CURVE SMOOTH"
);
},
{
closed = 1;
nodes = (
"92 15 OFFCURVE",
"46 72 OFFCURVE",
"77 218 CURVE SMOOTH",
"110 372 OFFCURVE",
"203 459 OFFCURVE",
"329 459 CURVE SMOOTH",
"401 459 OFFCURVE",
"443 437 OFFCURVE",
"475 401 CURVE",
"408 86 LINE",
"350 37 OFFCURVE",
"292 15 OFFCURVE",
"223 15 CURVE SMOOTH"
);
},
{
closed = 1;
nodes = (
"408 522 OFFCURVE",
"474 554 OFFCURVE",
"493 646 CURVE",
"467 646 LINE",
"453 577 OFFCURVE",
"402 547 OFFCURVE",
"341 547 CURVE SMOOTH",
"274 547 OFFCURVE",
"243 577 OFFCURVE",
"257 646 CURVE",
"233 646 LINE",
"214 554 OFFCURVE",
"271 522 OFFCURVE",
"337 522 CURVE SMOOTH"
);
},
{
closed = 1;
nodes = (
"380 614 LINE",
"347 723 LINE",
"318 723 LINE",
"358 614 LINE"
);
}
);
width = 522;
}
);
leftKerningGroup = a;
note = abrevegrave;
rightKerningGroup = a;
unicode = 1EB1;
},
{
glyphname = abrevehookabove;
lastChange = "2015-11-26 12:45:06 +0000";
layers = (
{
layerId = "45AE5D37-AE90-4B36-85E4-274E7BAA8508";
name = "Light Italic";
paths = (
{
closed = 1;
nodes = (
"287 -10 OFFCURVE",
"346 11 OFFCURVE",
"403 57 CURVE",
"395 0 LINE",
"418 0 LINE",
"518 474 LINE",
"490 474 LINE",
"481 430 LINE",
"437 470 OFFCURVE",
"395 484 OFFCURVE",
"325 484 CURVE SMOOTH",
"194 484 OFFCURVE",
"87 391 OFFCURVE",
"50 218 CURVE SMOOTH",
"13 45 OFFCURVE",
"94 -10 OFFCURVE",
"212 -10 CURVE SMOOTH"
);
},
{
closed = 1;
nodes = (
"92 15 OFFCURVE",
"46 72 OFFCURVE",
"77 218 CURVE SMOOTH",
"110 372 OFFCURVE",
"203 459 OFFCURVE",
"329 459 CURVE SMOOTH",
"401 459 OFFCURVE",
"443 437 OFFCURVE",
"475 401 CURVE",
"408 86 LINE",
"350 37 OFFCURVE",
"292 15 OFFCURVE",
"223 15 CURVE SMOOTH"
);
},
{
closed = 1;
nodes = (
"414 522 OFFCURVE",
"480 554 OFFCURVE",
"499 646 CURVE",
"473 646 LINE",
"459 577 OFFCURVE",
"408 547 OFFCURVE",
"347 547 CURVE SMOOTH",
"280 547 OFFCURVE",
"249 577 OFFCURVE",
"263 646 CURVE",
"239 646 LINE",
"220 554 OFFCURVE",
"277 522 OFFCURVE",
"343 522 CURVE SMOOTH"
);
},
{
closed = 1;
nodes = (
"354 593 LINE",
"362 630 LINE",
"421 636 OFFCURVE",
"449 657 OFFCURVE",
"458 699 CURVE SMOOTH",
"467 744 OFFCURVE",
"438 768 OFFCURVE",
"392 768 CURVE SMOOTH",
"368 768 OFFCURVE",
"347 763 OFFCURVE",
"330 756 CURVE",
"324 731 LINE",
"344 739 OFFCURVE",
"363 744 OFFCURVE",
"387 744 CURVE SMOOTH",
"427 744 OFFCURVE",
"439 728 OFFCURVE",
"433 699 CURVE SMOOTH",
"426 668 OFFCURVE",
"411 653 OFFCURVE",
"338 649 CURVE",
"326 593 LINE"
);
}
);
width = 522;
}
);
leftKerningGroup = a;
note = abrevehookabove;
rightKerningGroup = a;
unicode = 1EB3;
},
{
glyphname = abrevetilde;
lastChange = "2015-11-26 12:45:06 +0000";
layers = (
{
layerId = "45AE5D37-AE90-4B36-85E4-274E7BAA8508";
name = "Light Italic";
paths = (
{
closed = 1;
nodes = (
"287 -10 OFFCURVE",
"346 11 OFFCURVE",
"403 57 CURVE",
"395 0 LINE",
"418 0 LINE",
"518 474 LINE",
"490 474 LINE",
"481 430 LINE",
"437 470 OFFCURVE",
"395 484 OFFCURVE",
"325 484 CURVE SMOOTH",
"194 484 OFFCURVE",
"87 391 OFFCURVE",
"50 218 CURVE SMOOTH",
"13 45 OFFCURVE",
"94 -10 OFFCURVE",
"212 -10 CURVE SMOOTH"
);
},
{
closed = 1;
nodes = (
"92 15 OFFCURVE",
"46 72 OFFCURVE",
"77 218 CURVE SMOOTH",
"110 372 OFFCURVE",
"203 459 OFFCURVE",
"329 459 CURVE SMOOTH",
"401 459 OFFCURVE",
"443 437 OFFCURVE",
"475 401 CURVE",
"408 86 LINE",
"350 37 OFFCURVE",
"292 15 OFFCURVE",
"223 15 CURVE SMOOTH"
);
},
{
closed = 1;
nodes = (
"417 522 OFFCURVE",
"483 554 OFFCURVE",
"502 646 CURVE",
"476 646 LINE",
"462 577 OFFCURVE",
"411 547 OFFCURVE",
"350 547 CURVE SMOOTH",
"283 547 OFFCURVE",
"252 577 OFFCURVE",
"266 646 CURVE",
"242 646 LINE",
"223 554 OFFCURVE",
"280 522 OFFCURVE",
"346 522 CURVE SMOOTH"
);
},
{
closed = 1;
nodes = (
"280 708 OFFCURVE",
"304 714 OFFCURVE",
"332 714 CURVE SMOOTH",
"369 714 OFFCURVE",
"389 682 OFFCURVE",
"435 682 CURVE SMOOTH",
"464 682 OFFCURVE",
"491 691 OFFCURVE",
"510 708 CURVE",
"517 739 LINE",
"488 713 OFFCURVE",
"465 707 OFFCURVE",
"437 707 CURVE SMOOTH",
"394 707 OFFCURVE",
"383 739 OFFCURVE",
"334 739 CURVE SMOOTH",
"305 739 OFFCURVE",
"278 730 OFFCURVE",
"258 713 CURVE",
"252 682 LINE"
);
}
);
width = 522;
}
);
leftKerningGroup = a;
note = abrevetilde;
rightKerningGroup = a;
unicode = 1EB5;
},
{
glyphname = acaron;
lastChange = "2015-11-26 12:45:04 +0000";
layers = (
{
layerId = "45AE5D37-AE90-4B36-85E4-274E7BAA8508";
name = "Light Italic";
paths = (
{
closed = 1;
nodes = (
"287 -10 OFFCURVE",
"346 11 OFFCURVE",
"403 57 CURVE",
"395 0 LINE",
"418 0 LINE",
"518 474 LINE",
"490 474 LINE",
"481 430 LINE",
"437 470 OFFCURVE",
"395 484 OFFCURVE",
"325 484 CURVE SMOOTH",
"194 484 OFFCURVE",
"87 391 OFFCURVE",
"50 218 CURVE SMOOTH",
"13 45 OFFCURVE",
"94 -10 OFFCURVE",
"212 -10 CURVE SMOOTH"
);
},
{
closed = 1;
nodes = (
"92 15 OFFCURVE",
"46 72 OFFCURVE",
"77 218 CURVE SMOOTH",
"110 372 OFFCURVE",
"203 459 OFFCURVE",
"329 459 CURVE SMOOTH",
"401 459 OFFCURVE",
"443 437 OFFCURVE",
"475 401 CURVE",
"408 86 LINE",
"350 37 OFFCURVE",
"292 15 OFFCURVE",
"223 15 CURVE SMOOTH"
);
},
{
closed = 1;
nodes = (
"343 522 LINE",
"464 644 LINE",
"433 644 LINE",
"330 540 LINE",
"271 644 LINE",
"244 644 LINE",
"313 522 LINE"
);
}
);
width = 522;
}
);
leftKerningGroup = a;
note = acaron;
rightKerningGroup = a;
unicode = 01CE;
},
{
glyphname = acircumflex;
lastChange = "2015-11-26 12:45:06 +0000";
layers = (
{
layerId = "45AE5D37-AE90-4B36-85E4-274E7BAA8508";
name = "Light Italic";
paths = (
{
closed = 1;
nodes = (
"287 -10 OFFCURVE",
"346 11 OFFCURVE",
"403 57 CURVE",
"395 0 LINE",
"418 0 LINE",
"518 474 LINE",
"490 474 LINE",
"481 430 LINE",
"437 470 OFFCURVE",
"395 484 OFFCURVE",
"325 484 CURVE SMOOTH",
"194 484 OFFCURVE",
"87 391 OFFCURVE",
"50 218 CURVE SMOOTH",
"13 45 OFFCURVE",
"94 -10 OFFCURVE",
"212 -10 CURVE SMOOTH"
);
},
{
closed = 1;
nodes = (
"92 15 OFFCURVE",
"46 72 OFFCURVE",
"77 218 CURVE SMOOTH",
"110 372 OFFCURVE",
"203 459 OFFCURVE",
"329 459 CURVE SMOOTH",
"401 459 OFFCURVE",
"443 437 OFFCURVE",
"475 401 CURVE",
"408 86 LINE",
"350 37 OFFCURVE",
"292 15 OFFCURVE",
"223 15 CURVE SMOOTH"
);
},
{
closed = 1;
nodes = (
"250 522 LINE",
"353 626 LINE",
"412 522 LINE",
"439 522 LINE",
"370 644 LINE",
"340 644 LINE",
"220 522 LINE"
);
}
);
width = 522;
}
);
leftKerningGroup = a;
note = acircumflex;
rightKerningGroup = a;
unicode = 00E2;
},
{
glyphname = acircumflexacute;
lastChange = "2015-11-26 12:45:03 +0000";
layers = (
{
layerId = "45AE5D37-AE90-4B36-85E4-274E7BAA8508";
name = "Light Italic";
paths = (
{
closed = 1;
nodes = (
"287 -10 OFFCURVE",
"346 11 OFFCURVE",
"403 57 CURVE",
"395 0 LINE",
"418 0 LINE",
"518 474 LINE",
"490 474 LINE",
"481 430 LINE",
"437 470 OFFCURVE",
"395 484 OFFCURVE",
"325 484 CURVE SMOOTH",
"194 484 OFFCURVE",
"87 391 OFFCURVE",
"50 218 CURVE SMOOTH",
"13 45 OFFCURVE",
"94 -10 OFFCURVE",
"212 -10 CURVE SMOOTH"
);
},
{
closed = 1;
nodes = (
"92 15 OFFCURVE",
"46 72 OFFCURVE",
"77 218 CURVE SMOOTH",
"110 372 OFFCURVE",
"203 459 OFFCURVE",
"329 459 CURVE SMOOTH",
"401 459 OFFCURVE",
"443 437 OFFCURVE",
"475 401 CURVE",
"408 86 LINE",
"350 37 OFFCURVE",
"292 15 OFFCURVE",
"223 15 CURVE SMOOTH"
);
},
{
closed = 1;
nodes = (
"259 522 LINE",
"358 608 LINE",
"421 522 LINE",
"448 522 LINE",
"374 624 LINE",
"344 624 LINE",
"228 522 LINE"
);
},
{
closed = 1;
nodes = (
"440 624 LINE",
"527 733 LINE",
"499 733 LINE",
"418 624 LINE"
);
}
);
width = 522;
}
);
leftKerningGroup = a;
note = acircumflexacute;
rightKerningGroup = a;
unicode = 1EA5;
},
{
glyphname = acircumflexdotbelow;
lastChange = "2015-11-26 12:45:05 +0000";
layers = (
{
layerId = "45AE5D37-AE90-4B36-85E4-274E7BAA8508";
name = "Light Italic";
paths = (
{
closed = 1;
nodes = (
"287 -10 OFFCURVE",
"346 11 OFFCURVE",
"403 57 CURVE",
"395 0 LINE",
"418 0 LINE",
"518 474 LINE",
"490 474 LINE",
"481 430 LINE",
"437 470 OFFCURVE",
"395 484 OFFCURVE",
"325 484 CURVE SMOOTH",
"194 484 OFFCURVE",
"87 391 OFFCURVE",
"50 218 CURVE SMOOTH",
"13 45 OFFCURVE",
"94 -10 OFFCURVE",
"212 -10 CURVE SMOOTH"
);
},
{
closed = 1;
nodes = (
"213 -139 LINE",
"221 -102 LINE",
"184 -102 LINE",
"176 -139 LINE"
);
},
{
closed = 1;
nodes = (
"92 15 OFFCURVE",
"46 72 OFFCURVE",
"77 218 CURVE SMOOTH",
"110 372 OFFCURVE",
"203 459 OFFCURVE",
"329 459 CURVE SMOOTH",
"401 459 OFFCURVE",
"443 437 OFFCURVE",
"475 401 CURVE",
"408 86 LINE",
"350 37 OFFCURVE",
"292 15 OFFCURVE",
"223 15 CURVE SMOOTH"
);
},
{
closed = 1;
nodes = (
"253 522 LINE",
"356 626 LINE",
"415 522 LINE",
"442 522 LINE",
"373 644 LINE",
"343 644 LINE",
"223 522 LINE"
);
}
);
width = 522;
}
);
leftKerningGroup = a;
note = acircumflexdotbelow;
rightKerningGroup = a;
unicode = 1EAD;
},
{
glyphname = acircumflexgrave;
lastChange = "2015-11-26 12:45:07 +0000";
layers = (
{
layerId = "45AE5D37-AE90-4B36-85E4-274E7BAA8508";
name = "Light Italic";
paths = (
{
closed = 1;
nodes = (
"287 -10 OFFCURVE",
"346 11 OFFCURVE",
"403 57 CURVE",
"395 0 LINE",
"418 0 LINE",
"518 474 LINE",
"490 474 LINE",
"481 430 LINE",
"437 470 OFFCURVE",
"395 484 OFFCURVE",
"325 484 CURVE SMOOTH",
"194 484 OFFCURVE",
"87 391 OFFCURVE",
"50 218 CURVE SMOOTH",
"13 45 OFFCURVE",
"94 -10 OFFCURVE",
"212 -10 CURVE SMOOTH"
);
},
{
closed = 1;
nodes = (
"92 15 OFFCURVE",
"46 72 OFFCURVE",
"77 218 CURVE SMOOTH",
"110 372 OFFCURVE",
"203 459 OFFCURVE",
"329 459 CURVE SMOOTH",
"401 459 OFFCURVE",
"443 437 OFFCURVE",
"475 401 CURVE",
"408 86 LINE",
"350 37 OFFCURVE",
"292 15 OFFCURVE",
"223 15 CURVE SMOOTH"
);
},
{
closed = 1;
nodes = (
"258 522 LINE",
"357 608 LINE",
"420 522 LINE",
"447 522 LINE",
"373 624 LINE",
"343 624 LINE",
"227 522 LINE"
);
},
{
closed = 1;
nodes = (
"299 624 LINE",
"266 733 LINE",
"237 733 LINE",
"277 624 LINE"
);
}
);
width = 522;
}
);
leftKerningGroup = a;
note = acircumflexgrave;
rightKerningGroup = a;
unicode = 1EA7;
},
{
glyphname = acircumflexhookabove;
lastChange = "2015-11-26 12:45:04 +0000";
layers = (
{
layerId = "45AE5D37-AE90-4B36-85E4-274E7BAA8508";
name = "Light Italic";
paths = (
{
closed = 1;
nodes = (
"287 -10 OFFCURVE",
"346 11 OFFCURVE",
"403 57 CURVE",
"395 0 LINE",
"418 0 LINE",
"518 474 LINE",
"490 474 LINE",
"481 430 LINE",
"437 470 OFFCURVE",
"395 484 OFFCURVE",
"325 484 CURVE SMOOTH",
"194 484 OFFCURVE",
"87 391 OFFCURVE",
"50 218 CURVE SMOOTH",
"13 45 OFFCURVE",
"94 -10 OFFCURVE",
"212 -10 CURVE SMOOTH"
);
},
{
closed = 1;
nodes = (
"92 15 OFFCURVE",
"46 72 OFFCURVE",
"77 218 CURVE SMOOTH",
"110 372 OFFCURVE",
"203 459 OFFCURVE",
"329 459 CURVE SMOOTH",
"401 459 OFFCURVE",
"443 437 OFFCURVE",
"475 401 CURVE",
"408 86 LINE",
"350 37 OFFCURVE",
"292 15 OFFCURVE",
"223 15 CURVE SMOOTH"
);
},
{
closed = 1;
nodes = (
"253 522 LINE",
"352 608 LINE",
"415 522 LINE",
"442 522 LINE",
"368 624 LINE",
"338 624 LINE",
"222 522 LINE"
);
},
{
closed = 1;
nodes = (
"443 603 LINE",
"451 640 LINE",
"509 646 OFFCURVE",
"538 667 OFFCURVE",
"546 709 CURVE SMOOTH",
"556 754 OFFCURVE",
"530 778 OFFCURVE",
"480 778 CURVE SMOOTH",
"457 778 OFFCURVE",
"436 773 OFFCURVE",
"419 766 CURVE",
"413 741 LINE",
"433 749 OFFCURVE",
"452 754 OFFCURVE",
"475 754 CURVE SMOOTH",
"513 754 OFFCURVE",
"528 738 OFFCURVE",
"521 709 CURVE",
"515 678 OFFCURVE",
"499 663 OFFCURVE",
"427 659 CURVE",
"415 603 LINE"
);
}
);
width = 536;
}
);
leftKerningGroup = a;
note = acircumflexhookabove;
rightKerningGroup = a;
unicode = 1EA9;
},
{
glyphname = acircumflextilde;
lastChange = "2015-11-26 12:45:06 +0000";
layers = (
{
layerId = "45AE5D37-AE90-4B36-85E4-274E7BAA8508";
name = "Light Italic";
paths = (
{
closed = 1;
nodes = (
"287 -10 OFFCURVE",
"346 11 OFFCURVE",
"403 57 CURVE",
"395 0 LINE",
"418 0 LINE",
"518 474 LINE",
"490 474 LINE",
"481 430 LINE",
"437 470 OFFCURVE",
"395 484 OFFCURVE",
"325 484 CURVE SMOOTH",
"194 484 OFFCURVE",
"87 391 OFFCURVE",
"50 218 CURVE SMOOTH",
"13 45 OFFCURVE",
"94 -10 OFFCURVE",
"212 -10 CURVE SMOOTH"
);
},
{
closed = 1;
nodes = (
"92 15 OFFCURVE",
"46 72 OFFCURVE",
"77 218 CURVE SMOOTH",
"110 372 OFFCURVE",
"203 459 OFFCURVE",
"329 459 CURVE SMOOTH",
"401 459 OFFCURVE",
"443 437 OFFCURVE",
"475 401 CURVE",
"408 86 LINE",
"350 37 OFFCURVE",
"292 15 OFFCURVE",
"223 15 CURVE SMOOTH"
);
},
{
closed = 1;
nodes = (
"257 522 LINE",
"356 608 LINE",
"419 522 LINE",
"446 522 LINE",
"372 624 LINE",
"342 624 LINE",
"226 522 LINE"
);
},
{
closed = 1;
nodes = (
"265 663 OFFCURVE",
"288 669 OFFCURVE",
"316 669 CURVE SMOOTH",
"353 669 OFFCURVE",
"373 637 OFFCURVE",
"419 637 CURVE SMOOTH",
"448 637 OFFCURVE",
"474 646 OFFCURVE",
"494 663 CURVE",
"500 694 LINE",
"472 668 OFFCURVE",
"449 662 OFFCURVE",
"421 662 CURVE SMOOTH",
"378 662 OFFCURVE",
"367 694 OFFCURVE",
"318 694 CURVE SMOOTH",
"289 694 OFFCURVE",
"262 685 OFFCURVE",
"243 668 CURVE",
"236 637 LINE"
);
}
);
width = 522;
}
);
leftKerningGroup = a;
note = acircumflextilde;
rightKerningGroup = a;
unicode = 1EAB;
},
{
glyphname = adieresis;
lastChange = "2015-11-26 12:45:07 +0000";
layers = (
{
layerId = "45AE5D37-AE90-4B36-85E4-274E7BAA8508";
name = "Light Italic";
paths = (
{
closed = 1;
nodes = (
"287 -10 OFFCURVE",
"346 11 OFFCURVE",
"403 57 CURVE",
"395 0 LINE",
"418 0 LINE",
"518 474 LINE",
"490 474 LINE",
"481 430 LINE",
"437 470 OFFCURVE",
"395 484 OFFCURVE",
"325 484 CURVE SMOOTH",
"194 484 OFFCURVE",
"87 391 OFFCURVE",
"50 218 CURVE SMOOTH",
"13 45 OFFCURVE",
"94 -10 OFFCURVE",
"212 -10 CURVE SMOOTH"
);
},
{
closed = 1;
nodes = (
"92 15 OFFCURVE",
"46 72 OFFCURVE",
"77 218 CURVE SMOOTH",
"110 372 OFFCURVE",
"203 459 OFFCURVE",
"329 459 CURVE SMOOTH",
"401 459 OFFCURVE",
"443 437 OFFCURVE",
"475 401 CURVE",
"408 86 LINE",
"350 37 OFFCURVE",
"292 15 OFFCURVE",
"223 15 CURVE SMOOTH"
);
},
{
closed = 1;
nodes = (
"279 552 LINE",
"286 587 LINE",
"251 587 LINE",
"244 552 LINE"
);
},
{
closed = 1;
nodes = (
"436 552 LINE",
"443 587 LINE",
"408 587 LINE",
"401 552 LINE"
);
}
);
width = 522;
}
);
leftKerningGroup = a;
note = adieresis;
rightKerningGroup = a;
unicode = 00E4;
},
{
glyphname = adotbelow;
lastChange = "2015-11-26 12:45:03 +0000";
layers = (
{
layerId = "45AE5D37-AE90-4B36-85E4-274E7BAA8508";
name = "Light Italic";
paths = (
{
closed = 1;
nodes = (
"287 -10 OFFCURVE",
"346 11 OFFCURVE",
"403 57 CURVE",
"395 0 LINE",
"418 0 LINE",
"518 474 LINE",
"490 474 LINE",
"481 430 LINE",
"437 470 OFFCURVE",
"395 484 OFFCURVE",
"325 484 CURVE SMOOTH",
"194 484 OFFCURVE",
"87 391 OFFCURVE",
"50 218 CURVE SMOOTH",
"13 45 OFFCURVE",
"94 -10 OFFCURVE",
"212 -10 CURVE SMOOTH"
);
},
{
closed = 1;
nodes = (
"213 -139 LINE",
"221 -102 LINE",
"184 -102 LINE",
"176 -139 LINE"
);
},
{
closed = 1;
nodes = (
"92 15 OFFCURVE",
"46 72 OFFCURVE",
"77 218 CURVE SMOOTH",
"110 372 OFFCURVE",
"203 459 OFFCURVE",
"329 459 CURVE SMOOTH",
"401 459 OFFCURVE",
"443 437 OFFCURVE",
"475 401 CURVE",
"408 86 LINE",
"350 37 OFFCURVE",
"292 15 OFFCURVE",
"223 15 CURVE SMOOTH"
);
}
);
width = 522;
}
);
leftKerningGroup = a;
note = adotbelow;
rightKerningGroup = a;
unicode = 1EA1;
},
{
glyphname = agrave;
lastChange = "2015-11-26 12:45:07 +0000";
layers = (
{
layerId = "45AE5D37-AE90-4B36-85E4-274E7BAA8508";
name = "Light Italic";
paths = (
{
closed = 1;
nodes = (
"287 -10 OFFCURVE",
"346 11 OFFCURVE",
"403 57 CURVE",
"395 0 LINE",
"418 0 LINE",
"518 474 LINE",
"490 474 LINE",
"481 430 LINE",
"437 470 OFFCURVE",
"395 484 OFFCURVE",
"325 484 CURVE SMOOTH",
"194 484 OFFCURVE",
"87 391 OFFCURVE",
"50 218 CURVE SMOOTH",
"13 45 OFFCURVE",
"94 -10 OFFCURVE",
"212 -10 CURVE SMOOTH"
);
},
{
closed = 1;
nodes = (
"92 15 OFFCURVE",
"46 72 OFFCURVE",
"77 218 CURVE SMOOTH",
"110 372 OFFCURVE",
"203 459 OFFCURVE",
"329 459 CURVE SMOOTH",
"401 459 OFFCURVE",
"443 437 OFFCURVE",
"475 401 CURVE",
"408 86 LINE",
"350 37 OFFCURVE",
"292 15 OFFCURVE",
"223 15 CURVE SMOOTH"
);
},
{
closed = 1;
nodes = (
"355 522 LINE",
"324 671 LINE",
"294 671 LINE",
"332 522 LINE"
);
}
);
width = 522;
}
);
leftKerningGroup = a;
note = agrave;
rightKerningGroup = a;
unicode = 00E0;
},
{
glyphname = ahookabove;
lastChange = "2015-11-26 12:45:04 +0000";
layers = (
{
layerId = "45AE5D37-AE90-4B36-85E4-274E7BAA8508";
name = "Light Italic";
paths = (
{
closed = 1;
nodes = (
"287 -10 OFFCURVE",
"346 11 OFFCURVE",
"403 57 CURVE",
"395 0 LINE",
"418 0 LINE",
"518 474 LINE",
"490 474 LINE",
"481 430 LINE",
"437 470 OFFCURVE",
"395 484 OFFCURVE",
"325 484 CURVE SMOOTH",
"194 484 OFFCURVE",
"87 391 OFFCURVE",
"50 218 CURVE SMOOTH",
"13 45 OFFCURVE",
"94 -10 OFFCURVE",
"212 -10 CURVE SMOOTH"
);
},
{
closed = 1;
nodes = (
"92 15 OFFCURVE",
"46 72 OFFCURVE",
"77 218 CURVE SMOOTH",
"110 372 OFFCURVE",
"203 459 OFFCURVE",
"329 459 CURVE SMOOTH",
"401 459 OFFCURVE",
"443 437 OFFCURVE",
"475 401 CURVE",
"408 86 LINE",
"350 37 OFFCURVE",
"292 15 OFFCURVE",
"223 15 CURVE SMOOTH"
);
},
{
closed = 1;
nodes = (
"333 512 LINE",
"345 568 LINE",
"417 574 OFFCURVE",
"444 602 OFFCURVE",
"456 654 CURVE SMOOTH",
"467 709 OFFCURVE",
"433 739 OFFCURVE",
"363 739 CURVE SMOOTH",
"343 739 OFFCURVE",
"308 734 OFFCURVE",
"290 727 CURVE",
"285 702 LINE",
"304 709 OFFCURVE",
"334 714 OFFCURVE",
"356 714 CURVE SMOOTH",
"423 714 OFFCURVE",
"439 693 OFFCURVE",
"431 654 CURVE SMOOTH",
"422 613 OFFCURVE",
"407 590 OFFCURVE",
"321 587 CURVE",
"305 512 LINE"
);
}
);
width = 522;
}
);
leftKerningGroup = a;
note = ahookabove;
rightKerningGroup = a;
unicode = 1EA3;
},
{
glyphname = "alpha-latin";
lastChange = "2015-11-26 12:45:06 +0000";
layers = (
{
layerId = "45AE5D37-AE90-4B36-85E4-274E7BAA8508";
name = "Light Italic";
paths = (
{
closed = 1;
nodes = (
"287 -10 OFFCURVE",
"346 11 OFFCURVE",
"403 57 CURVE",
"395 0 LINE",
"418 0 LINE",
"518 474 LINE",
"490 474 LINE",
"481 430 LINE",
"437 470 OFFCURVE",
"395 484 OFFCURVE",
"325 484 CURVE SMOOTH",
"194 484 OFFCURVE",
"87 391 OFFCURVE",
"50 218 CURVE SMOOTH",
"13 45 OFFCURVE",
"94 -10 OFFCURVE",
"212 -10 CURVE SMOOTH"
);
},
{
closed = 1;
nodes = (
"92 15 OFFCURVE",
"46 72 OFFCURVE",
"77 218 CURVE SMOOTH",
"110 372 OFFCURVE",
"203 459 OFFCURVE",
"329 459 CURVE SMOOTH",
"401 459 OFFCURVE",
"443 437 OFFCURVE",
"475 401 CURVE",
"408 86 LINE",
"350 37 OFFCURVE",
"292 15 OFFCURVE",
"223 15 CURVE SMOOTH"
);
}
);
width = 554;
}
);
leftKerningGroup = a;
note = ascript;
rightKerningGroup = a;
unicode = 0251;
},
{
glyphname = amacron;
lastChange = "2015-11-26 12:45:04 +0000";
layers = (
{
layerId = "45AE5D37-AE90-4B36-85E4-274E7BAA8508";
name = "Light Italic";
paths = (
{
closed = 1;
nodes = (
"287 -10 OFFCURVE",
"346 11 OFFCURVE",
"403 57 CURVE",
"395 0 LINE",
"418 0 LINE",
"518 474 LINE",
"490 474 LINE",
"481 430 LINE",
"437 470 OFFCURVE",
"395 484 OFFCURVE",
"325 484 CURVE SMOOTH",
"194 484 OFFCURVE",
"87 391 OFFCURVE",
"50 218 CURVE SMOOTH",
"13 45 OFFCURVE",
"94 -10 OFFCURVE",
"212 -10 CURVE SMOOTH"
);
},
{
closed = 1;
nodes = (
"92 15 OFFCURVE",
"46 72 OFFCURVE",
"77 218 CURVE SMOOTH",
"110 372 OFFCURVE",
"203 459 OFFCURVE",
"329 459 CURVE SMOOTH",
"401 459 OFFCURVE",
"443 437 OFFCURVE",
"475 401 CURVE",
"408 86 LINE",
"350 37 OFFCURVE",
"292 15 OFFCURVE",
"223 15 CURVE SMOOTH"
);
},
{
closed = 1;
nodes = (
"470 552 LINE",
"476 577 LINE",
"210 577 LINE",
"204 552 LINE"
);
}
);
width = 522;
}
);
leftKerningGroup = a;
note = amacron;
rightKerningGroup = a;
unicode = 0101;
},
{
glyphname = aogonek;
lastChange = "2015-11-26 12:45:04 +0000";
layers = (
{
layerId = "45AE5D37-AE90-4B36-85E4-274E7BAA8508";
name = "Light Italic";
paths = (
{
closed = 1;
nodes = (
"366 -220 OFFCURVE",
"386 -217 OFFCURVE",
"402 -209 CURVE",
"407 -184 LINE",
"394 -191 OFFCURVE",
"373 -195 OFFCURVE",
"356 -195 CURVE SMOOTH",
"312 -195 OFFCURVE",
"304 -176 OFFCURVE",
"313 -135 CURVE SMOOTH",
"323 -88 OFFCURVE",
"357 -42 OFFCURVE",
"418 0 CURVE",
"518 474 LINE",
"490 474 LINE",
"481 430 LINE",
"437 470 OFFCURVE",
"395 484 OFFCURVE",
"325 484 CURVE SMOOTH",
"194 484 OFFCURVE",
"87 391 OFFCURVE",
"50 218 CURVE SMOOTH",
"13 45 OFFCURVE",
"94 -10 OFFCURVE",
"212 -10 CURVE SMOOTH",
"287 -10 OFFCURVE",
"346 11 OFFCURVE",
"403 57 CURVE",
"395 0 LINE",
"344 -27 OFFCURVE",
"298 -80 OFFCURVE",
"286 -135 CURVE SMOOTH",
"273 -198 OFFCURVE",
"306 -220 OFFCURVE",
"351 -220 CURVE SMOOTH"
);
},
{
closed = 1;
nodes = (
"92 15 OFFCURVE",
"46 72 OFFCURVE",
"77 218 CURVE SMOOTH",
"110 372 OFFCURVE",
"203 459 OFFCURVE",
"329 459 CURVE SMOOTH",
"401 459 OFFCURVE",
"443 437 OFFCURVE",
"475 401 CURVE",
"408 86 LINE",
"350 37 OFFCURVE",
"292 15 OFFCURVE",
"223 15 CURVE SMOOTH"
);
}
);
width = 561;
}
);
leftKerningGroup = a;
note = aogonek;
rightKerningGroup = a;
unicode = 0105;
},
{
glyphname = aring;
lastChange = "2015-11-26 12:45:04 +0000";
layers = (
{
layerId = "45AE5D37-AE90-4B36-85E4-274E7BAA8508";
name = "Light Italic";
paths = (
{
closed = 1;
nodes = (
"287 -10 OFFCURVE",
"346 11 OFFCURVE",
"403 57 CURVE",
"395 0 LINE",
"418 0 LINE",
"518 474 LINE",
"490 474 LINE",
"481 430 LINE",
"437 470 OFFCURVE",
"395 484 OFFCURVE",
"325 484 CURVE SMOOTH",
"194 484 OFFCURVE",
"87 391 OFFCURVE",
"50 218 CURVE SMOOTH",
"13 45 OFFCURVE",
"94 -10 OFFCURVE",
"212 -10 CURVE SMOOTH"
);
},
{
closed = 1;
nodes = (
"92 15 OFFCURVE",
"46 72 OFFCURVE",
"77 218 CURVE SMOOTH",
"110 372 OFFCURVE",
"203 459 OFFCURVE",
"329 459 CURVE SMOOTH",
"401 459 OFFCURVE",
"443 437 OFFCURVE",
"475 401 CURVE",
"408 86 LINE",
"350 37 OFFCURVE",
"292 15 OFFCURVE",
"223 15 CURVE SMOOTH"
);
},
{
closed = 1;
nodes = (
"397 522 OFFCURVE",
"444 564 OFFCURVE",
"455 617 CURVE SMOOTH",
"466 671 OFFCURVE",
"436 713 OFFCURVE",
"379 713 CURVE SMOOTH",
"322 713 OFFCURVE",
"275 671 OFFCURVE",
"264 617 CURVE SMOOTH",
"253 564 OFFCURVE",
"282 522 OFFCURVE",
"339 522 CURVE SMOOTH"
);
},
{
closed = 1;
nodes = (
"293 547 OFFCURVE",
"280 577 OFFCURVE",
"289 617 CURVE SMOOTH",
"297 658 OFFCURVE",
"334 688 OFFCURVE",
"374 688 CURVE SMOOTH",
"428 688 OFFCURVE",
"438 658 OFFCURVE",
"430 617 CURVE SMOOTH",
"421 577 OFFCURVE",
"385 547 OFFCURVE",
"344 547 CURVE SMOOTH"
);
}
);
width = 522;
}
);
leftKerningGroup = a;
note = aring;
rightKerningGroup = a;
unicode = 00E5;
},
{
glyphname = aringacute;
lastChange = "2015-11-26 12:45:05 +0000";
layers = (
{
layerId = "45AE5D37-AE90-4B36-85E4-274E7BAA8508";
name = "Light Italic";
paths = (
{
closed = 1;
nodes = (
"287 -10 OFFCURVE",
"346 11 OFFCURVE",
"403 57 CURVE",
"395 0 LINE",
"418 0 LINE",
"518 474 LINE",
"490 474 LINE",
"481 430 LINE",
"437 470 OFFCURVE",
"395 484 OFFCURVE",
"325 484 CURVE SMOOTH",
"194 484 OFFCURVE",
"87 391 OFFCURVE",
"50 218 CURVE SMOOTH",
"13 45 OFFCURVE",
"94 -10 OFFCURVE",
"212 -10 CURVE SMOOTH"
);
},
{
closed = 1;
nodes = (
"92 15 OFFCURVE",
"46 72 OFFCURVE",
"77 218 CURVE SMOOTH",
"110 372 OFFCURVE",
"203 459 OFFCURVE",
"329 459 CURVE SMOOTH",
"401 459 OFFCURVE",
"443 437 OFFCURVE",
"475 401 CURVE",
"408 86 LINE",
"350 37 OFFCURVE",
"292 15 OFFCURVE",
"223 15 CURVE SMOOTH"
);
},
{
closed = 1;
nodes = (
"392 522 OFFCURVE",
"439 564 OFFCURVE",
"450 617 CURVE SMOOTH",
"461 671 OFFCURVE",
"431 713 OFFCURVE",
"374 713 CURVE SMOOTH",
"317 713 OFFCURVE",
"270 671 OFFCURVE",
"259 617 CURVE SMOOTH",
"248 564 OFFCURVE",
"277 522 OFFCURVE",
"334 522 CURVE SMOOTH"
);
},
{
closed = 1;
nodes = (
"288 547 OFFCURVE",
"275 577 OFFCURVE",
"284 617 CURVE SMOOTH",
"292 658 OFFCURVE",
"329 688 OFFCURVE",
"369 688 CURVE SMOOTH",
"423 688 OFFCURVE",
"433 658 OFFCURVE",
"425 617 CURVE SMOOTH",
"416 577 OFFCURVE",
"380 547 OFFCURVE",
"339 547 CURVE SMOOTH"
);
},
{
closed = 1;
nodes = (
"421 780 LINE",
"523 899 LINE",
"493 899 LINE",
"398 780 LINE"
);
}
);
width = 522;
}
);
leftKerningGroup = a;
note = aringacute;
rightKerningGroup = a;
unicode = 01FB;
},
{
glyphname = atilde;
lastChange = "2015-11-26 12:45:06 +0000";
layers = (
{
layerId = "45AE5D37-AE90-4B36-85E4-274E7BAA8508";
name = "Light Italic";
paths = (
{
closed = 1;
nodes = (
"287 -10 OFFCURVE",
"346 11 OFFCURVE",
"403 57 CURVE",
"395 0 LINE",
"418 0 LINE",
"518 474 LINE",
"490 474 LINE",
"481 430 LINE",
"437 470 OFFCURVE",
"395 484 OFFCURVE",
"325 484 CURVE SMOOTH",
"194 484 OFFCURVE",
"87 391 OFFCURVE",
"50 218 CURVE SMOOTH",
"13 45 OFFCURVE",
"94 -10 OFFCURVE",
"212 -10 CURVE SMOOTH"
);
},
{
closed = 1;
nodes = (
"92 15 OFFCURVE",
"46 72 OFFCURVE",
"77 218 CURVE SMOOTH",
"110 372 OFFCURVE",
"203 459 OFFCURVE",
"329 459 CURVE SMOOTH",
"401 459 OFFCURVE",
"443 437 OFFCURVE",
"475 401 CURVE",
"408 86 LINE",
"350 37 OFFCURVE",
"292 15 OFFCURVE",
"223 15 CURVE SMOOTH"
);
},
{
closed = 1;
nodes = (
"436 552 OFFCURVE",
"459 562 OFFCURVE",
"476 580 CURVE",
"483 611 LINE",
"459 585 OFFCURVE",
"436 577 OFFCURVE",
"407 577 CURVE SMOOTH",
"364 577 OFFCURVE",
"343 613 OFFCURVE",
"294 613 CURVE SMOOTH",
"266 613 OFFCURVE",
"235 603 OFFCURVE",
"216 585 CURVE",
"210 554 LINE",
"237 581 OFFCURVE",
"264 588 OFFCURVE",
"292 588 CURVE SMOOTH",
"329 588 OFFCURVE",
"359 552 OFFCURVE",
"405 552 CURVE SMOOTH"
);
}
);
width = 522;
}
);
leftKerningGroup = a;
note = atilde;
rightKerningGroup = a;
unicode = 00E3;
},
{
glyphname = ae;
lastChange = "2015-11-26 12:45:07 +0000";
layers = (
{
layerId = "45AE5D37-AE90-4B36-85E4-274E7BAA8508";
name = "Light Italic";
paths = (
{
closed = 1;
nodes = (
"273 -10 OFFCURVE",
"355 27 OFFCURVE",
"405 108 CURVE",
"418 25 OFFCURVE",
"476 -10 OFFCURVE",
"598 -10 CURVE SMOOTH",
"641 -10 OFFCURVE",
"690 -1 OFFCURVE",
"731 14 CURVE",
"737 40 LINE",
"691 23 OFFCURVE",
"650 15 OFFCURVE",
"609 15 CURVE SMOOTH",
"446 15 OFFCURVE",
"406 74 OFFCURVE",
"437 218 CURVE",
"807 218 LINE",
"824 300 LINE SMOOTH",
"846 400 OFFCURVE",
"810 484 OFFCURVE",
"677 484 CURVE SMOOTH",
"577 484 OFFCURVE",
"509 444 OFFCURVE",
"464 373 CURVE",
"466 453 OFFCURVE",
"415 484 OFFCURVE",
"313 484 CURVE SMOOTH",
"254 484 OFFCURVE",
"198 476 OFFCURVE",
"154 460 CURVE",
"149 434 LINE",
"196 450 OFFCURVE",
"248 459 OFFCURVE",
"302 459 CURVE SMOOTH",
"439 459 OFFCURVE",
"452 419 OFFCURVE",
"430 317 CURVE SMOOTH",
"417 256 LINE",
"228 256 LINE SMOOTH",
"100 256 OFFCURVE",
"46 201 OFFCURVE",
"29 120 CURVE SMOOTH",
"9 26 OFFCURVE",
"75 -10 OFFCURVE",
"165 -10 CURVE SMOOTH"
);
},
{
closed = 1;
nodes = (
"90 15 OFFCURVE",
"40 45 OFFCURVE",
"56 120 CURVE SMOOTH",
"71 191 OFFCURVE",
"111 230 OFFCURVE",
"224 230 CURVE SMOOTH",
"411 230 LINE",
"395 154 LINE SMOOTH",
"377 67 OFFCURVE",
"277 15 OFFCURVE",
"178 15 CURVE SMOOTH"
);
},
{
closed = 1;
nodes = (
"471 377 OFFCURVE",
"535 459 OFFCURVE",
"672 459 CURVE SMOOTH",
"795 459 OFFCURVE",
"816 395 OFFCURVE",
"795 296 CURVE SMOOTH",
"784 244 LINE",
"442 244 LINE"
);
}
);
width = 877;
}
);
leftKerningGroup = a;
note = ae;
rightKerningGroup = e;
unicode = 00E6;
},
{
glyphname = aeacute;
lastChange = "2015-11-26 12:45:06 +0000";
layers = (
{
layerId = "45AE5D37-AE90-4B36-85E4-274E7BAA8508";
name = "Light Italic";
paths = (
{
closed = 1;
nodes = (
"273 -10 OFFCURVE",
"355 27 OFFCURVE",
"405 108 CURVE",
"418 25 OFFCURVE",
"476 -10 OFFCURVE",
"598 -10 CURVE SMOOTH",
"641 -10 OFFCURVE",
"690 -1 OFFCURVE",
"731 14 CURVE",
"737 40 LINE",
"691 23 OFFCURVE",
"650 15 OFFCURVE",
"609 15 CURVE SMOOTH",
"446 15 OFFCURVE",
"406 74 OFFCURVE",
"437 218 CURVE",
"807 218 LINE",
"824 300 LINE SMOOTH",
"846 400 OFFCURVE",
"810 484 OFFCURVE",
"677 484 CURVE SMOOTH",
"577 484 OFFCURVE",
"509 444 OFFCURVE",
"464 373 CURVE",
"466 453 OFFCURVE",
"415 484 OFFCURVE",
"313 484 CURVE SMOOTH",
"254 484 OFFCURVE",
"198 476 OFFCURVE",
"154 460 CURVE",
"149 434 LINE",
"196 450 OFFCURVE",
"248 459 OFFCURVE",
"302 459 CURVE SMOOTH",
"439 459 OFFCURVE",
"452 419 OFFCURVE",
"430 317 CURVE SMOOTH",
"417 256 LINE",
"228 256 LINE SMOOTH",
"100 256 OFFCURVE",
"46 201 OFFCURVE",
"29 120 CURVE SMOOTH",
"9 26 OFFCURVE",
"75 -10 OFFCURVE",
"165 -10 CURVE SMOOTH"
);
},
{
closed = 1;
nodes = (
"90 15 OFFCURVE",
"40 45 OFFCURVE",
"56 120 CURVE SMOOTH",
"71 191 OFFCURVE",
"111 230 OFFCURVE",
"224 230 CURVE SMOOTH",
"411 230 LINE",
"395 154 LINE SMOOTH",
"377 67 OFFCURVE",
"277 15 OFFCURVE",
"178 15 CURVE SMOOTH"
);
},
{
closed = 1;
nodes = (
"471 377 OFFCURVE",
"535 459 OFFCURVE",
"672 459 CURVE SMOOTH",
"795 459 OFFCURVE",
"816 395 OFFCURVE",
"795 296 CURVE SMOOTH",
"784 244 LINE",
"442 244 LINE"
);
},
{
closed = 1;
nodes = (
"521 522 LINE",
"623 671 LINE",
"593 671 LINE",
"498 522 LINE"
);
}
);
width = 877;
}
);
leftKerningGroup = a;
note = aeacute;
rightKerningGroup = e;
unicode = 01FD;
},
{
glyphname = b;
lastChange = "2015-11-26 12:45:06 +0000";
layers = (
{
layerId = "45AE5D37-AE90-4B36-85E4-274E7BAA8508";
name = "Light Italic";
paths = (
{
closed = 1;
nodes = (
"361 -10 OFFCURVE",
"452 68 OFFCURVE",
"489 241 CURVE SMOOTH",
"525 414 OFFCURVE",
"462 484 OFFCURVE",
"331 484 CURVE SMOOTH",
"261 484 OFFCURVE",
"203 468 OFFCURVE",
"143 430 CURVE",
"195 674 LINE",
"167 674 LINE",
"24 0 LINE",
"47 0 LINE",
"63 57 LINE",
"100 11 OFFCURVE",
"151 -10 OFFCURVE",
"224 -10 CURVE SMOOTH"
);
},
{
closed = 1;
nodes = (
"153 15 OFFCURVE",
"106 37 OFFCURVE",
"70 86 CURVE",
"137 401 LINE",
"186 435 OFFCURVE",
"245 459 OFFCURVE",
"317 459 CURVE SMOOTH",
"455 459 OFFCURVE",
"494 395 OFFCURVE",
"462 241 CURVE SMOOTH",
"431 95 OFFCURVE",
"361 15 OFFCURVE",
"225 15 CURVE SMOOTH"
);
}
);
width = 554;
}
);
note = b;
unicode = 0062;
},
{
glyphname = c;
lastChange = "2015-11-26 12:45:03 +0000";
layers = (
{
layerId = "45AE5D37-AE90-4B36-85E4-274E7BAA8508";
name = "Light Italic";
paths = (
{
closed = 1;
nodes = (
"279 -10 OFFCURVE",
"324 -1 OFFCURVE",
"362 14 CURVE",
"368 40 LINE",
"329 25 OFFCURVE",
"283 15 OFFCURVE",
"240 15 CURVE SMOOTH",
"85 15 OFFCURVE",
"49 87 OFFCURVE",
"81 237 CURVE SMOOTH",
"113 387 OFFCURVE",
"205 459 OFFCURVE",
"340 459 CURVE SMOOTH",
"385 459 OFFCURVE",
"417 451 OFFCURVE",
"452 434 CURVE",
"457 460 LINE",
"428 476 OFFCURVE",
"400 484 OFFCURVE",
"342 484 CURVE SMOOTH",
"196 484 OFFCURVE",
"89 403 OFFCURVE",
"54 237 CURVE SMOOTH",
"21 83 OFFCURVE",
"67 -10 OFFCURVE",
"227 -10 CURVE SMOOTH"
);
}
);
width = 476;
}
);
leftKerningGroup = c;
note = c;
rightKerningGroup = c;
unicode = 0063;
},
{
glyphname = cacute;
lastChange = "2015-11-26 12:45:05 +0000";
layers = (
{
layerId = "45AE5D37-AE90-4B36-85E4-274E7BAA8508";
name = "Light Italic";
paths = (
{
closed = 1;
nodes = (
"279 -10 OFFCURVE",
"324 -1 OFFCURVE",
"362 14 CURVE",
"368 40 LINE",
"329 25 OFFCURVE",
"283 15 OFFCURVE",
"240 15 CURVE SMOOTH",
"85 15 OFFCURVE",
"49 87 OFFCURVE",
"81 237 CURVE SMOOTH",
"113 387 OFFCURVE",
"205 459 OFFCURVE",
"340 459 CURVE SMOOTH",
"385 459 OFFCURVE",
"417 451 OFFCURVE",
"452 434 CURVE",
"457 460 LINE",
"428 476 OFFCURVE",
"400 484 OFFCURVE",
"342 484 CURVE SMOOTH",
"196 484 OFFCURVE",
"89 403 OFFCURVE",
"54 237 CURVE SMOOTH",
"21 83 OFFCURVE",
"67 -10 OFFCURVE",
"227 -10 CURVE SMOOTH"
);
},
{
closed = 1;
nodes = (
"335 522 LINE",
"437 671 LINE",
"407 671 LINE",
"312 522 LINE"
);
}
);
width = 476;
}
);
leftKerningGroup = c;
note = cacute;
rightKerningGroup = c;
unicode = 0107;
},
{
glyphname = ccaron;
lastChange = "2015-11-26 12:45:06 +0000";
layers = (
{
layerId = "45AE5D37-AE90-4B36-85E4-274E7BAA8508";
name = "Light Italic";
paths = (
{
closed = 1;
nodes = (
"279 -10 OFFCURVE",
"324 -1 OFFCURVE",
"362 14 CURVE",
"368 40 LINE",
"329 25 OFFCURVE",
"283 15 OFFCURVE",
"240 15 CURVE SMOOTH",
"85 15 OFFCURVE",
"49 87 OFFCURVE",
"81 237 CURVE SMOOTH",
"113 387 OFFCURVE",
"205 459 OFFCURVE",
"340 459 CURVE SMOOTH",
"385 459 OFFCURVE",
"417 451 OFFCURVE",
"452 434 CURVE",
"457 460 LINE",
"428 476 OFFCURVE",
"400 484 OFFCURVE",
"342 484 CURVE SMOOTH",
"196 484 OFFCURVE",
"89 403 OFFCURVE",
"54 237 CURVE SMOOTH",
"21 83 OFFCURVE",
"67 -10 OFFCURVE",
"227 -10 CURVE SMOOTH"
);
},
{
closed = 1;
nodes = (
"346 522 LINE",
"467 644 LINE",
"436 644 LINE",
"333 540 LINE",
"274 644 LINE",
"247 644 LINE",
"316 522 LINE"
);
}
);
width = 476;
}
);
leftKerningGroup = c;
note = ccaron;
rightKerningGroup = c;
unicode = 010D;
},
